  0
SECTION
  2
HEADER
  9
$ACADVER
  1
AC1009
  9
$INSBASE
 10
0.0
 20
0.0
 30
0.0
  9
$EXTMIN
 10
26.682455521403199
 20
4.1465574354719124
 30
0.0
  9
$EXTMAX
 10
404.6824555214032
 20
174.14655743547189
 30
0.0
  9
$LIMMIN
 10
0.0
 20
0.0
  9
$LIMMAX
 10
420.0
 20
297.0
  9
$ORTHOMODE
 70
     0
  9
$REGENMODE
 70
     1
  9
$FILLMODE
 70
     1
  9
$QTEXTMODE
 70
     0
  9
$MIRRTEXT
 70
     1
  9
$DRAGMODE
 70
     2
  9
$LTSCALE
 40
1.0
  9
$OSMODE
 70
   695
  9
$ATTMODE
 70
     1
  9
$TEXTSIZE
 40
3.5
  9
$TRACEWID
 40
1.0
  9
$TEXTSTYLE
  7
STANDARD
  9
$CLAYER
  8
0
  9
$CELTYPE
  6
BYLAYER
  9
$CECOLOR
 62
   256
  9
$DIMSCALE
 40
1.0
  9
$DIMASZ
 40
3.302
  9
$DIMEXO
 40
1.0
  9
$DIMDLI
 40
3.75
  9
$DIMRND
 40
0.0
  9
$DIMDLE
 40
0.0
  9
$DIMEXE
 40
1.0
  9
$DIMTP
 40
0.0
  9
$DIMTM
 40
0.0
  9
$DIMTXT
 40
3.5
  9
$DIMCEN
 40
2.5
  9
$DIMTSZ
 40
0.0
  9
$DIMTOL
 70
     0
  9
$DIMLIM
 70
     0
  9
$DIMTIH
 70
     1
  9
$DIMTOH
 70
     1
  9
$DIMSE1
 70
     0
  9
$DIMSE2
 70
     0
  9
$DIMTAD
 70
     1
  9
$DIMZIN
 70
     0
  9
$DIMBLK
  1

  9
$DIMASO
 70
     1
  9
$DIMSHO
 70
     1
  9
$DIMPOST
  1

  9
$DIMAPOST
  1

  9
$DIMALT
 70
     0
  9
$DIMALTD
 70
     3
  9
$DIMALTF
 40
0.0393700787
  9
$DIMLFAC
 40
1.0
  9
$DIMTOFL
 70
     1
  9
$DIMTVP
 40
0.0
  9
$DIMTIX
 70
     0
  9
$DIMSOXD
 70
     0
  9
$DIMSAH
 70
     0
  9
$DIMBLK1
  1

  9
$DIMBLK2
  1

  9
$DIMSTYLE
  2
ISO-25
  9
$DIMCLRD
 70
     0
  9
$DIMCLRE
 70
     0
  9
$DIMCLRT
 70
     0
  9
$DIMTFAC
 40
1.0
  9
$DIMGAP
 40
1.524
  9
$LUNITS
 70
     2
  9
$LUPREC
 70
     2
  9
$SKETCHINC
 40
1.0
  9
$FILLETRAD
 40
10.0
  9
$AUNITS
 70
     0
  9
$AUPREC
 70
     2
  9
$MENU
  1
.
  9
$ELEVATION
 40
0.0
  9
$PELEVATION
 40
0.0
  9
$THICKNESS
 40
0.0
  9
$LIMCHECK
 70
     0
  9
$BLIPMODE
 70
     0
  9
$CHAMFERA
 40
10.0
  9
$CHAMFERB
 40
10.0
  9
$SKPOLY
 70
     0
  9
$TDCREATE
 40
2456524.863864792
  9
$TDUPDATE
 40
2456906.9164753822
  9
$TDINDWG
 40
1461.3788598031999
  9
$TDUSRTIMER
 40
1461.3788482292
  9
$USRTIMER
 70
     1
  9
$ANGBASE
 50
0.0
  9
$ANGDIR
 70
     0
  9
$PDMODE
 70
     0
  9
$PDSIZE
 40
-1.0
  9
$PLINEWID
 40
0.0
  9
$COORDS
 70
     1
  9
$SPLFRAME
 70
     0
  9
$SPLINETYPE
 70
     6
  9
$SPLINESEGS
 70
     8
  9
$ATTDIA
 70
     0
  9
$ATTREQ
 70
     1
  9
$HANDLING
 70
     1
  9
$HANDSEED
  5
1867
  9
$SURFTAB1
 70
     6
  9
$SURFTAB2
 70
     6
  9
$SURFTYPE
 70
     6
  9
$SURFU
 70
     6
  9
$SURFV
 70
     6
  9
$UCSNAME
  2

  9
$UCSORG
 10
0.0
 20
0.0
 30
0.0
  9
$UCSXDIR
 10
1.0
 20
0.0
 30
0.0
  9
$UCSYDIR
 10
0.0
 20
1.0
 30
0.0
  9
$PUCSNAME
  2

  9
$PUCSORG
 10
0.0
 20
0.0
 30
0.0
  9
$PUCSXDIR
 10
1.0
 20
0.0
 30
0.0
  9
$PUCSYDIR
 10
0.0
 20
1.0
 30
0.0
  9
$USERI1
 70
     0
  9
$USERI2
 70
     0
  9
$USERI3
 70
     0
  9
$USERI4
 70
     0
  9
$USERI5
 70
     0
  9
$USERR1
 40
0.0
  9
$USERR2
 40
0.0
  9
$USERR3
 40
0.0
  9
$USERR4
 40
0.0
  9
$USERR5
 40
0.0
  9
$WORLDVIEW
 70
     1
  9
$SHADEDGE
 70
     3
  9
$SHADEDIF
 70
    70
  9
$TILEMODE
 70
     1
  9
$MAXACTVP
 70
    64
  9
$PLIMCHECK
 70
     0
  9
$PEXTMIN
 10
1.0000000000000000E+020
 20
1.0000000000000000E+020
 30
1.0000000000000000E+020
  9
$PEXTMAX
 10
-1.0000000000000000E+020
 20
-1.0000000000000000E+020
 30
-1.0000000000000000E+020
  9
$PLIMMIN
 10
0.0
 20
0.0
  9
$PLIMMAX
 10
420.0
 20
297.0
  9
$UNITMODE
 70
     0
  9
$VISRETAIN
 70
     1
  9
$PLINEGEN
 70
     0
  9
$PSLTSCALE
 70
     1
  0
ENDSEC
  0
SECTION
  2
TABLES
  0
TABLE
  2
VPORT
 70
     1
  0
VPORT
  2
*ACTIVE
 70
     0
 10
0.0
 20
0.0
 11
1.0
 21
1.0
 12
173.05879873540539
 22
46.999940590693079
 13
0.0
 23
0.0
 14
10.0
 24
10.0
 15
10.0
 25
10.0
 16
0.0
 26
0.0
 36
1.0
 17
0.0
 27
0.0
 37
0.0
 40
317.12692138211418
 41
1.9868421052631571
 42
50.0
 43
0.0
 44
0.0
 50
0.0
 51
0.0
 71
     0
 72
   100
 73
     1
 74
     3
 75
     0
 76
     0
 77
     0
 78
     0
  0
ENDTAB
  0
TABLE
  2
LTYPE
 70
     7
  0
LTYPE
  2
CONTINUOUS
 70
     0
  3
Solid line
 72
    65
 73
     0
 40
0.0
  0
LTYPE
  2
HIDDEN
 70
     0
  3
Hidden __ __ __ __ __ __ __ __ __ __ __ __ __ __
 72
    65
 73
     2
 40
1.905
 49
1.27
 49
-0.635
  0
LTYPE
  2
PHANTOM
 70
     0
  3
Phantom ______  __  __  ______  __  __  ______
 72
    65
 73
     6
 40
12.699999999999999
 49
6.349999999999997
 49
-1.27
 49
1.27
 49
-1.27
 49
1.27
 49
-1.27
  0
LTYPE
  2
CENTER
 70
     0
  3
Center ____ _ ____ _ ____ _ ____ _ ____ _ ____
 72
    65
 73
     4
 40
10.16
 49
6.349999999999997
 49
-1.27
 49
1.27
 49
-1.27
  0
LTYPE
  2
CENTERX2
 70
     0
  3
Center (2x) ________  __  ________  __  _____
 72
    65
 73
     4
 40
20.32
 49
12.699999999999999
 49
-2.54
 49
2.54
 49
-2.54
  0
LTYPE
  2
DOT2
 70
     0
  3
Dot (.5x) ........................................
 72
    65
 73
     2
 40
0.635
 49
0.0
 49
-0.635
  0
LTYPE
  2
CENTER2
 70
     0
  3
Center (.5x) ___ _ ___ _ ___ _ ___ _ ___ _ ___
 72
    65
 73
     4
 40
28.574999999999999
 49
19.050000000000001
 49
-3.174999999999998
 49
3.174999999999998
 49
-3.174999999999998
  0
ENDTAB
  0
TABLE
  2
LAYER
 70
     2
  0
LAYER
  2
0
 70
     0
 62
     7
  6
CONTINUOUS
  0
LAYER
  2
ÖÐÐÄÏß
 70
     0
 62
     1
  6
CENTER2
  0
ENDTAB
  0
TABLE
  2
STYLE
 70
     3
  0
STYLE
  2
STANDARD
 70
     0
 40
0.0
 41
1.0
 50
0.0
 71
     0
 42
3.5
  3
txt
  4

  0
STYLE
  2
ANNOTATIVE
 70
     0
 40
0.0
 41
1.0
 50
0.0
 71
     0
 42
0.2
  3
txt
  4

  0
STYLE
  2

 70
     1
 40
0.0
 41
1.0
 50
0.0
 71
     0
 42
3.5
  3
ltypeshp.shx
  4

  0
ENDTAB
  0
TABLE
  2
VIEW
 70
     0
  0
ENDTAB
  0
TABLE
  2
UCS
 70
     0
  0
ENDTAB
  0
TABLE
  2
APPID
 70
     8
  0
APPID
  2
ACAD
 70
     0
  0
APPID
  2
ACADANNOTATIVE
 70
     0
  0
APPID
  2
ACAECLAYERSTANDARD
 70
     0
  0
APPID
  2
ACCMTRANSPARENCY
 70
     0
  0
APPID
  2
ACAD_NAV_VCDISPLAY
 70
     0
  0
APPID
  2
ACAD_EXEMPT_FROM_CAD_STANDARDS
 70
     0
  0
APPID
  2
ACAD_DSTYLE_DIMRADIAL_EXTENSION
 70
     0
  0
APPID
  2
ACAD_MLEADERVER
 70
     0
  0
ENDTAB
  0
TABLE
  2
DIMSTYLE
 70
     3
  0
DIMSTYLE
  2
STANDARD
 70
     0
  3

  4

  5

  6

  7

 40
1.0
 41
0.18
 42
0.0625
 43
0.38
 44
0.18
 45
0.0
 46
0.0
 47
0.0
 48
0.0
140
0.18
141
0.09
142
0.0
143
25.399999999999999
144
1.0
145
0.0
146
1.0
147
0.09
 71
     0
 72
     0
 73
     1
 74
     1
 75
     0
 76
     0
 77
     0
 78
     0
170
     0
171
     2
172
     0
173
     0
174
     0
175
     0
176
     0
177
     0
178
     0
  0
DIMSTYLE
  2
ANNOTATIVE
 70
     0
  3

  4

  5

  6

  7

 40
1.0
 41
0.18
 42
0.0625
 43
0.38
 44
0.18
 45
0.0
 46
0.0
 47
0.0
 48
0.0
140
0.18
141
0.09
142
0.0
143
25.399999999999999
144
1.0
145
0.0
146
1.0
147
0.09
 71
     0
 72
     0
 73
     1
 74
     1
 75
     0
 76
     0
 77
     0
 78
     0
170
     0
171
     2
172
     0
173
     0
174
     0
175
     0
176
     0
177
     0
178
     0
  0
DIMSTYLE
  2
ISO-25
 70
     0
  3

  4

  5

  6

  7

 40
1.0
 41
2.5
 42
0.625
 43
3.75
 44
1.25
 45
0.0
 46
0.0
 47
0.0
 48
0.0
140
2.5
141
2.5
142
0.0
143
0.0393700787
144
1.0
145
0.0
146
1.0
147
0.625
 71
     0
 72
     0
 73
     0
 74
     0
 75
     0
 76
     0
 77
     1
 78
     8
170
     0
171
     3
172
     1
173
     0
174
     0
175
     0
176
     0
177
     0
178
     0
  0
ENDTAB
  0
ENDSEC
  0
SECTION
  2
BLOCKS
  0
BLOCK
  8
0
  2
$MODEL_SPACE
 70
     0
 10
0.0
 20
0.0
 30
0.0
  3
$MODEL_SPACE
  1

  0
ENDBLK
  5
E6C
  8
0
  0
BLOCK
 67
     1
  8
0
  2
$PAPER_SPACE
 70
     0
 10
0.0
 20
0.0
 30
0.0
  3
$PAPER_SPACE
  1

  0
ENDBLK
  5
E68
 67
     1
  8
0
  0
BLOCK
  8
0
  2
*U2
 70
     1
 10
0.0
 20
0.0
 30
0.0
  3
*U2
  1

  0
LINE
  5
51D
  8
0
 10
43.977657348099953
 20
-24.900033491500029
 30
0.0
 11
63.977657348099967
 21
-24.90003349150005
 31
0.0
  0
ARC
  5
51E
  8
0
 10
63.977657348099967
 20
-22.90003349150005
 30
0.0
 40
2.0
 50
270.0
 51
90.0
  0
ARC
  5
51F
  8
0
 10
43.977657348099953
 20
-22.900033491500029
 30
0.0
 40
2.0
 50
90.0
 51
269.99999999999972
  0
LINE
  5
520
  8
0
 10
43.977657348099953
 20
-20.900033491500022
 30
0.0
 11
63.977657348099967
 21
-20.900033491500061
 31
0.0
  0
ENDBLK
  5
522
  8
0
  0
BLOCK
  8
0
  2
*U3
 70
     1
 10
0.0
 20
0.0
 30
0.0
  3
*U3
  1

  0
CIRCLE
  5
524
  8
0
 10
93.977657348099996
 20
47.099966508500003
 30
0.0
 40
2.0000000000000231
  0
ENDBLK
  5
526
  8
0
  0
BLOCK
  8
0
  2
*U4
 70
     1
 10
0.0
 20
0.0
 30
0.0
  3
*U4
  1

  0
CIRCLE
  5
528
  8
0
 10
93.977657348099996
 20
-22.9000334915
 30
0.0
 40
2.0000000000000231
  0
ENDBLK
  5
52A
  8
0
  0
BLOCK
  8
0
  2
*U5
 70
     1
 10
0.0
 20
0.0
 30
0.0
  3
*U5
  1

  0
CIRCLE
  5
52C
  8
0
 10
-56.02234265189999
 20
-22.9000334915
 30
0.0
 40
2.0000000000000151
  0
ENDBLK
  5
52E
  8
0
  0
BLOCK
  8
0
  2
*U6
 70
     1
 10
0.0
 20
0.0
 30
0.0
  3
*U6
  1

  0
CIRCLE
  5
530
  8
0
 10
93.977657348099996
 20
22.0999665085
 30
0.0
 40
1.5
  0
ENDBLK
  5
532
  8
0
  0
BLOCK
  8
0
  2
*U7
 70
     1
 10
0.0
 20
0.0
 30
0.0
  3
*U7
  1

  0
CIRCLE
  5
534
  8
0
 10
93.977657348099996
 20
2.0999665085000032
 30
0.0
 40
1.5
  0
ENDBLK
  5
536
  8
0
  0
BLOCK
  8
0
  2
*U8
 70
     1
 10
0.0
 20
0.0
 30
0.0
  3
*U8
  1

  0
CIRCLE
  5
538
  8
0
 10
79.977657348099982
 20
2.0999665085000032
 30
0.0
 40
1.5
  0
ENDBLK
  5
53A
  8
0
  0
BLOCK
  8
0
  2
*U9
 70
     1
 10
0.0
 20
0.0
 30
0.0
  3
*U9
  1

  0
CIRCLE
  5
53C
  8
0
 10
79.97765734810001
 20
22.0999665085
 30
0.0
 40
1.5
  0
ENDBLK
  5
53E
  8
0
  0
BLOCK
  8
0
  2
*U10
 70
     1
 10
0.0
 20
0.0
 30
0.0
  3
*U10
  1

  0
CIRCLE
  5
540
  8
0
 10
-56.02234265189999
 20
22.0999665085
 30
0.0
 40
1.5
  0
ENDBLK
  5
542
  8
0
  0
BLOCK
  8
0
  2
*U11
 70
     1
 10
0.0
 20
0.0
 30
0.0
  3
*U11
  1

  0
CIRCLE
  5
544
  8
0
 10
-56.022342651899912
 20
2.0999665085000032
 30
0.0
 40
1.5
  0
ENDBLK
  5
546
  8
0
  0
BLOCK
  8
0
  2
*U12
 70
     1
 10
0.0
 20
0.0
 30
0.0
  3
*U12
  1

  0
CIRCLE
  5
548
  8
0
 10
-42.02234265189994
 20
2.0999665085000041
 30
0.0
 40
1.5
  0
ENDBLK
  5
54A
  8
0
  0
BLOCK
  8
0
  2
*U13
 70
     1
 10
0.0
 20
0.0
 30
0.0
  3
*U13
  1

  0
CIRCLE
  5
54C
  8
0
 10
-42.02234265189994
 20
22.0999665085
 30
0.0
 40
1.5
  0
ENDBLK
  5
54E
  8
0
  0
BLOCK
  8
0
  2
*U14
 70
     1
 10
0.0
 20
0.0
 30
0.0
  3
*U14
  1

  0
CIRCLE
  5
550
  8
0
 10
98.977657348099996
 20
27.0999665085
 30
0.0
 40
1.75
  0
ENDBLK
  5
552
  8
0
  0
BLOCK
  8
0
  2
*U15
 70
     1
 10
0.0
 20
0.0
 30
0.0
  3
*U15
  1

  0
CIRCLE
  5
554
  8
0
 10
98.977657348099996
 20
-2.900033491499995
 30
0.0
 40
1.75
  0
ENDBLK
  5
556
  8
0
  0
BLOCK
  8
0
  2
*U16
 70
     1
 10
0.0
 20
0.0
 30
0.0
  3
*U16
  1

  0
CIRCLE
  5
558
  8
0
 10
74.97765734810001
 20
27.0999665085
 30
0.0
 40
1.75
  0
ENDBLK
  5
55A
  8
0
  0
BLOCK
  8
0
  2
*U17
 70
     1
 10
0.0
 20
0.0
 30
0.0
  3
*U17
  1

  0
CIRCLE
  5
55C
  8
0
 10
74.97765734810001
 20
-2.900033491499995
 30
0.0
 40
1.75
  0
ENDBLK
  5
55E
  8
0
  0
BLOCK
  8
0
  2
*U18
 70
     1
 10
0.0
 20
0.0
 30
0.0
  3
*U18
  1

  0
CIRCLE
  5
560
  8
0
 10
-61.02234265189999
 20
27.0999665085
 30
0.0
 40
1.75
  0
ENDBLK
  5
562
  8
0
  0
BLOCK
  8
0
  2
*U19
 70
     1
 10
0.0
 20
0.0
 30
0.0
  3
*U19
  1

  0
CIRCLE
  5
564
  8
0
 10
-61.02234265189999
 20
-2.900033491499995
 30
0.0
 40
1.75
  0
ENDBLK
  5
566
  8
0
  0
BLOCK
  8
0
  2
*U20
 70
     1
 10
0.0
 20
0.0
 30
0.0
  3
*U20
  1

  0
CIRCLE
  5
568
  8
0
 10
-37.02234265189999
 20
27.0999665085
 30
0.0
 40
1.75
  0
ENDBLK
  5
56A
  8
0
  0
BLOCK
  8
0
  2
*U21
 70
     1
 10
0.0
 20
0.0
 30
0.0
  3
*U21
  1

  0
CIRCLE
  5
56C
  8
0
 10
-37.02234265189999
 20
-2.900033491499995
 30
0.0
 40
1.75
  0
ENDBLK
  5
56E
  8
0
  0
BLOCK
  8
0
  2
*U22
 70
     1
 10
0.0
 20
0.0
 30
0.0
  3
*U22
  1

  0
LINE
  5
570
  8
0
 10
-26.022342651900001
 20
45.099966508500003
 30
0.0
 11
-6.0223426518999972
 21
45.099966508500003
 31
0.0
  0
ARC
  5
571
  8
0
 10
-6.0223426518999972
 20
47.099966508500003
 30
0.0
 40
2.0
 50
270.0
 51
90.0
  0
ARC
  5
572
  8
0
 10
-26.022342651900001
 20
47.099966508500003
 30
0.0
 40
2.0
 50
90.0
 51
270.0
  0
LINE
  5
573
  8
0
 10
-6.0223426518999972
 20
49.09996650850001
 30
0.0
 11
-26.022342651900001
 21
49.09996650850001
 31
0.0
  0
ENDBLK
  5
575
  8
0
  0
BLOCK
  8
0
  2
*U23
 70
     1
 10
0.0
 20
0.0
 30
0.0
  3
*U23
  1

  0
CIRCLE
  5
577
  8
0
 10
63.977657348100003
 20
37.099966508500003
 30
0.0
 40
1.75
  0
ENDBLK
  5
579
  8
0
  0
BLOCK
  8
0
  2
*U24
 70
     1
 10
0.0
 20
0.0
 30
0.0
  3
*U24
  1

  0
CIRCLE
  5
57B
  8
0
 10
-26.022342651900011
 20
37.099966508500003
 30
0.0
 40
1.75
  0
ENDBLK
  5
57D
  8
0
  0
BLOCK
  8
0
  2
*U25
 70
     1
 10
0.0
 20
0.0
 30
0.0
  3
*U25
  1

  0
CIRCLE
  5
57F
  8
0
 10
-26.022342651900011
 20
-12.9000334915
 30
0.0
 40
1.75
  0
ENDBLK
  5
581
  8
0
  0
BLOCK
  8
0
  2
*U26
 70
     1
 10
0.0
 20
0.0
 30
0.0
  3
*U26
  1

  0
CIRCLE
  5
583
  8
0
 10
63.977657348100003
 20
-12.9000334915
 30
0.0
 40
1.75
  0
ENDBLK
  5
585
  8
0
  0
ENDSEC
  0
SECTION
  2
ENTITIES
  0
POLYLINE
  5
F0A
  8
0
 66
     1
 10
0.0
 20
0.0
 30
0.0
 70
     1
  0
VERTEX
  5
16C7
  8
0
 10
38.432455521403199
 20
14.146557435471911
 30
0.0
 42
-1.0
  0
VERTEX
  5
16C8
  8
0
 10
34.932455521403199
 20
14.146557435471911
 30
0.0
 42
-1.0
  0
SEQEND
  5
16C9
  8
0
  0
POLYLINE
  5
F0B
  8
0
 66
     1
 10
0.0
 20
0.0
 30
0.0
 70
     1
  0
VERTEX
  5
16CA
  8
0
 10
108.4324555214032
 20
14.146557435471911
 30
0.0
 42
-1.0
  0
VERTEX
  5
16CB
  8
0
 10
104.9324555214032
 20
14.146557435471911
 30
0.0
 42
-1.0
  0
SEQEND
  5
16CC
  8
0
  0
POLYLINE
  5
F0C
  8
0
 66
     1
 10
0.0
 20
0.0
 30
0.0
 70
     1
  0
VERTEX
  5
16CD
  8
0
 10
48.432455521403199
 20
44.146557435471912
 30
0.0
 42
-1.0
  0
VERTEX
  5
16CE
  8
0
 10
44.932455521403199
 20
44.146557435471912
 30
0.0
 42
-1.0
  0
SEQEND
  5
16CF
  8
0
  0
POLYLINE
  5
F0D
  8
0
 66
     1
 10
0.0
 20
0.0
 30
0.0
 70
     1
  0
VERTEX
  5
16D0
  8
0
 10
98.432455521403199
 20
44.146557435471891
 30
0.0
 42
-1.0
  0
VERTEX
  5
16D1
  8
0
 10
94.932455521403199
 20
44.146557435471891
 30
0.0
 42
-1.0
  0
SEQEND
  5
16D2
  8
0
  0
POLYLINE
  5
F0E
  8
0
 66
     1
 10
0.0
 20
0.0
 30
0.0
 70
     1
  0
VERTEX
  5
16D3
  8
0
 10
38.682455521403199
 20
64.146557435471919
 30
0.0
  0
VERTEX
  5
16D4
  8
0
 10
38.682455521403199
 20
44.146557435471912
 30
0.0
 42
-1.0
  0
VERTEX
  5
16D5
  8
0
 10
34.682455521403199
 20
44.146557435471912
 30
0.0
  0
VERTEX
  5
16D6
  8
0
 10
34.682455521403199
 20
64.146557435471919
 30
0.0
 42
-1.0
  0
SEQEND
  5
16D7
  8
0
  0
POLYLINE
  5
F0F
  8
0
 66
     1
 10
0.0
 20
0.0
 30
0.0
 70
     1
  0
VERTEX
  5
16D8
  8
0
 10
108.6824555214032
 20
64.146557435471919
 30
0.0
  0
VERTEX
  5
16D9
  8
0
 10
108.6824555214032
 20
44.146557435471912
 30
0.0
 42
-1.0
  0
VERTEX
  5
16DA
  8
0
 10
104.6824555214032
 20
44.146557435471912
 30
0.0
  0
VERTEX
  5
16DB
  8
0
 10
104.6824555214032
 20
64.146557435471919
 30
0.0
 42
-1.0
  0
SEQEND
  5
16DC
  8
0
  0
POLYLINE
  5
F10
  8
0
 66
     1
 10
0.0
 20
0.0
 30
0.0
 70
     1
  0
VERTEX
  5
16DD
  8
0
 10
34.932455521403199
 20
164.14655743547189
 30
0.0
 42
-1.0
  0
VERTEX
  5
16DE
  8
0
 10
38.432455521403199
 20
164.14655743547189
 30
0.0
 42
-1.0
  0
SEQEND
  5
16DF
  8
0
  0
POLYLINE
  5
F11
  8
0
 66
     1
 10
0.0
 20
0.0
 30
0.0
 70
     1
  0
VERTEX
  5
16E0
  8
0
 10
104.9324555214032
 20
164.14655743547189
 30
0.0
 42
-1.0
  0
VERTEX
  5
16E1
  8
0
 10
108.4324555214032
 20
164.14655743547189
 30
0.0
 42
-1.0
  0
SEQEND
  5
16E2
  8
0
  0
POLYLINE
  5
F12
  8
0
 66
     1
 10
0.0
 20
0.0
 30
0.0
 70
     1
  0
VERTEX
  5
16E3
  8
0
 10
54.932455521403199
 20
169.14655743547189
 30
0.0
 42
-1.0
  0
VERTEX
  5
16E4
  8
0
 10
58.432455521403199
 20
169.14655743547189
 30
0.0
 42
-1.0
  0
SEQEND
  5
16E5
  8
0
  0
POLYLINE
  5
F13
  8
0
 66
     1
 10
0.0
 20
0.0
 30
0.0
 70
     1
  0
VERTEX
  5
16E6
  8
0
 10
84.932455521403199
 20
169.14655743547189
 30
0.0
 42
-1.0
  0
VERTEX
  5
16E7
  8
0
 10
88.432455521403199
 20
169.14655743547189
 30
0.0
 42
-1.0
  0
SEQEND
  5
16E8
  8
0
  0
POLYLINE
  5
F14
  8
0
 66
     1
 10
0.0
 20
0.0
 30
0.0
 70
     1
  0
VERTEX
  5
16E9
  8
0
 10
60.182455521403199
 20
164.14655743547189
 30
0.0
 42
-1.0
  0
VERTEX
  5
16EA
  8
0
 10
63.182455521403199
 20
164.14655743547189
 30
0.0
 42
-1.0
  0
SEQEND
  5
16EB
  8
0
  0
POLYLINE
  5
F15
  8
0
 66
     1
 10
0.0
 20
0.0
 30
0.0
 70
     1
  0
VERTEX
  5
16EC
  8
0
 10
80.182455521403185
 20
164.14655743547189
 30
0.0
 42
-1.0
  0
VERTEX
  5
16ED
  8
0
 10
83.182455521403199
 20
164.14655743547189
 30
0.0
 42
-1.0
  0
SEQEND
  5
16EE
  8
0
  0
POLYLINE
  5
F16
  8
0
 66
     1
 10
0.0
 20
0.0
 30
0.0
 70
     1
  0
VERTEX
  5
16EF
  8
0
 10
38.682455521403263
 20
114.14655743547191
 30
0.0
 42
-1.0
  0
VERTEX
  5
16F0
  8
0
 10
34.682455521403199
 20
114.14655743547191
 30
0.0
  0
VERTEX
  5
16F1
  8
0
 10
34.682455521403313
 20
134.14655743547189
 30
0.0
 42
-1.0
  0
VERTEX
  5
16F2
  8
0
 10
38.682455521403263
 20
134.14655743547189
 30
0.0
  0
SEQEND
  5
16F3
  8
0
  0
POLYLINE
  5
F17
  8
0
 66
     1
 10
0.0
 20
0.0
 30
0.0
 70
     1
  0
VERTEX
  5
16F4
  8
0
 10
104.6824555214032
 20
134.14655743547181
 30
0.0
 42
-1.0
  0
VERTEX
  5
16F5
  8
0
 10
108.6824555214032
 20
134.14655743547181
 30
0.0
  0
VERTEX
  5
16F6
  8
0
 10
108.6824555214032
 20
114.14655743547181
 30
0.0
 42
-1.0
  0
VERTEX
  5
16F7
  8
0
 10
104.6824555214032
 20
114.14655743547181
 30
0.0
  0
SEQEND
  5
16F8
  8
0
  0
POLYLINE
  5
F18
  8
0
 66
     1
 10
0.0
 20
0.0
 30
0.0
 70
     1
  0
VERTEX
  5
16F9
  8
0
 10
60.182455521403199
 20
150.14655743547189
 30
0.0
 42
-1.0
  0
VERTEX
  5
16FA
  8
0
 10
63.182455521403199
 20
150.14655743547189
 30
0.0
 42
-1.0
  0
SEQEND
  5
16FB
  8
0
  0
POLYLINE
  5
F19
  8
0
 66
     1
 10
0.0
 20
0.0
 30
0.0
 70
     1
  0
VERTEX
  5
16FC
  8
0
 10
80.182455521403185
 20
150.14655743547189
 30
0.0
 42
-1.0
  0
VERTEX
  5
16FD
  8
0
 10
83.182455521403199
 20
150.14655743547189
 30
0.0
 42
-1.0
  0
SEQEND
  5
16FE
  8
0
  0
POLYLINE
  5
F1A
  8
0
 66
     1
 10
0.0
 20
0.0
 30
0.0
 70
     1
  0
VERTEX
  5
16FF
  8
0
 10
44.932455521403199
 20
134.14655743547189
 30
0.0
 42
-1.0
  0
VERTEX
  5
1700
  8
0
 10
48.432455521403199
 20
134.14655743547189
 30
0.0
 42
-1.0
  0
SEQEND
  5
1701
  8
0
  0
POLYLINE
  5
F1B
  8
0
 66
     1
 10
0.0
 20
0.0
 30
0.0
 70
     1
  0
VERTEX
  5
1702
  8
0
 10
54.932455521403199
 20
145.14655743547189
 30
0.0
 42
-1.0
  0
VERTEX
  5
1703
  8
0
 10
58.432455521403199
 20
145.14655743547189
 30
0.0
 42
-1.0
  0
SEQEND
  5
1704
  8
0
  0
POLYLINE
  5
F1C
  8
0
 66
     1
 10
0.0
 20
0.0
 30
0.0
 70
     1
  0
VERTEX
  5
1705
  8
0
 10
94.932455521403199
 20
134.14655743547189
 30
0.0
 42
-1.0
  0
VERTEX
  5
1706
  8
0
 10
98.432455521403199
 20
134.14655743547189
 30
0.0
 42
-1.0
  0
SEQEND
  5
1707
  8
0
  0
POLYLINE
  5
F1D
  8
0
 66
     1
 10
0.0
 20
0.0
 30
0.0
 70
     1
  0
VERTEX
  5
1708
  8
0
 10
84.932455521403199
 20
145.14655743547189
 30
0.0
 42
-1.0
  0
VERTEX
  5
1709
  8
0
 10
88.432455521403199
 20
145.14655743547189
 30
0.0
 42
-1.0
  0
SEQEND
  5
170A
  8
0
  0
POLYLINE
  5
F1E
  8
0
 66
     1
 10
0.0
 20
0.0
 30
0.0
 70
     1
  0
VERTEX
  5
170B
  8
0
 10
80.682455521403199
 20
89.146557435471891
 30
0.0
 42
-1.0
  0
VERTEX
  5
170C
  8
0
 10
62.682455521403199
 20
89.146557435471891
 30
0.0
 42
-1.0
  0
SEQEND
  5
170D
  8
0
  0
POLYLINE
  5
F1F
  8
0
 66
     1
 10
0.0
 20
0.0
 30
0.0
 70
     1
  0
VERTEX
  5
170E
  8
0
 10
116.6824555214032
 20
164.14655743547189
 30
0.0
 42
0.4142135623730952
  0
VERTEX
  5
170F
  8
0
 10
106.6824555214032
 20
174.14655743547189
 30
0.0
  0
VERTEX
  5
1710
  8
0
 10
36.682455521403199
 20
174.14655743547189
 30
0.0
 42
0.4142135623730952
  0
VERTEX
  5
1711
  8
0
 10
26.682455521403199
 20
164.14655743547189
 30
0.0
  0
VERTEX
  5
1712
  8
0
 10
26.682455521403199
 20
14.146557435471911
 30
0.0
 42
0.4142135623730951
  0
VERTEX
  5
1713
  8
0
 10
36.682455521403199
 20
4.1465574354719124
 30
0.0
  0
VERTEX
  5
1714
  8
0
 10
106.6824555214032
 20
4.1465574354719124
 30
0.0
 42
0.4142135623730951
  0
VERTEX
  5
1715
  8
0
 10
116.6824555214032
 20
14.146557435471911
 30
0.0
  0
SEQEND
  5
1716
  8
0
  0
POLYLINE
  5
FBC
  8
0
 66
     1
 10
0.0
 20
0.0
 30
0.0
 70
     1
  0
VERTEX
  5
1717
  8
0
 10
54.932455521403199
 20
9.1465574354719195
 30
0.0
 42
1.0
  0
VERTEX
  5
1718
  8
0
 10
58.432455521403199
 20
9.1465574354719195
 30
0.0
 42
1.0
  0
SEQEND
  5
1719
  8
0
  0
POLYLINE
  5
FBD
  8
0
 66
     1
 10
0.0
 20
0.0
 30
0.0
 70
     1
  0
VERTEX
  5
171A
  8
0
 10
84.932455521403199
 20
9.1465574354719195
 30
0.0
 42
1.0
  0
VERTEX
  5
171B
  8
0
 10
88.432455521403199
 20
9.1465574354719195
 30
0.0
 42
1.0
  0
SEQEND
  5
171C
  8
0
  0
POLYLINE
  5
FBE
  8
0
 66
     1
 10
0.0
 20
0.0
 30
0.0
 70
     1
  0
VERTEX
  5
171D
  8
0
 10
60.182455521403199
 20
14.146557435471919
 30
0.0
 42
1.0
  0
VERTEX
  5
171E
  8
0
 10
63.182455521403199
 20
14.146557435471919
 30
0.0
 42
1.0
  0
SEQEND
  5
171F
  8
0
  0
POLYLINE
  5
FBF
  8
0
 66
     1
 10
0.0
 20
0.0
 30
0.0
 70
     1
  0
VERTEX
  5
1720
  8
0
 10
80.182455521403185
 20
14.146557435471919
 30
0.0
 42
1.0
  0
VERTEX
  5
1721
  8
0
 10
83.182455521403199
 20
14.146557435471919
 30
0.0
 42
1.0
  0
SEQEND
  5
1722
  8
0
  0
POLYLINE
  5
FC0
  8
0
 66
     1
 10
0.0
 20
0.0
 30
0.0
 70
     1
  0
VERTEX
  5
1723
  8
0
 10
60.182455521403199
 20
28.146557435471919
 30
0.0
 42
1.0
  0
VERTEX
  5
1724
  8
0
 10
63.182455521403199
 20
28.146557435471919
 30
0.0
 42
1.0
  0
SEQEND
  5
1725
  8
0
  0
POLYLINE
  5
FC1
  8
0
 66
     1
 10
0.0
 20
0.0
 30
0.0
 70
     1
  0
VERTEX
  5
1726
  8
0
 10
80.182455521403185
 20
28.146557435471951
 30
0.0
 42
1.0
  0
VERTEX
  5
1727
  8
0
 10
83.182455521403199
 20
28.146557435471951
 30
0.0
 42
1.0
  0
SEQEND
  5
1728
  8
0
  0
POLYLINE
  5
FC2
  8
0
 66
     1
 10
0.0
 20
0.0
 30
0.0
 70
     1
  0
VERTEX
  5
1729
  8
0
 10
54.932455521403199
 20
33.146557435471919
 30
0.0
 42
1.0
  0
VERTEX
  5
172A
  8
0
 10
58.432455521403199
 20
33.146557435471919
 30
0.0
 42
1.0
  0
SEQEND
  5
172B
  8
0
  0
POLYLINE
  5
FC3
  8
0
 66
     1
 10
0.0
 20
0.0
 30
0.0
 70
     1
  0
VERTEX
  5
172C
  8
0
 10
84.932455521403199
 20
33.146557435471919
 30
0.0
 42
1.0
  0
VERTEX
  5
172D
  8
0
 10
88.432455521403199
 20
33.146557435471919
 30
0.0
 42
1.0
  0
SEQEND
  5
172E
  8
0
  0
POLYLINE
  5
126A
  8
0
 66
     1
 10
0.0
 20
0.0
 30
0.0
 70
     1
  0
VERTEX
  5
172F
  8
0
 10
200.9324555214032
 20
14.146557435471911
 30
0.0
 42
1.0
  0
VERTEX
  5
1730
  8
0
 10
204.4324555214032
 20
14.146557435471911
 30
0.0
 42
1.0
  0
SEQEND
  5
1731
  8
0
  0
POLYLINE
  5
126B
  8
0
 66
     1
 10
0.0
 20
0.0
 30
0.0
 70
     1
  0
VERTEX
  5
1732
  8
0
 10
130.9324555214032
 20
14.146557435471911
 30
0.0
 42
1.0
  0
VERTEX
  5
1733
  8
0
 10
134.4324555214032
 20
14.146557435471911
 30
0.0
 42
1.0
  0
SEQEND
  5
1734
  8
0
  0
POLYLINE
  5
126C
  8
0
 66
     1
 10
0.0
 20
0.0
 30
0.0
 70
     1
  0
VERTEX
  5
1735
  8
0
 10
190.9324555214032
 20
44.146557435471912
 30
0.0
 42
1.0
  0
VERTEX
  5
1736
  8
0
 10
194.4324555214032
 20
44.146557435471912
 30
0.0
 42
1.0
  0
SEQEND
  5
1737
  8
0
  0
POLYLINE
  5
126D
  8
0
 66
     1
 10
0.0
 20
0.0
 30
0.0
 70
     1
  0
VERTEX
  5
1738
  8
0
 10
140.9324555214032
 20
44.146557435471891
 30
0.0
 42
1.0
  0
VERTEX
  5
1739
  8
0
 10
144.4324555214032
 20
44.146557435471891
 30
0.0
 42
1.0
  0
SEQEND
  5
173A
  8
0
  0
POLYLINE
  5
126E
  8
0
 66
     1
 10
0.0
 20
0.0
 30
0.0
 70
     1
  0
VERTEX
  5
173B
  8
0
 10
200.6824555214032
 20
64.146557435471919
 30
0.0
  0
VERTEX
  5
173C
  8
0
 10
200.6824555214032
 20
44.146557435471912
 30
0.0
 42
1.0
  0
VERTEX
  5
173D
  8
0
 10
204.6824555214032
 20
44.146557435471912
 30
0.0
  0
VERTEX
  5
173E
  8
0
 10
204.6824555214032
 20
64.146557435471919
 30
0.0
 42
1.0
  0
SEQEND
  5
173F
  8
0
  0
POLYLINE
  5
126F
  8
0
 66
     1
 10
0.0
 20
0.0
 30
0.0
 70
     1
  0
VERTEX
  5
1740
  8
0
 10
130.6824555214032
 20
64.146557435471919
 30
0.0
  0
VERTEX
  5
1741
  8
0
 10
130.6824555214032
 20
44.146557435471912
 30
0.0
 42
1.0
  0
VERTEX
  5
1742
  8
0
 10
134.6824555214032
 20
44.146557435471912
 30
0.0
  0
VERTEX
  5
1743
  8
0
 10
134.6824555214032
 20
64.146557435471919
 30
0.0
 42
1.0
  0
SEQEND
  5
1744
  8
0
  0
POLYLINE
  5
1270
  8
0
 66
     1
 10
0.0
 20
0.0
 30
0.0
 70
     1
  0
VERTEX
  5
1745
  8
0
 10
204.4324555214032
 20
164.14655743547189
 30
0.0
 42
1.0
  0
VERTEX
  5
1746
  8
0
 10
200.9324555214032
 20
164.14655743547189
 30
0.0
 42
1.0
  0
SEQEND
  5
1747
  8
0
  0
POLYLINE
  5
1271
  8
0
 66
     1
 10
0.0
 20
0.0
 30
0.0
 70
     1
  0
VERTEX
  5
1748
  8
0
 10
134.4324555214032
 20
164.14655743547189
 30
0.0
 42
1.0
  0
VERTEX
  5
1749
  8
0
 10
130.9324555214032
 20
164.14655743547189
 30
0.0
 42
1.0
  0
SEQEND
  5
174A
  8
0
  0
POLYLINE
  5
1272
  8
0
 66
     1
 10
0.0
 20
0.0
 30
0.0
 70
     1
  0
VERTEX
  5
174B
  8
0
 10
184.4324555214032
 20
169.14655743547189
 30
0.0
 42
1.0
  0
VERTEX
  5
174C
  8
0
 10
180.9324555214032
 20
169.14655743547189
 30
0.0
 42
1.0
  0
SEQEND
  5
174D
  8
0
  0
POLYLINE
  5
1273
  8
0
 66
     1
 10
0.0
 20
0.0
 30
0.0
 70
     1
  0
VERTEX
  5
174E
  8
0
 10
154.4324555214032
 20
169.14655743547189
 30
0.0
 42
1.0
  0
VERTEX
  5
174F
  8
0
 10
150.9324555214032
 20
169.14655743547189
 30
0.0
 42
1.0
  0
SEQEND
  5
1750
  8
0
  0
POLYLINE
  5
1274
  8
0
 66
     1
 10
0.0
 20
0.0
 30
0.0
 70
     1
  0
VERTEX
  5
1751
  8
0
 10
179.1824555214032
 20
164.14655743547189
 30
0.0
 42
1.0
  0
VERTEX
  5
1752
  8
0
 10
176.1824555214032
 20
164.14655743547189
 30
0.0
 42
1.0
  0
SEQEND
  5
1753
  8
0
  0
POLYLINE
  5
1275
  8
0
 66
     1
 10
0.0
 20
0.0
 30
0.0
 70
     1
  0
VERTEX
  5
1754
  8
0
 10
159.1824555214032
 20
164.14655743547189
 30
0.0
 42
1.0
  0
VERTEX
  5
1755
  8
0
 10
156.1824555214032
 20
164.14655743547189
 30
0.0
 42
1.0
  0
SEQEND
  5
1756
  8
0
  0
POLYLINE
  5
1276
  8
0
 66
     1
 10
0.0
 20
0.0
 30
0.0
 70
     1
  0
VERTEX
  5
1757
  8
0
 10
200.6824555214032
 20
114.14655743547191
 30
0.0
 42
1.0
  0
VERTEX
  5
1758
  8
0
 10
204.6824555214032
 20
114.14655743547191
 30
0.0
  0
VERTEX
  5
1759
  8
0
 10
204.68245552140311
 20
134.14655743547189
 30
0.0
 42
1.0
  0
VERTEX
  5
175A
  8
0
 10
200.6824555214032
 20
134.14655743547189
 30
0.0
  0
SEQEND
  5
175B
  8
0
  0
POLYLINE
  5
1277
  8
0
 66
     1
 10
0.0
 20
0.0
 30
0.0
 70
     1
  0
VERTEX
  5
175C
  8
0
 10
134.68245552140311
 20
134.14655743547181
 30
0.0
 42
1.0
  0
VERTEX
  5
175D
  8
0
 10
130.68245552140311
 20
134.14655743547181
 30
0.0
  0
VERTEX
  5
175E
  8
0
 10
130.6824555214032
 20
114.14655743547181
 30
0.0
 42
1.0
  0
VERTEX
  5
175F
  8
0
 10
134.6824555214032
 20
114.14655743547181
 30
0.0
  0
SEQEND
  5
1760
  8
0
  0
POLYLINE
  5
1278
  8
0
 66
     1
 10
0.0
 20
0.0
 30
0.0
 70
     1
  0
VERTEX
  5
1761
  8
0
 10
179.1824555214032
 20
150.14655743547189
 30
0.0
 42
1.0
  0
VERTEX
  5
1762
  8
0
 10
176.1824555214032
 20
150.14655743547189
 30
0.0
 42
1.0
  0
SEQEND
  5
1763
  8
0
  0
POLYLINE
  5
1279
  8
0
 66
     1
 10
0.0
 20
0.0
 30
0.0
 70
     1
  0
VERTEX
  5
1764
  8
0
 10
159.1824555214032
 20
150.14655743547189
 30
0.0
 42
1.0
  0
VERTEX
  5
1765
  8
0
 10
156.1824555214032
 20
150.14655743547189
 30
0.0
 42
1.0
  0
SEQEND
  5
1766
  8
0
  0
POLYLINE
  5
127A
  8
0
 66
     1
 10
0.0
 20
0.0
 30
0.0
 70
     1
  0
VERTEX
  5
1767
  8
0
 10
194.4324555214032
 20
134.14655743547189
 30
0.0
 42
1.0
  0
VERTEX
  5
1768
  8
0
 10
190.9324555214032
 20
134.14655743547189
 30
0.0
 42
1.0
  0
SEQEND
  5
1769
  8
0
  0
POLYLINE
  5
127B
  8
0
 66
     1
 10
0.0
 20
0.0
 30
0.0
 70
     1
  0
VERTEX
  5
176A
  8
0
 10
184.4324555214032
 20
145.14655743547189
 30
0.0
 42
1.0
  0
VERTEX
  5
176B
  8
0
 10
180.9324555214032
 20
145.14655743547189
 30
0.0
 42
1.0
  0
SEQEND
  5
176C
  8
0
  0
POLYLINE
  5
127C
  8
0
 66
     1
 10
0.0
 20
0.0
 30
0.0
 70
     1
  0
VERTEX
  5
176D
  8
0
 10
144.4324555214032
 20
134.14655743547189
 30
0.0
 42
1.0
  0
VERTEX
  5
176E
  8
0
 10
140.9324555214032
 20
134.14655743547189
 30
0.0
 42
1.0
  0
SEQEND
  5
176F
  8
0
  0
POLYLINE
  5
127D
  8
0
 66
     1
 10
0.0
 20
0.0
 30
0.0
 70
     1
  0
VERTEX
  5
1770
  8
0
 10
154.4324555214032
 20
145.14655743547189
 30
0.0
 42
1.0
  0
VERTEX
  5
1771
  8
0
 10
150.9324555214032
 20
145.14655743547189
 30
0.0
 42
1.0
  0
SEQEND
  5
1772
  8
0
  0
POLYLINE
  5
127E
  8
0
 66
     1
 10
0.0
 20
0.0
 30
0.0
 70
     1
  0
VERTEX
  5
1773
  8
0
 10
158.6824555214032
 20
89.146557435471891
 30
0.0
 42
1.0
  0
VERTEX
  5
1774
  8
0
 10
176.6824555214032
 20
89.146557435471891
 30
0.0
 42
1.0
  0
SEQEND
  5
1775
  8
0
  0
POLYLINE
  5
127F
  8
0
 66
     1
 10
0.0
 20
0.0
 30
0.0
 70
     1
  0
VERTEX
  5
1776
  8
0
 10
122.6824555214032
 20
164.14655743547189
 30
0.0
 42
-0.4142135623730952
  0
VERTEX
  5
1777
  8
0
 10
132.6824555214032
 20
174.14655743547189
 30
0.0
  0
VERTEX
  5
1778
  8
0
 10
202.6824555214032
 20
174.14655743547189
 30
0.0
 42
-0.4142135623730952
  0
VERTEX
  5
1779
  8
0
 10
212.6824555214032
 20
164.14655743547189
 30
0.0
  0
VERTEX
  5
177A
  8
0
 10
212.6824555214032
 20
14.146557435471911
 30
0.0
 42
-0.4142135623730951
  0
VERTEX
  5
177B
  8
0
 10
202.6824555214032
 20
4.1465574354719124
 30
0.0
  0
VERTEX
  5
177C
  8
0
 10
132.6824555214032
 20
4.1465574354719124
 30
0.0
 42
-0.4142135623730951
  0
VERTEX
  5
177D
  8
0
 10
122.6824555214032
 20
14.146557435471911
 30
0.0
  0
SEQEND
  5
177E
  8
0
  0
POLYLINE
  5
1280
  8
0
 66
     1
 10
0.0
 20
0.0
 30
0.0
 70
     1
  0
VERTEX
  5
177F
  8
0
 10
184.4324555214032
 20
9.1465574354719195
 30
0.0
 42
-1.0
  0
VERTEX
  5
1780
  8
0
 10
180.9324555214032
 20
9.1465574354719195
 30
0.0
 42
-1.0
  0
SEQEND
  5
1781
  8
0
  0
POLYLINE
  5
1281
  8
0
 66
     1
 10
0.0
 20
0.0
 30
0.0
 70
     1
  0
VERTEX
  5
1782
  8
0
 10
154.4324555214032
 20
9.1465574354719195
 30
0.0
 42
-1.0
  0
VERTEX
  5
1783
  8
0
 10
150.9324555214032
 20
9.1465574354719195
 30
0.0
 42
-1.0
  0
SEQEND
  5
1784
  8
0
  0
POLYLINE
  5
1282
  8
0
 66
     1
 10
0.0
 20
0.0
 30
0.0
 70
     1
  0
VERTEX
  5
1785
  8
0
 10
179.1824555214032
 20
14.146557435471919
 30
0.0
 42
-1.0
  0
VERTEX
  5
1786
  8
0
 10
176.1824555214032
 20
14.146557435471919
 30
0.0
 42
-1.0
  0
SEQEND
  5
1787
  8
0
  0
POLYLINE
  5
1283
  8
0
 66
     1
 10
0.0
 20
0.0
 30
0.0
 70
     1
  0
VERTEX
  5
1788
  8
0
 10
159.1824555214032
 20
14.146557435471919
 30
0.0
 42
-1.0
  0
VERTEX
  5
1789
  8
0
 10
156.1824555214032
 20
14.146557435471919
 30
0.0
 42
-1.0
  0
SEQEND
  5
178A
  8
0
  0
POLYLINE
  5
1284
  8
0
 66
     1
 10
0.0
 20
0.0
 30
0.0
 70
     1
  0
VERTEX
  5
178B
  8
0
 10
179.1824555214032
 20
28.146557435471919
 30
0.0
 42
-1.0
  0
VERTEX
  5
178C
  8
0
 10
176.1824555214032
 20
28.146557435471919
 30
0.0
 42
-1.0
  0
SEQEND
  5
178D
  8
0
  0
POLYLINE
  5
1285
  8
0
 66
     1
 10
0.0
 20
0.0
 30
0.0
 70
     1
  0
VERTEX
  5
178E
  8
0
 10
159.1824555214032
 20
28.146557435471951
 30
0.0
 42
-1.0
  0
VERTEX
  5
178F
  8
0
 10
156.1824555214032
 20
28.146557435471951
 30
0.0
 42
-1.0
  0
SEQEND
  5
1790
  8
0
  0
POLYLINE
  5
1286
  8
0
 66
     1
 10
0.0
 20
0.0
 30
0.0
 70
     1
  0
VERTEX
  5
1791
  8
0
 10
184.4324555214032
 20
33.146557435471919
 30
0.0
 42
-1.0
  0
VERTEX
  5
1792
  8
0
 10
180.9324555214032
 20
33.146557435471919
 30
0.0
 42
-1.0
  0
SEQEND
  5
1793
  8
0
  0
POLYLINE
  5
1287
  8
0
 66
     1
 10
0.0
 20
0.0
 30
0.0
 70
     1
  0
VERTEX
  5
1794
  8
0
 10
154.4324555214032
 20
33.146557435471919
 30
0.0
 42
-1.0
  0
VERTEX
  5
1795
  8
0
 10
150.9324555214032
 20
33.146557435471919
 30
0.0
 42
-1.0
  0
SEQEND
  5
1796
  8
0
  0
POLYLINE
  5
128A
  8
0
 66
     1
 10
0.0
 20
0.0
 30
0.0
 70
     1
  0
VERTEX
  5
1797
  8
0
 10
392.9324555214032
 20
14.146557435471911
 30
0.0
 42
1.0
  0
VERTEX
  5
1798
  8
0
 10
396.4324555214032
 20
14.146557435471911
 30
0.0
 42
1.0
  0
SEQEND
  5
1799
  8
0
  0
POLYLINE
  5
128B
  8
0
 66
     1
 10
0.0
 20
0.0
 30
0.0
 70
     1
  0
VERTEX
  5
179A
  8
0
 10
322.9324555214032
 20
14.146557435471911
 30
0.0
 42
1.0
  0
VERTEX
  5
179B
  8
0
 10
326.4324555214032
 20
14.146557435471911
 30
0.0
 42
1.0
  0
SEQEND
  5
179C
  8
0
  0
POLYLINE
  5
128C
  8
0
 66
     1
 10
0.0
 20
0.0
 30
0.0
 70
     1
  0
VERTEX
  5
179D
  8
0
 10
382.9324555214032
 20
44.146557435471912
 30
0.0
 42
1.0
  0
VERTEX
  5
179E
  8
0
 10
386.4324555214032
 20
44.146557435471912
 30
0.0
 42
1.0
  0
SEQEND
  5
179F
  8
0
  0
POLYLINE
  5
128D
  8
0
 66
     1
 10
0.0
 20
0.0
 30
0.0
 70
     1
  0
VERTEX
  5
17A0
  8
0
 10
332.9324555214032
 20
44.146557435471891
 30
0.0
 42
1.0
  0
VERTEX
  5
17A1
  8
0
 10
336.4324555214032
 20
44.146557435471891
 30
0.0
 42
1.0
  0
SEQEND
  5
17A2
  8
0
  0
POLYLINE
  5
128E
  8
0
 66
     1
 10
0.0
 20
0.0
 30
0.0
 70
     1
  0
VERTEX
  5
17A3
  8
0
 10
392.6824555214032
 20
64.146557435471919
 30
0.0
  0
VERTEX
  5
17A4
  8
0
 10
392.6824555214032
 20
44.146557435471912
 30
0.0
 42
1.0
  0
VERTEX
  5
17A5
  8
0
 10
396.6824555214032
 20
44.146557435471912
 30
0.0
  0
VERTEX
  5
17A6
  8
0
 10
396.6824555214032
 20
64.146557435471919
 30
0.0
 42
1.0
  0
SEQEND
  5
17A7
  8
0
  0
POLYLINE
  5
128F
  8
0
 66
     1
 10
0.0
 20
0.0
 30
0.0
 70
     1
  0
VERTEX
  5
17A8
  8
0
 10
322.6824555214032
 20
64.146557435471919
 30
0.0
  0
VERTEX
  5
17A9
  8
0
 10
322.6824555214032
 20
44.146557435471912
 30
0.0
 42
1.0
  0
VERTEX
  5
17AA
  8
0
 10
326.6824555214032
 20
44.146557435471912
 30
0.0
  0
VERTEX
  5
17AB
  8
0
 10
326.6824555214032
 20
64.146557435471919
 30
0.0
 42
1.0
  0
SEQEND
  5
17AC
  8
0
  0
POLYLINE
  5
1290
  8
0
 66
     1
 10
0.0
 20
0.0
 30
0.0
 70
     1
  0
VERTEX
  5
17AD
  8
0
 10
396.4324555214032
 20
164.14655743547189
 30
0.0
 42
1.0
  0
VERTEX
  5
17AE
  8
0
 10
392.9324555214032
 20
164.14655743547189
 30
0.0
 42
1.0
  0
SEQEND
  5
17AF
  8
0
  0
POLYLINE
  5
1291
  8
0
 66
     1
 10
0.0
 20
0.0
 30
0.0
 70
     1
  0
VERTEX
  5
17B0
  8
0
 10
326.4324555214032
 20
164.14655743547189
 30
0.0
 42
1.0
  0
VERTEX
  5
17B1
  8
0
 10
322.9324555214032
 20
164.14655743547189
 30
0.0
 42
1.0
  0
SEQEND
  5
17B2
  8
0
  0
POLYLINE
  5
1292
  8
0
 66
     1
 10
0.0
 20
0.0
 30
0.0
 70
     1
  0
VERTEX
  5
17B3
  8
0
 10
376.4324555214032
 20
169.14655743547189
 30
0.0
 42
1.0
  0
VERTEX
  5
17B4
  8
0
 10
372.9324555214032
 20
169.14655743547189
 30
0.0
 42
1.0
  0
SEQEND
  5
17B5
  8
0
  0
POLYLINE
  5
1293
  8
0
 66
     1
 10
0.0
 20
0.0
 30
0.0
 70
     1
  0
VERTEX
  5
17B6
  8
0
 10
346.4324555214032
 20
169.14655743547189
 30
0.0
 42
1.0
  0
VERTEX
  5
17B7
  8
0
 10
342.9324555214032
 20
169.14655743547189
 30
0.0
 42
1.0
  0
SEQEND
  5
17B8
  8
0
  0
POLYLINE
  5
1294
  8
0
 66
     1
 10
0.0
 20
0.0
 30
0.0
 70
     1
  0
VERTEX
  5
17B9
  8
0
 10
371.1824555214032
 20
164.14655743547189
 30
0.0
 42
1.0
  0
VERTEX
  5
17BA
  8
0
 10
368.1824555214032
 20
164.14655743547189
 30
0.0
 42
1.0
  0
SEQEND
  5
17BB
  8
0
  0
POLYLINE
  5
1295
  8
0
 66
     1
 10
0.0
 20
0.0
 30
0.0
 70
     1
  0
VERTEX
  5
17BC
  8
0
 10
351.1824555214032
 20
164.14655743547189
 30
0.0
 42
1.0
  0
VERTEX
  5
17BD
  8
0
 10
348.1824555214032
 20
164.14655743547189
 30
0.0
 42
1.0
  0
SEQEND
  5
17BE
  8
0
  0
POLYLINE
  5
1296
  8
0
 66
     1
 10
0.0
 20
0.0
 30
0.0
 70
     1
  0
VERTEX
  5
17BF
  8
0
 10
392.68245552140309
 20
114.14655743547191
 30
0.0
 42
1.0
  0
VERTEX
  5
17C0
  8
0
 10
396.6824555214032
 20
114.14655743547191
 30
0.0
  0
VERTEX
  5
17C1
  8
0
 10
396.68245552140309
 20
134.14655743547189
 30
0.0
 42
1.0
  0
VERTEX
  5
17C2
  8
0
 10
392.68245552140309
 20
134.14655743547189
 30
0.0
  0
SEQEND
  5
17C3
  8
0
  0
POLYLINE
  5
1297
  8
0
 66
     1
 10
0.0
 20
0.0
 30
0.0
 70
     1
  0
VERTEX
  5
17C4
  8
0
 10
326.68245552140309
 20
134.14655743547181
 30
0.0
 42
1.0
  0
VERTEX
  5
17C5
  8
0
 10
322.68245552140309
 20
134.14655743547181
 30
0.0
  0
VERTEX
  5
17C6
  8
0
 10
322.6824555214032
 20
114.14655743547181
 30
0.0
 42
1.0
  0
VERTEX
  5
17C7
  8
0
 10
326.6824555214032
 20
114.14655743547181
 30
0.0
  0
SEQEND
  5
17C8
  8
0
  0
POLYLINE
  5
1298
  8
0
 66
     1
 10
0.0
 20
0.0
 30
0.0
 70
     1
  0
VERTEX
  5
17C9
  8
0
 10
371.1824555214032
 20
150.14655743547189
 30
0.0
 42
1.0
  0
VERTEX
  5
17CA
  8
0
 10
368.1824555214032
 20
150.14655743547189
 30
0.0
 42
1.0
  0
SEQEND
  5
17CB
  8
0
  0
POLYLINE
  5
1299
  8
0
 66
     1
 10
0.0
 20
0.0
 30
0.0
 70
     1
  0
VERTEX
  5
17CC
  8
0
 10
351.1824555214032
 20
150.14655743547189
 30
0.0
 42
1.0
  0
VERTEX
  5
17CD
  8
0
 10
348.1824555214032
 20
150.14655743547189
 30
0.0
 42
1.0
  0
SEQEND
  5
17CE
  8
0
  0
POLYLINE
  5
129A
  8
0
 66
     1
 10
0.0
 20
0.0
 30
0.0
 70
     1
  0
VERTEX
  5
17CF
  8
0
 10
386.4324555214032
 20
134.14655743547189
 30
0.0
 42
1.0
  0
VERTEX
  5
17D0
  8
0
 10
382.9324555214032
 20
134.14655743547189
 30
0.0
 42
1.0
  0
SEQEND
  5
17D1
  8
0
  0
POLYLINE
  5
129B
  8
0
 66
     1
 10
0.0
 20
0.0
 30
0.0
 70
     1
  0
VERTEX
  5
17D2
  8
0
 10
376.4324555214032
 20
145.14655743547189
 30
0.0
 42
1.0
  0
VERTEX
  5
17D3
  8
0
 10
372.9324555214032
 20
145.14655743547189
 30
0.0
 42
1.0
  0
SEQEND
  5
17D4
  8
0
  0
POLYLINE
  5
129C
  8
0
 66
     1
 10
0.0
 20
0.0
 30
0.0
 70
     1
  0
VERTEX
  5
17D5
  8
0
 10
336.4324555214032
 20
134.14655743547189
 30
0.0
 42
1.0
  0
VERTEX
  5
17D6
  8
0
 10
332.9324555214032
 20
134.14655743547189
 30
0.0
 42
1.0
  0
SEQEND
  5
17D7
  8
0
  0
POLYLINE
  5
129D
  8
0
 66
     1
 10
0.0
 20
0.0
 30
0.0
 70
     1
  0
VERTEX
  5
17D8
  8
0
 10
346.4324555214032
 20
145.14655743547189
 30
0.0
 42
1.0
  0
VERTEX
  5
17D9
  8
0
 10
342.9324555214032
 20
145.14655743547189
 30
0.0
 42
1.0
  0
SEQEND
  5
17DA
  8
0
  0
POLYLINE
  5
129E
  8
0
 66
     1
 10
0.0
 20
0.0
 30
0.0
 70
     1
  0
VERTEX
  5
17DB
  8
0
 10
350.6824555214032
 20
89.146557435471891
 30
0.0
 42
1.0
  0
VERTEX
  5
17DC
  8
0
 10
368.6824555214032
 20
89.146557435471891
 30
0.0
 42
1.0
  0
SEQEND
  5
17DD
  8
0
  0
POLYLINE
  5
129F
  8
0
 66
     1
 10
0.0
 20
0.0
 30
0.0
 70
     1
  0
VERTEX
  5
17DE
  8
0
 10
314.6824555214032
 20
164.14655743547189
 30
0.0
 42
-0.4142135623730952
  0
VERTEX
  5
17DF
  8
0
 10
324.6824555214032
 20
174.14655743547189
 30
0.0
  0
VERTEX
  5
17E0
  8
0
 10
394.6824555214032
 20
174.14655743547189
 30
0.0
 42
-0.4142135623730952
  0
VERTEX
  5
17E1
  8
0
 10
404.6824555214032
 20
164.14655743547189
 30
0.0
  0
VERTEX
  5
17E2
  8
0
 10
404.6824555214032
 20
14.146557435471911
 30
0.0
 42
-0.4142135623730951
  0
VERTEX
  5
17E3
  8
0
 10
394.6824555214032
 20
4.1465574354719124
 30
0.0
  0
VERTEX
  5
17E4
  8
0
 10
324.6824555214032
 20
4.1465574354719124
 30
0.0
 42
-0.4142135623730951
  0
VERTEX
  5
17E5
  8
0
 10
314.6824555214032
 20
14.146557435471911
 30
0.0
  0
SEQEND
  5
17E6
  8
0
  0
POLYLINE
  5
12A0
  8
0
 66
     1
 10
0.0
 20
0.0
 30
0.0
 70
     1
  0
VERTEX
  5
17E7
  8
0
 10
376.4324555214032
 20
9.1465574354719195
 30
0.0
 42
-1.0
  0
VERTEX
  5
17E8
  8
0
 10
372.9324555214032
 20
9.1465574354719195
 30
0.0
 42
-1.0
  0
SEQEND
  5
17E9
  8
0
  0
POLYLINE
  5
12A1
  8
0
 66
     1
 10
0.0
 20
0.0
 30
0.0
 70
     1
  0
VERTEX
  5
17EA
  8
0
 10
346.4324555214032
 20
9.1465574354719195
 30
0.0
 42
-1.0
  0
VERTEX
  5
17EB
  8
0
 10
342.9324555214032
 20
9.1465574354719195
 30
0.0
 42
-1.0
  0
SEQEND
  5
17EC
  8
0
  0
POLYLINE
  5
12A2
  8
0
 66
     1
 10
0.0
 20
0.0
 30
0.0
 70
     1
  0
VERTEX
  5
17ED
  8
0
 10
371.1824555214032
 20
14.146557435471919
 30
0.0
 42
-1.0
  0
VERTEX
  5
17EE
  8
0
 10
368.1824555214032
 20
14.146557435471919
 30
0.0
 42
-1.0
  0
SEQEND
  5
17EF
  8
0
  0
POLYLINE
  5
12A3
  8
0
 66
     1
 10
0.0
 20
0.0
 30
0.0
 70
     1
  0
VERTEX
  5
17F0
  8
0
 10
351.1824555214032
 20
14.146557435471919
 30
0.0
 42
-1.0
  0
VERTEX
  5
17F1
  8
0
 10
348.1824555214032
 20
14.146557435471919
 30
0.0
 42
-1.0
  0
SEQEND
  5
17F2
  8
0
  0
POLYLINE
  5
12A4
  8
0
 66
     1
 10
0.0
 20
0.0
 30
0.0
 70
     1
  0
VERTEX
  5
17F3
  8
0
 10
371.1824555214032
 20
28.146557435471919
 30
0.0
 42
-1.0
  0
VERTEX
  5
17F4
  8
0
 10
368.1824555214032
 20
28.146557435471919
 30
0.0
 42
-1.0
  0
SEQEND
  5
17F5
  8
0
  0
POLYLINE
  5
12A5
  8
0
 66
     1
 10
0.0
 20
0.0
 30
0.0
 70
     1
  0
VERTEX
  5
17F6
  8
0
 10
351.1824555214032
 20
28.146557435471951
 30
0.0
 42
-1.0
  0
VERTEX
  5
17F7
  8
0
 10
348.1824555214032
 20
28.146557435471951
 30
0.0
 42
-1.0
  0
SEQEND
  5
17F8
  8
0
  0
POLYLINE
  5
12A6
  8
0
 66
     1
 10
0.0
 20
0.0
 30
0.0
 70
     1
  0
VERTEX
  5
17F9
  8
0
 10
376.4324555214032
 20
33.146557435471919
 30
0.0
 42
-1.0
  0
VERTEX
  5
17FA
  8
0
 10
372.9324555214032
 20
33.146557435471919
 30
0.0
 42
-1.0
  0
SEQEND
  5
17FB
  8
0
  0
POLYLINE
  5
12A7
  8
0
 66
     1
 10
0.0
 20
0.0
 30
0.0
 70
     1
  0
VERTEX
  5
17FC
  8
0
 10
346.4324555214032
 20
33.146557435471919
 30
0.0
 42
-1.0
  0
VERTEX
  5
17FD
  8
0
 10
342.9324555214032
 20
33.146557435471919
 30
0.0
 42
-1.0
  0
SEQEND
  5
17FE
  8
0
  0
POLYLINE
  5
12A8
  8
0
 66
     1
 10
0.0
 20
0.0
 30
0.0
 70
     1
  0
VERTEX
  5
17FF
  8
0
 10
230.4324555214032
 20
14.146557435471911
 30
0.0
 42
-1.0
  0
VERTEX
  5
1800
  8
0
 10
226.9324555214032
 20
14.146557435471911
 30
0.0
 42
-1.0
  0
SEQEND
  5
1801
  8
0
  0
POLYLINE
  5
12A9
  8
0
 66
     1
 10
0.0
 20
0.0
 30
0.0
 70
     1
  0
VERTEX
  5
1802
  8
0
 10
300.4324555214032
 20
14.146557435471911
 30
0.0
 42
-1.0
  0
VERTEX
  5
1803
  8
0
 10
296.9324555214032
 20
14.146557435471911
 30
0.0
 42
-1.0
  0
SEQEND
  5
1804
  8
0
  0
POLYLINE
  5
12AA
  8
0
 66
     1
 10
0.0
 20
0.0
 30
0.0
 70
     1
  0
VERTEX
  5
1805
  8
0
 10
240.4324555214032
 20
44.146557435471912
 30
0.0
 42
-1.0
  0
VERTEX
  5
1806
  8
0
 10
236.9324555214032
 20
44.146557435471912
 30
0.0
 42
-1.0
  0
SEQEND
  5
1807
  8
0
  0
POLYLINE
  5
12AB
  8
0
 66
     1
 10
0.0
 20
0.0
 30
0.0
 70
     1
  0
VERTEX
  5
1808
  8
0
 10
290.4324555214032
 20
44.146557435471891
 30
0.0
 42
-1.0
  0
VERTEX
  5
1809
  8
0
 10
286.9324555214032
 20
44.146557435471891
 30
0.0
 42
-1.0
  0
SEQEND
  5
180A
  8
0
  0
POLYLINE
  5
12AC
  8
0
 66
     1
 10
0.0
 20
0.0
 30
0.0
 70
     1
  0
VERTEX
  5
180B
  8
0
 10
230.6824555214032
 20
64.146557435471919
 30
0.0
  0
VERTEX
  5
180C
  8
0
 10
230.6824555214032
 20
44.146557435471912
 30
0.0
 42
-1.0
  0
VERTEX
  5
180D
  8
0
 10
226.6824555214032
 20
44.146557435471912
 30
0.0
  0
VERTEX
  5
180E
  8
0
 10
226.6824555214032
 20
64.146557435471919
 30
0.0
 42
-1.0
  0
SEQEND
  5
180F
  8
0
  0
POLYLINE
  5
12AD
  8
0
 66
     1
 10
0.0
 20
0.0
 30
0.0
 70
     1
  0
VERTEX
  5
1810
  8
0
 10
300.6824555214032
 20
64.146557435471919
 30
0.0
  0
VERTEX
  5
1811
  8
0
 10
300.6824555214032
 20
44.146557435471912
 30
0.0
 42
-1.0
  0
VERTEX
  5
1812
  8
0
 10
296.6824555214032
 20
44.146557435471912
 30
0.0
  0
VERTEX
  5
1813
  8
0
 10
296.6824555214032
 20
64.146557435471919
 30
0.0
 42
-1.0
  0
SEQEND
  5
1814
  8
0
  0
POLYLINE
  5
12AE
  8
0
 66
     1
 10
0.0
 20
0.0
 30
0.0
 70
     1
  0
VERTEX
  5
1815
  8
0
 10
226.9324555214032
 20
164.14655743547189
 30
0.0
 42
-1.0
  0
VERTEX
  5
1816
  8
0
 10
230.4324555214032
 20
164.14655743547189
 30
0.0
 42
-1.0
  0
SEQEND
  5
1817
  8
0
  0
POLYLINE
  5
12AF
  8
0
 66
     1
 10
0.0
 20
0.0
 30
0.0
 70
     1
  0
VERTEX
  5
1818
  8
0
 10
296.9324555214032
 20
164.14655743547189
 30
0.0
 42
-1.0
  0
VERTEX
  5
1819
  8
0
 10
300.4324555214032
 20
164.14655743547189
 30
0.0
 42
-1.0
  0
SEQEND
  5
181A
  8
0
  0
POLYLINE
  5
12B0
  8
0
 66
     1
 10
0.0
 20
0.0
 30
0.0
 70
     1
  0
VERTEX
  5
181B
  8
0
 10
246.9324555214032
 20
169.14655743547189
 30
0.0
 42
-1.0
  0
VERTEX
  5
181C
  8
0
 10
250.4324555214032
 20
169.14655743547189
 30
0.0
 42
-1.0
  0
SEQEND
  5
181D
  8
0
  0
POLYLINE
  5
12B1
  8
0
 66
     1
 10
0.0
 20
0.0
 30
0.0
 70
     1
  0
VERTEX
  5
181E
  8
0
 10
276.9324555214032
 20
169.14655743547189
 30
0.0
 42
-1.0
  0
VERTEX
  5
181F
  8
0
 10
280.4324555214032
 20
169.14655743547189
 30
0.0
 42
-1.0
  0
SEQEND
  5
1820
  8
0
  0
POLYLINE
  5
12B2
  8
0
 66
     1
 10
0.0
 20
0.0
 30
0.0
 70
     1
  0
VERTEX
  5
1821
  8
0
 10
252.1824555214032
 20
164.14655743547189
 30
0.0
 42
-1.0
  0
VERTEX
  5
1822
  8
0
 10
255.1824555214032
 20
164.14655743547189
 30
0.0
 42
-1.0
  0
SEQEND
  5
1823
  8
0
  0
POLYLINE
  5
12B3
  8
0
 66
     1
 10
0.0
 20
0.0
 30
0.0
 70
     1
  0
VERTEX
  5
1824
  8
0
 10
272.1824555214032
 20
164.14655743547189
 30
0.0
 42
-1.0
  0
VERTEX
  5
1825
  8
0
 10
275.1824555214032
 20
164.14655743547189
 30
0.0
 42
-1.0
  0
SEQEND
  5
1826
  8
0
  0
POLYLINE
  5
12B4
  8
0
 66
     1
 10
0.0
 20
0.0
 30
0.0
 70
     1
  0
VERTEX
  5
1827
  8
0
 10
230.68245552140331
 20
114.14655743547191
 30
0.0
 42
-1.0
  0
VERTEX
  5
1828
  8
0
 10
226.6824555214032
 20
114.14655743547191
 30
0.0
  0
VERTEX
  5
1829
  8
0
 10
226.68245552140331
 20
134.14655743547189
 30
0.0
 42
-1.0
  0
VERTEX
  5
182A
  8
0
 10
230.68245552140331
 20
134.14655743547189
 30
0.0
  0
SEQEND
  5
182B
  8
0
  0
POLYLINE
  5
12B5
  8
0
 66
     1
 10
0.0
 20
0.0
 30
0.0
 70
     1
  0
VERTEX
  5
182C
  8
0
 10
296.6824555214032
 20
134.14655743547181
 30
0.0
 42
-1.0
  0
VERTEX
  5
182D
  8
0
 10
300.6824555214032
 20
134.14655743547181
 30
0.0
  0
VERTEX
  5
182E
  8
0
 10
300.6824555214032
 20
114.14655743547181
 30
0.0
 42
-1.0
  0
VERTEX
  5
182F
  8
0
 10
296.6824555214032
 20
114.14655743547181
 30
0.0
  0
SEQEND
  5
1830
  8
0
  0
POLYLINE
  5
12B6
  8
0
 66
     1
 10
0.0
 20
0.0
 30
0.0
 70
     1
  0
VERTEX
  5
1831
  8
0
 10
252.1824555214032
 20
150.14655743547189
 30
0.0
 42
-1.0
  0
VERTEX
  5
1832
  8
0
 10
255.1824555214032
 20
150.14655743547189
 30
0.0
 42
-1.0
  0
SEQEND
  5
1833
  8
0
  0
POLYLINE
  5
12B7
  8
0
 66
     1
 10
0.0
 20
0.0
 30
0.0
 70
     1
  0
VERTEX
  5
1834
  8
0
 10
272.1824555214032
 20
150.14655743547189
 30
0.0
 42
-1.0
  0
VERTEX
  5
1835
  8
0
 10
275.1824555214032
 20
150.14655743547189
 30
0.0
 42
-1.0
  0
SEQEND
  5
1836
  8
0
  0
POLYLINE
  5
12B8
  8
0
 66
     1
 10
0.0
 20
0.0
 30
0.0
 70
     1
  0
VERTEX
  5
1837
  8
0
 10
236.9324555214032
 20
134.14655743547189
 30
0.0
 42
-1.0
  0
VERTEX
  5
1838
  8
0
 10
240.4324555214032
 20
134.14655743547189
 30
0.0
 42
-1.0
  0
SEQEND
  5
1839
  8
0
  0
POLYLINE
  5
12B9
  8
0
 66
     1
 10
0.0
 20
0.0
 30
0.0
 70
     1
  0
VERTEX
  5
183A
  8
0
 10
246.9324555214032
 20
145.14655743547189
 30
0.0
 42
-1.0
  0
VERTEX
  5
183B
  8
0
 10
250.4324555214032
 20
145.14655743547189
 30
0.0
 42
-1.0
  0
SEQEND
  5
183C
  8
0
  0
POLYLINE
  5
12BA
  8
0
 66
     1
 10
0.0
 20
0.0
 30
0.0
 70
     1
  0
VERTEX
  5
183D
  8
0
 10
286.9324555214032
 20
134.14655743547189
 30
0.0
 42
-1.0
  0
VERTEX
  5
183E
  8
0
 10
290.4324555214032
 20
134.14655743547189
 30
0.0
 42
-1.0
  0
SEQEND
  5
183F
  8
0
  0
POLYLINE
  5
12BB
  8
0
 66
     1
 10
0.0
 20
0.0
 30
0.0
 70
     1
  0
VERTEX
  5
1840
  8
0
 10
276.9324555214032
 20
145.14655743547189
 30
0.0
 42
-1.0
  0
VERTEX
  5
1841
  8
0
 10
280.4324555214032
 20
145.14655743547189
 30
0.0
 42
-1.0
  0
SEQEND
  5
1842
  8
0
  0
POLYLINE
  5
12BC
  8
0
 66
     1
 10
0.0
 20
0.0
 30
0.0
 70
     1
  0
VERTEX
  5
1843
  8
0
 10
272.6824555214032
 20
89.146557435471891
 30
0.0
 42
-1.0
  0
VERTEX
  5
1844
  8
0
 10
254.6824555214032
 20
89.146557435471891
 30
0.0
 42
-1.0
  0
SEQEND
  5
1845
  8
0
  0
POLYLINE
  5
12BD
  8
0
 66
     1
 10
0.0
 20
0.0
 30
0.0
 70
     1
  0
VERTEX
  5
1846
  8
0
 10
308.6824555214032
 20
164.14655743547189
 30
0.0
 42
0.4142135623730952
  0
VERTEX
  5
1847
  8
0
 10
298.6824555214032
 20
174.14655743547189
 30
0.0
  0
VERTEX
  5
1848
  8
0
 10
228.6824555214032
 20
174.14655743547189
 30
0.0
 42
0.4142135623730952
  0
VERTEX
  5
1849
  8
0
 10
218.6824555214032
 20
164.14655743547189
 30
0.0
  0
VERTEX
  5
184A
  8
0
 10
218.6824555214032
 20
14.146557435471911
 30
0.0
 42
0.4142135623730951
  0
VERTEX
  5
184B
  8
0
 10
228.6824555214032
 20
4.1465574354719124
 30
0.0
  0
VERTEX
  5
184C
  8
0
 10
298.6824555214032
 20
4.1465574354719124
 30
0.0
 42
0.4142135623730951
  0
VERTEX
  5
184D
  8
0
 10
308.6824555214032
 20
14.146557435471911
 30
0.0
  0
SEQEND
  5
184E
  8
0
  0
POLYLINE
  5
12BE
  8
0
 66
     1
 10
0.0
 20
0.0
 30
0.0
 70
     1
  0
VERTEX
  5
184F
  8
0
 10
246.9324555214032
 20
9.1465574354719195
 30
0.0
 42
1.0
  0
VERTEX
  5
1850
  8
0
 10
250.4324555214032
 20
9.1465574354719195
 30
0.0
 42
1.0
  0
SEQEND
  5
1851
  8
0
  0
POLYLINE
  5
12BF
  8
0
 66
     1
 10
0.0
 20
0.0
 30
0.0
 70
     1
  0
VERTEX
  5
1852
  8
0
 10
276.9324555214032
 20
9.1465574354719195
 30
0.0
 42
1.0
  0
VERTEX
  5
1853
  8
0
 10
280.4324555214032
 20
9.1465574354719195
 30
0.0
 42
1.0
  0
SEQEND
  5
1854
  8
0
  0
POLYLINE
  5
12C0
  8
0
 66
     1
 10
0.0
 20
0.0
 30
0.0
 70
     1
  0
VERTEX
  5
1855
  8
0
 10
252.1824555214032
 20
14.146557435471919
 30
0.0
 42
1.0
  0
VERTEX
  5
1856
  8
0
 10
255.1824555214032
 20
14.146557435471919
 30
0.0
 42
1.0
  0
SEQEND
  5
1857
  8
0
  0
POLYLINE
  5
12C1
  8
0
 66
     1
 10
0.0
 20
0.0
 30
0.0
 70
     1
  0
VERTEX
  5
1858
  8
0
 10
272.1824555214032
 20
14.146557435471919
 30
0.0
 42
1.0
  0
VERTEX
  5
1859
  8
0
 10
275.1824555214032
 20
14.146557435471919
 30
0.0
 42
1.0
  0
SEQEND
  5
185A
  8
0
  0
POLYLINE
  5
12C2
  8
0
 66
     1
 10
0.0
 20
0.0
 30
0.0
 70
     1
  0
VERTEX
  5
185B
  8
0
 10
252.1824555214032
 20
28.146557435471919
 30
0.0
 42
1.0
  0
VERTEX
  5
185C
  8
0
 10
255.1824555214032
 20
28.146557435471919
 30
0.0
 42
1.0
  0
SEQEND
  5
185D
  8
0
  0
POLYLINE
  5
12C3
  8
0
 66
     1
 10
0.0
 20
0.0
 30
0.0
 70
     1
  0
VERTEX
  5
185E
  8
0
 10
272.1824555214032
 20
28.146557435471951
 30
0.0
 42
1.0
  0
VERTEX
  5
185F
  8
0
 10
275.1824555214032
 20
28.146557435471951
 30
0.0
 42
1.0
  0
SEQEND
  5
1860
  8
0
  0
POLYLINE
  5
12C4
  8
0
 66
     1
 10
0.0
 20
0.0
 30
0.0
 70
     1
  0
VERTEX
  5
1861
  8
0
 10
246.9324555214032
 20
33.146557435471919
 30
0.0
 42
1.0
  0
VERTEX
  5
1862
  8
0
 10
250.4324555214032
 20
33.146557435471919
 30
0.0
 42
1.0
  0
SEQEND
  5
1863
  8
0
  0
POLYLINE
  5
12C5
  8
0
 66
     1
 10
0.0
 20
0.0
 30
0.0
 70
     1
  0
VERTEX
  5
1864
  8
0
 10
276.9324555214032
 20
33.146557435471919
 30
0.0
 42
1.0
  0
VERTEX
  5
1865
  8
0
 10
280.4324555214032
 20
33.146557435471919
 30
0.0
 42
1.0
  0
SEQEND
  5
1866
  8
0
  0
ENDSEC
  0
EOF
