  0
SECTION
  2
HEADER
  9
$ACADVER
  1
AC1009
  9
$INSBASE
 10
0.0
 20
0.0
 30
0.0
  9
$EXTMIN
 10
1064.1262336889799
 20
546.94821998506518
 30
0.0
  9
$EXTMAX
 10
1886.6233878613359
 20
703.36940063955535
 30
0.0
  9
$LIMMIN
 10
0.0
 20
0.0
  9
$LIMMAX
 10
420.0
 20
297.0
  9
$ORTHOMODE
 70
     0
  9
$REGENMODE
 70
     1
  9
$FILLMODE
 70
     1
  9
$QTEXTMODE
 70
     0
  9
$MIRRTEXT
 70
     0
  9
$DRAGMODE
 70
     2
  9
$LTSCALE
 40
1.0
  9
$OSMODE
 70
   695
  9
$ATTMODE
 70
     1
  9
$TEXTSIZE
 40
2.5
  9
$TRACEWID
 40
1.0
  9
$TEXTSTYLE
  7
STANDARD
  9
$CLAYER
  8
0
  9
$CELTYPE
  6
BYLAYER
  9
$CECOLOR
 62
   256
  9
$DIMSCALE
 40
1.0
  9
$DIMASZ
 40
2.5
  9
$DIMEXO
 40
0.625
  9
$DIMDLI
 40
3.75
  9
$DIMRND
 40
0.0
  9
$DIMDLE
 40
0.0
  9
$DIMEXE
 40
1.25
  9
$DIMTP
 40
0.0
  9
$DIMTM
 40
0.0
  9
$DIMTXT
 40
2.5
  9
$DIMCEN
 40
2.5
  9
$DIMTSZ
 40
0.0
  9
$DIMTOL
 70
     0
  9
$DIMLIM
 70
     0
  9
$DIMTIH
 70
     0
  9
$DIMTOH
 70
     0
  9
$DIMSE1
 70
     0
  9
$DIMSE2
 70
     0
  9
$DIMTAD
 70
     1
  9
$DIMZIN
 70
     8
  9
$DIMBLK
  1

  9
$DIMASO
 70
     1
  9
$DIMSHO
 70
     1
  9
$DIMPOST
  1

  9
$DIMAPOST
  1

  9
$DIMALT
 70
     0
  9
$DIMALTD
 70
     3
  9
$DIMALTF
 40
0.03937007874016
  9
$DIMLFAC
 40
1.0
  9
$DIMTOFL
 70
     1
  9
$DIMTVP
 40
0.0
  9
$DIMTIX
 70
     0
  9
$DIMSOXD
 70
     0
  9
$DIMSAH
 70
     0
  9
$DIMBLK1
  1

  9
$DIMBLK2
  1

  9
$DIMSTYLE
  2
ISO-25
  9
$DIMCLRD
 70
     0
  9
$DIMCLRE
 70
     0
  9
$DIMCLRT
 70
     0
  9
$DIMTFAC
 40
1.0
  9
$DIMGAP
 40
0.625
  9
$LUNITS
 70
     2
  9
$LUPREC
 70
     4
  9
$SKETCHINC
 40
1.0
  9
$FILLETRAD
 40
1.0
  9
$AUNITS
 70
     0
  9
$AUPREC
 70
     0
  9
$MENU
  1
.
  9
$ELEVATION
 40
0.0
  9
$PELEVATION
 40
0.0
  9
$THICKNESS
 40
0.0
  9
$LIMCHECK
 70
     0
  9
$BLIPMODE
 70
     0
  9
$CHAMFERA
 40
0.0
  9
$CHAMFERB
 40
0.0
  9
$SKPOLY
 70
     0
  9
$TDCREATE
 40
2456884.8742024652
  9
$TDUPDATE
 40
2456884.877360764
  9
$TDINDWG
 40
0.003158912
  9
$TDUSRTIMER
 40
0.0031588773
  9
$USRTIMER
 70
     1
  9
$ANGBASE
 50
0.0
  9
$ANGDIR
 70
     0
  9
$PDMODE
 70
     0
  9
$PDSIZE
 40
0.0
  9
$PLINEWID
 40
0.0
  9
$COORDS
 70
     1
  9
$SPLFRAME
 70
     0
  9
$SPLINETYPE
 70
     6
  9
$SPLINESEGS
 70
     8
  9
$ATTDIA
 70
     0
  9
$ATTREQ
 70
     1
  9
$HANDLING
 70
     1
  9
$HANDSEED
  5
3FD
  9
$SURFTAB1
 70
     6
  9
$SURFTAB2
 70
     6
  9
$SURFTYPE
 70
     6
  9
$SURFU
 70
     6
  9
$SURFV
 70
     6
  9
$UCSNAME
  2

  9
$UCSORG
 10
0.0
 20
0.0
 30
0.0
  9
$UCSXDIR
 10
1.0
 20
0.0
 30
0.0
  9
$UCSYDIR
 10
0.0
 20
1.0
 30
0.0
  9
$PUCSNAME
  2

  9
$PUCSORG
 10
0.0
 20
0.0
 30
0.0
  9
$PUCSXDIR
 10
1.0
 20
0.0
 30
0.0
  9
$PUCSYDIR
 10
0.0
 20
1.0
 30
0.0
  9
$USERI1
 70
     0
  9
$USERI2
 70
     0
  9
$USERI3
 70
     0
  9
$USERI4
 70
     0
  9
$USERI5
 70
     0
  9
$USERR1
 40
0.0
  9
$USERR2
 40
0.0
  9
$USERR3
 40
0.0
  9
$USERR4
 40
0.0
  9
$USERR5
 40
0.0
  9
$WORLDVIEW
 70
     1
  9
$SHADEDGE
 70
     3
  9
$SHADEDIF
 70
    70
  9
$TILEMODE
 70
     1
  9
$MAXACTVP
 70
    64
  9
$PLIMCHECK
 70
     0
  9
$PEXTMIN
 10
0.0
 20
0.0
 30
0.0
  9
$PEXTMAX
 10
0.0
 20
0.0
 30
0.0
  9
$PLIMMIN
 10
0.0
 20
0.0
  9
$PLIMMAX
 10
12.0
 20
9.0
  9
$UNITMODE
 70
     0
  9
$VISRETAIN
 70
     1
  9
$PLINEGEN
 70
     0
  9
$PSLTSCALE
 70
     1
  0
ENDSEC
  0
SECTION
  2
TABLES
  0
TABLE
  2
VPORT
 70
     1
  0
VPORT
  2
*ACTIVE
 70
     0
 10
0.0
 20
0.0
 11
1.0
 21
1.0
 12
1845.3836990421689
 22
535.04017746073896
 13
0.0
 23
0.0
 14
10.0
 24
10.0
 15
10.0
 25
10.0
 16
0.0
 26
0.0
 36
1.0
 17
0.0
 27
0.0
 37
0.0
 40
250.13178478734031
 41
1.9868421052631571
 42
50.0
 43
0.0
 44
0.0
 50
0.0
 51
0.0
 71
     0
 72
  1000
 73
     1
 74
     3
 75
     0
 76
     1
 77
     0
 78
     0
  0
ENDTAB
  0
TABLE
  2
LTYPE
 70
     1
  0
LTYPE
  2
CONTINUOUS
 70
     0
  3
Solid line
 72
    65
 73
     0
 40
0.0
  0
ENDTAB
  0
TABLE
  2
LAYER
 70
     1
  0
LAYER
  2
0
 70
     0
 62
     7
  6
CONTINUOUS
  0
ENDTAB
  0
TABLE
  2
STYLE
 70
     2
  0
STYLE
  2
STANDARD
 70
     0
 40
0.0
 41
1.0
 50
0.0
 71
     0
 42
2.5
  3
txt
  4

  0
STYLE
  2
ANNOTATIVE
 70
     0
 40
0.0
 41
1.0
 50
0.0
 71
     0
 42
2.5
  3
txt
  4

  0
ENDTAB
  0
TABLE
  2
VIEW
 70
     0
  0
ENDTAB
  0
TABLE
  2
UCS
 70
     0
  0
ENDTAB
  0
TABLE
  2
APPID
 70
     9
  0
APPID
  2
ACAD
 70
     0
  0
APPID
  2
ACAD_PSEXT
 70
     0
  0
APPID
  2
ACADANNOPO
 70
     0
  0
APPID
  2
ACADANNOTATIVE
 70
     0
  0
APPID
  2
ACAD_DSTYLE_DIMJAG
 70
     0
  0
APPID
  2
ACAD_DSTYLE_DIMTALN
 70
     0
  0
APPID
  2
ACAD_MLEADERVER
 70
     0
  0
APPID
  2
ACAD_NAV_VCDISPLAY
 70
     0
  0
APPID
  2
ACAD_DSTYLE_DIMRADIAL_EXTENSION
 70
     0
  0
ENDTAB
  0
TABLE
  2
DIMSTYLE
 70
     3
  0
DIMSTYLE
  2
STANDARD
 70
     0
  3

  4

  5

  6

  7

 40
1.0
 41
0.18
 42
0.0625
 43
0.38
 44
0.18
 45
0.0
 46
0.0
 47
0.0
 48
0.0
140
0.18
141
0.09
142
0.0
143
25.399999999999999
144
1.0
145
0.0
146
1.0
147
0.09
 71
     0
 72
     0
 73
     1
 74
     1
 75
     0
 76
     0
 77
     0
 78
     0
170
     0
171
     2
172
     0
173
     0
174
     0
175
     0
176
     0
177
     0
178
     0
  0
DIMSTYLE
  2
ANNOTATIVE
 70
     0
  3

  4

  5

  6

  7

 40
0.0
 41
2.5
 42
0.625
 43
3.75
 44
1.25
 45
0.0
 46
0.0
 47
0.0
 48
0.0
140
2.5
141
2.5
142
0.0
143
0.03937007874016
144
1.0
145
0.0
146
1.0
147
0.625
 71
     0
 72
     0
 73
     0
 74
     0
 75
     0
 76
     0
 77
     1
 78
     8
170
     0
171
     3
172
     1
173
     0
174
     0
175
     0
176
     0
177
     0
178
     0
  0
DIMSTYLE
  2
ISO-25
 70
     0
  3

  4

  5

  6

  7

 40
1.0
 41
2.5
 42
0.625
 43
3.75
 44
1.25
 45
0.0
 46
0.0
 47
0.0
 48
0.0
140
2.5
141
2.5
142
0.0
143
0.03937007874016
144
1.0
145
0.0
146
1.0
147
0.625
 71
     0
 72
     0
 73
     0
 74
     0
 75
     0
 76
     0
 77
     1
 78
     8
170
     0
171
     3
172
     1
173
     0
174
     0
175
     0
176
     0
177
     0
178
     0
  0
ENDTAB
  0
ENDSEC
  0
SECTION
  2
BLOCKS
  0
BLOCK
  8
0
  2
$MODEL_SPACE
 70
     0
 10
0.0
 20
0.0
 30
0.0
  3
$MODEL_SPACE
  1

  0
ENDBLK
  5
21
  8
0
  0
BLOCK
 67
     1
  8
0
  2
$PAPER_SPACE
 70
     0
 10
0.0
 20
0.0
 30
0.0
  3
$PAPER_SPACE
  1

  0
ENDBLK
  5
D5
 67
     1
  8
0
  0
ENDSEC
  0
SECTION
  2
ENTITIES
  0
POLYLINE
  5
255
  8
0
 66
     1
 10
0.0
 20
0.0
 30
0.0
 70
     1
  0
VERTEX
  5
38E
  8
0
 10
1814.745451457437
 20
652.44821998506541
 30
0.0
  0
VERTEX
  5
38F
  8
0
 10
1811.745451457436
 20
652.44821998506541
 30
0.0
 42
-1.0
  0
VERTEX
  5
390
  8
0
 10
1811.745451457436
 20
655.44821998506541
 30
0.0
  0
VERTEX
  5
391
  8
0
 10
1814.745451457437
 20
655.44821998506541
 30
0.0
 42
-1.0
  0
SEQEND
  5
392
  8
0
  0
POLYLINE
  5
256
  8
0
 66
     1
 10
0.0
 20
0.0
 30
0.0
 70
     1
  0
VERTEX
  5
393
  8
0
 10
1850.5454514574369
 20
655.44821998506541
 30
0.0
  0
VERTEX
  5
394
  8
0
 10
1853.5454514574369
 20
655.44821998506541
 30
0.0
 42
-1.0
  0
VERTEX
  5
395
  8
0
 10
1853.5454514574369
 20
652.44821998506541
 30
0.0
  0
VERTEX
  5
396
  8
0
 10
1850.5454514574369
 20
652.44821998506541
 30
0.0
 42
-1.0
  0
SEQEND
  5
397
  8
0
  0
POLYLINE
  5
257
  8
0
 66
     1
 10
0.0
 20
0.0
 30
0.0
 70
     1
  0
VERTEX
  5
398
  8
0
 10
1823.245451457436
 20
653.94821998506529
 30
0.0
 42
-1.0
  0
VERTEX
  5
399
  8
0
 10
1826.245451457436
 20
653.94821998506529
 30
0.0
 42
-1.0
  0
SEQEND
  5
39A
  8
0
  0
POLYLINE
  5
258
  8
0
 66
     1
 10
0.0
 20
0.0
 30
0.0
 70
     1
  0
VERTEX
  5
39B
  8
0
 10
1839.0454514574369
 20
653.94821998506529
 30
0.0
 42
-1.0
  0
VERTEX
  5
39C
  8
0
 10
1842.0454514574369
 20
653.94821998506529
 30
0.0
 42
-1.0
  0
SEQEND
  5
39D
  8
0
  0
POLYLINE
  5
259
  8
0
 66
     1
 10
0.0
 20
0.0
 30
0.0
 70
     1
  0
VERTEX
  5
39E
  8
0
 10
1795.8954514574359
 20
634.44821998506541
 30
0.0
 42
-1.0
  0
VERTEX
  5
39F
  8
0
 10
1799.3954514574359
 20
634.44821998506541
 30
0.0
 42
-1.0
  0
SEQEND
  5
3A0
  8
0
  0
POLYLINE
  5
25A
  8
0
 66
     1
 10
0.0
 20
0.0
 30
0.0
 70
     1
  0
VERTEX
  5
3A1
  8
0
 10
1865.8954514574359
 20
634.44821998506541
 30
0.0
 42
-1.0
  0
VERTEX
  5
3A2
  8
0
 10
1869.3954514574359
 20
634.44821998506541
 30
0.0
 42
-1.0
  0
SEQEND
  5
3A3
  8
0
  0
POLYLINE
  5
25B
  8
0
 66
     1
 10
0.0
 20
0.0
 30
0.0
 70
     1
  0
VERTEX
  5
3A4
  8
0
 10
1811.745451457436
 20
563.35177742237136
 30
0.0
  0
VERTEX
  5
3A5
  8
0
 10
1811.745451457436
 20
557.35177742237147
 30
0.0
 42
-0.4142135623730951
  0
VERTEX
  5
3A6
  8
0
 10
1810.745451457436
 20
556.35177742237136
 30
0.0
  0
VERTEX
  5
3A7
  8
0
 10
1806.545451457436
 20
556.35177742237136
 30
0.0
 42
-0.4142135623730951
  0
VERTEX
  5
3A8
  8
0
 10
1805.545451457436
 20
557.35177742237147
 30
0.0
  0
VERTEX
  5
3A9
  8
0
 10
1805.545451457436
 20
563.35177742237136
 30
0.0
 42
-0.4142135623730951
  0
VERTEX
  5
3AA
  8
0
 10
1806.545451457436
 20
564.35177742237136
 30
0.0
  0
VERTEX
  5
3AB
  8
0
 10
1810.745451457436
 20
564.35177742237136
 30
0.0
 42
-0.4142135623730951
  0
SEQEND
  5
3AC
  8
0
  0
POLYLINE
  5
25C
  8
0
 66
     1
 10
0.0
 20
0.0
 30
0.0
 70
     1
  0
VERTEX
  5
3AD
  8
0
 10
1835.745451457436
 20
557.94821998506529
 30
0.0
  0
VERTEX
  5
3AE
  8
0
 10
1835.745451457436
 20
551.94821998506541
 30
0.0
 42
-0.4142135623730951
  0
VERTEX
  5
3AF
  8
0
 10
1834.745451457436
 20
550.94821998506541
 30
0.0
  0
VERTEX
  5
3B0
  8
0
 10
1830.5454514574369
 20
550.94821998506541
 30
0.0
 42
-0.4142135623730951
  0
VERTEX
  5
3B1
  8
0
 10
1829.5454514574369
 20
551.94821998506541
 30
0.0
  0
VERTEX
  5
3B2
  8
0
 10
1829.5454514574369
 20
557.94821998506529
 30
0.0
 42
-0.4142135623730951
  0
VERTEX
  5
3B3
  8
0
 10
1830.5454514574369
 20
558.94821998506541
 30
0.0
  0
VERTEX
  5
3B4
  8
0
 10
1834.745451457436
 20
558.94821998506541
 30
0.0
 42
-0.4142135623730951
  0
SEQEND
  5
3B5
  8
0
  0
POLYLINE
  5
25D
  8
0
 66
     1
 10
0.0
 20
0.0
 30
0.0
 70
     1
  0
VERTEX
  5
3B6
  8
0
 10
1823.745451457436
 20
559.24904266035605
 30
0.0
  0
VERTEX
  5
3B7
  8
0
 10
1823.745451457436
 20
552.24904266035605
 30
0.0
  0
VERTEX
  5
3B8
  8
0
 10
1818.545451457436
 20
552.24904266035605
 30
0.0
 42
-0.4142135623730951
  0
VERTEX
  5
3B9
  8
0
 10
1817.545451457436
 20
553.24904266035605
 30
0.0
  0
VERTEX
  5
3BA
  8
0
 10
1817.545451457436
 20
559.24904266035605
 30
0.0
 42
-0.4142135623730951
  0
VERTEX
  5
3BB
  8
0
 10
1818.545451457436
 20
560.24904266035605
 30
0.0
  0
VERTEX
  5
3BC
  8
0
 10
1822.745451457436
 20
560.24904266035605
 30
0.0
 42
-0.4142135623730951
  0
SEQEND
  5
3BD
  8
0
  0
POLYLINE
  5
25E
  8
0
 66
     1
 10
0.0
 20
0.0
 30
0.0
 70
     1
  0
VERTEX
  5
3BE
  8
0
 10
1854.545451457436
 20
564.39476025694466
 30
0.0
  0
VERTEX
  5
3BF
  8
0
 10
1858.745451457436
 20
564.39476025694466
 30
0.0
 42
-0.4142135623730951
  0
VERTEX
  5
3C0
  8
0
 10
1859.745451457436
 20
563.39476025694466
 30
0.0
  0
VERTEX
  5
3C1
  8
0
 10
1859.745451457436
 20
557.39476025694478
 30
0.0
 42
-0.4142135623730951
  0
VERTEX
  5
3C2
  8
0
 10
1858.745451457436
 20
556.39476025694478
 30
0.0
  0
VERTEX
  5
3C3
  8
0
 10
1854.545451457436
 20
556.39476025694478
 30
0.0
 42
-0.4142135623730951
  0
VERTEX
  5
3C4
  8
0
 10
1853.5454514574369
 20
557.39476025694478
 30
0.0
  0
VERTEX
  5
3C5
  8
0
 10
1853.5454514574369
 20
563.39476025694466
 30
0.0
 42
-0.4142135623730951
  0
SEQEND
  5
3C6
  8
0
  0
POLYLINE
  5
25F
  8
0
 66
     1
 10
0.0
 20
0.0
 30
0.0
 70
     1
  0
VERTEX
  5
3C7
  8
0
 10
1842.5454514574369
 20
560.24904266035605
 30
0.0
  0
VERTEX
  5
3C8
  8
0
 10
1846.745451457437
 20
560.24904266035605
 30
0.0
 42
-0.4142135623730951
  0
VERTEX
  5
3C9
  8
0
 10
1847.745451457437
 20
559.24904266035605
 30
0.0
  0
VERTEX
  5
3CA
  8
0
 10
1847.745451457437
 20
553.24904266035605
 30
0.0
 42
-0.4142135623730951
  0
VERTEX
  5
3CB
  8
0
 10
1846.745451457437
 20
552.24904266035605
 30
0.0
  0
VERTEX
  5
3CC
  8
0
 10
1842.5454514574369
 20
552.24904266035605
 30
0.0
 42
-0.4142135623730951
  0
VERTEX
  5
3CD
  8
0
 10
1841.5454514574369
 20
553.24904266035605
 30
0.0
  0
VERTEX
  5
3CE
  8
0
 10
1841.5454514574369
 20
559.24904266035605
 30
0.0
 42
-0.4142135623730951
  0
SEQEND
  5
3CF
  8
0
  0
POLYLINE
  5
260
  8
0
 66
     1
 10
0.0
 20
0.0
 30
0.0
 70
     1
  0
VERTEX
  5
3D0
  8
0
 10
1799.395451457437
 20
579.44821998506541
 30
0.0
 42
-1.0
  0
VERTEX
  5
3D1
  8
0
 10
1795.895451457437
 20
579.44821998506541
 30
0.0
 42
-1.0
  0
SEQEND
  5
3D2
  8
0
  0
POLYLINE
  5
261
  8
0
 66
     1
 10
0.0
 20
0.0
 30
0.0
 70
     1
  0
VERTEX
  5
3D3
  8
0
 10
1869.3954514574359
 20
579.44821998506541
 30
0.0
 42
-1.0
  0
VERTEX
  5
3D4
  8
0
 10
1865.8954514574359
 20
579.44821998506541
 30
0.0
 42
-1.0
  0
SEQEND
  5
3D5
  8
0
  0
POLYLINE
  5
262
  8
0
 66
     1
 10
0.0
 20
0.0
 30
0.0
 70
     1
  0
VERTEX
  5
3D6
  8
0
 10
1801.645451457437
 20
616.04821998506554
 30
0.0
 42
-1.0
  0
VERTEX
  5
3D7
  8
0
 10
1804.645451457437
 20
616.04821998506554
 30
0.0
 42
-1.0
  0
SEQEND
  5
3D8
  8
0
  0
POLYLINE
  5
263
  8
0
 66
     1
 10
0.0
 20
0.0
 30
0.0
 70
     1
  0
VERTEX
  5
3D9
  8
0
 10
1860.6454514574359
 20
616.04821998506554
 30
0.0
 42
-1.0
  0
VERTEX
  5
3DA
  8
0
 10
1863.6454514574359
 20
616.04821998506554
 30
0.0
 42
-1.0
  0
SEQEND
  5
3DB
  8
0
  0
POLYLINE
  5
264
  8
0
 66
     1
 10
0.0
 20
0.0
 30
0.0
 70
     1
  0
VERTEX
  5
3DC
  8
0
 10
1804.645451457437
 20
597.84821998506527
 30
0.0
 42
-1.0
  0
VERTEX
  5
3DD
  8
0
 10
1801.645451457437
 20
597.84821998506527
 30
0.0
 42
-1.0
  0
SEQEND
  5
3DE
  8
0
  0
POLYLINE
  5
265
  8
0
 66
     1
 10
0.0
 20
0.0
 30
0.0
 70
     1
  0
VERTEX
  5
3DF
  8
0
 10
1863.6454514574359
 20
597.84821998506527
 30
0.0
 42
-1.0
  0
VERTEX
  5
3E0
  8
0
 10
1860.6454514574359
 20
597.84821998506527
 30
0.0
 42
-1.0
  0
SEQEND
  5
3E1
  8
0
  0
POLYLINE
  5
266
  8
0
 66
     1
 10
0.0
 20
0.0
 30
0.0
 70
     1
  0
VERTEX
  5
3E2
  8
0
 10
1814.745451457437
 20
620.44821998506529
 30
0.0
  0
VERTEX
  5
3E3
  8
0
 10
1811.745451457436
 20
620.44821998506529
 30
0.0
 42
-1.0
  0
VERTEX
  5
3E4
  8
0
 10
1811.745451457436
 20
623.44821998506541
 30
0.0
  0
VERTEX
  5
3E5
  8
0
 10
1814.745451457437
 20
623.44821998506541
 30
0.0
 42
-1.0
  0
SEQEND
  5
3E6
  8
0
  0
POLYLINE
  5
267
  8
0
 66
     1
 10
0.0
 20
0.0
 30
0.0
 70
     1
  0
VERTEX
  5
3E7
  8
0
 10
1850.5454514574369
 20
623.44821998506541
 30
0.0
  0
VERTEX
  5
3E8
  8
0
 10
1853.5454514574369
 20
623.44821998506541
 30
0.0
 42
-1.0
  0
VERTEX
  5
3E9
  8
0
 10
1853.5454514574369
 20
620.44821998506529
 30
0.0
  0
VERTEX
  5
3EA
  8
0
 10
1850.5454514574369
 20
620.44821998506529
 30
0.0
 42
-1.0
  0
SEQEND
  5
3EB
  8
0
  0
POLYLINE
  5
268
  8
0
 66
     1
 10
0.0
 20
0.0
 30
0.0
 70
     1
  0
VERTEX
  5
3EC
  8
0
 10
1869.6454514574359
 20
626.44821998506541
 30
0.0
 42
-0.4142135623730959
  0
VERTEX
  5
3ED
  8
0
 10
1872.645451457437
 20
629.44821998506541
 30
0.0
  0
VERTEX
  5
3EE
  8
0
 10
1883.6233878613359
 20
629.44821998506541
 30
0.0
 42
0.5575932466371922
  0
VERTEX
  5
3EF
  8
0
 10
1886.3064371457519
 20
633.79032524822333
 30
0.0
 42
0.6179143806533257
  0
VERTEX
  5
3F0
  8
0
 10
1778.984465769121
 20
633.79032524822333
 30
0.0
 42
0.5575932466371922
  0
VERTEX
  5
3F1
  8
0
 10
1781.667515053537
 20
629.44821998506541
 30
0.0
  0
VERTEX
  5
3F2
  8
0
 10
1792.645451457437
 20
629.44821998506541
 30
0.0
 42
-0.4142135623730948
  0
VERTEX
  5
3F3
  8
0
 10
1795.645451457437
 20
626.44821998506541
 30
0.0
  0
VERTEX
  5
3F4
  8
0
 10
1795.645451457437
 20
587.44821998506518
 30
0.0
 42
-0.4142135623730971
  0
VERTEX
  5
3F5
  8
0
 10
1792.645451457437
 20
584.44821998506518
 30
0.0
  0
VERTEX
  5
3F6
  8
0
 10
1781.667515053537
 20
584.44821998506541
 30
0.0
 42
0.5575932466371955
  0
VERTEX
  5
3F7
  8
0
 10
1778.984465769121
 20
580.10611472190737
 30
0.0
 42
0.6179143806533248
  0
VERTEX
  5
3F8
  8
0
 10
1886.3064371457519
 20
580.10611472190737
 30
0.0
 42
0.5575932466371957
  0
VERTEX
  5
3F9
  8
0
 10
1883.6233878613359
 20
584.44821998506541
 30
0.0
  0
VERTEX
  5
3FA
  8
0
 10
1872.645451457437
 20
584.44821998506541
 30
0.0
 42
-0.414213562373097
  0
VERTEX
  5
3FB
  8
0
 10
1869.6454514574359
 20
587.44821998506529
 30
0.0
  0
SEQEND
  5
3FC
  8
0
  0
ENDSEC
  0
EOF
