  0
SECTION
  2
HEADER
  9
$ACADVER
  1
AC1009
  9
$INSBASE
 10
0.0
 20
0.0
 30
0.0
  9
$EXTMIN
 10
1065.6212487560961
 20
575.65030093101439
 30
0.0
  9
$EXTMAX
 10
1471.8337966273041
 20
713.06327853779067
 30
0.0
  9
$LIMMIN
 10
0.0
 20
0.0
  9
$LIMMAX
 10
420.0
 20
297.0
  9
$ORTHOMODE
 70
     0
  9
$REGENMODE
 70
     1
  9
$FILLMODE
 70
     1
  9
$QTEXTMODE
 70
     0
  9
$MIRRTEXT
 70
     0
  9
$DRAGMODE
 70
     2
  9
$LTSCALE
 40
1.0
  9
$OSMODE
 70
   695
  9
$ATTMODE
 70
     1
  9
$TEXTSIZE
 40
2.5
  9
$TRACEWID
 40
1.0
  9
$TEXTSTYLE
  7
STANDARD
  9
$CLAYER
  8
0
  9
$CELTYPE
  6
BYLAYER
  9
$CECOLOR
 62
   256
  9
$DIMSCALE
 40
1.0
  9
$DIMASZ
 40
2.5
  9
$DIMEXO
 40
0.625
  9
$DIMDLI
 40
3.75
  9
$DIMRND
 40
0.0
  9
$DIMDLE
 40
0.0
  9
$DIMEXE
 40
1.25
  9
$DIMTP
 40
0.0
  9
$DIMTM
 40
0.0
  9
$DIMTXT
 40
2.5
  9
$DIMCEN
 40
2.5
  9
$DIMTSZ
 40
0.0
  9
$DIMTOL
 70
     0
  9
$DIMLIM
 70
     0
  9
$DIMTIH
 70
     0
  9
$DIMTOH
 70
     0
  9
$DIMSE1
 70
     0
  9
$DIMSE2
 70
     0
  9
$DIMTAD
 70
     1
  9
$DIMZIN
 70
     8
  9
$DIMBLK
  1

  9
$DIMASO
 70
     1
  9
$DIMSHO
 70
     1
  9
$DIMPOST
  1

  9
$DIMAPOST
  1

  9
$DIMALT
 70
     0
  9
$DIMALTD
 70
     3
  9
$DIMALTF
 40
0.03937007874016
  9
$DIMLFAC
 40
1.0
  9
$DIMTOFL
 70
     1
  9
$DIMTVP
 40
0.0
  9
$DIMTIX
 70
     0
  9
$DIMSOXD
 70
     0
  9
$DIMSAH
 70
     0
  9
$DIMBLK1
  1

  9
$DIMBLK2
  1

  9
$DIMSTYLE
  2
ISO-25
  9
$DIMCLRD
 70
     0
  9
$DIMCLRE
 70
     0
  9
$DIMCLRT
 70
     0
  9
$DIMTFAC
 40
1.0
  9
$DIMGAP
 40
0.625
  9
$LUNITS
 70
     2
  9
$LUPREC
 70
     4
  9
$SKETCHINC
 40
1.0
  9
$FILLETRAD
 40
0.0
  9
$AUNITS
 70
     0
  9
$AUPREC
 70
     0
  9
$MENU
  1
.
  9
$ELEVATION
 40
0.0
  9
$PELEVATION
 40
0.0
  9
$THICKNESS
 40
0.0
  9
$LIMCHECK
 70
     0
  9
$BLIPMODE
 70
     0
  9
$CHAMFERA
 40
0.0
  9
$CHAMFERB
 40
0.0
  9
$SKPOLY
 70
     0
  9
$TDCREATE
 40
2456884.8778509842
  9
$TDUPDATE
 40
2456884.8868655898
  9
$TDINDWG
 40
0.0090152778
  9
$TDUSRTIMER
 40
0.0090152431
  9
$USRTIMER
 70
     1
  9
$ANGBASE
 50
0.0
  9
$ANGDIR
 70
     0
  9
$PDMODE
 70
     0
  9
$PDSIZE
 40
0.0
  9
$PLINEWID
 40
0.0
  9
$COORDS
 70
     1
  9
$SPLFRAME
 70
     0
  9
$SPLINETYPE
 70
     6
  9
$SPLINESEGS
 70
     8
  9
$ATTDIA
 70
     0
  9
$ATTREQ
 70
     1
  9
$HANDLING
 70
     1
  9
$HANDSEED
  5
42D
  9
$SURFTAB1
 70
     6
  9
$SURFTAB2
 70
     6
  9
$SURFTYPE
 70
     6
  9
$SURFU
 70
     6
  9
$SURFV
 70
     6
  9
$UCSNAME
  2

  9
$UCSORG
 10
0.0
 20
0.0
 30
0.0
  9
$UCSXDIR
 10
1.0
 20
0.0
 30
0.0
  9
$UCSYDIR
 10
0.0
 20
1.0
 30
0.0
  9
$PUCSNAME
  2

  9
$PUCSORG
 10
0.0
 20
0.0
 30
0.0
  9
$PUCSXDIR
 10
1.0
 20
0.0
 30
0.0
  9
$PUCSYDIR
 10
0.0
 20
1.0
 30
0.0
  9
$USERI1
 70
     0
  9
$USERI2
 70
     0
  9
$USERI3
 70
     0
  9
$USERI4
 70
     0
  9
$USERI5
 70
     0
  9
$USERR1
 40
0.0
  9
$USERR2
 40
0.0
  9
$USERR3
 40
0.0
  9
$USERR4
 40
0.0
  9
$USERR5
 40
0.0
  9
$WORLDVIEW
 70
     1
  9
$SHADEDGE
 70
     3
  9
$SHADEDIF
 70
    70
  9
$TILEMODE
 70
     1
  9
$MAXACTVP
 70
    64
  9
$PLIMCHECK
 70
     0
  9
$PEXTMIN
 10
0.0
 20
0.0
 30
0.0
  9
$PEXTMAX
 10
0.0
 20
0.0
 30
0.0
  9
$PLIMMIN
 10
0.0
 20
0.0
  9
$PLIMMAX
 10
12.0
 20
9.0
  9
$UNITMODE
 70
     0
  9
$VISRETAIN
 70
     1
  9
$PLINEGEN
 70
     0
  9
$PSLTSCALE
 70
     1
  0
ENDSEC
  0
SECTION
  2
TABLES
  0
TABLE
  2
VPORT
 70
     1
  0
VPORT
  2
*ACTIVE
 70
     0
 10
0.0
 20
0.0
 11
1.0
 21
1.0
 12
1517.5213450930701
 22
679.56316843999662
 13
0.0
 23
0.0
 14
10.0
 24
10.0
 15
10.0
 25
10.0
 16
0.0
 26
0.0
 36
1.0
 17
0.0
 27
0.0
 37
0.0
 40
619.33212439762019
 41
1.9868421052631571
 42
50.0
 43
0.0
 44
0.0
 50
0.0
 51
0.0
 71
     0
 72
  1000
 73
     1
 74
     3
 75
     0
 76
     1
 77
     0
 78
     0
  0
ENDTAB
  0
TABLE
  2
LTYPE
 70
     1
  0
LTYPE
  2
CONTINUOUS
 70
     0
  3
Solid line
 72
    65
 73
     0
 40
0.0
  0
ENDTAB
  0
TABLE
  2
LAYER
 70
     1
  0
LAYER
  2
0
 70
     0
 62
     7
  6
CONTINUOUS
  0
ENDTAB
  0
TABLE
  2
STYLE
 70
     2
  0
STYLE
  2
STANDARD
 70
     0
 40
0.0
 41
1.0
 50
0.0
 71
     0
 42
2.5
  3
txt
  4

  0
STYLE
  2
ANNOTATIVE
 70
     0
 40
0.0
 41
1.0
 50
0.0
 71
     0
 42
2.5
  3
txt
  4

  0
ENDTAB
  0
TABLE
  2
VIEW
 70
     0
  0
ENDTAB
  0
TABLE
  2
UCS
 70
     0
  0
ENDTAB
  0
TABLE
  2
APPID
 70
     9
  0
APPID
  2
ACAD
 70
     0
  0
APPID
  2
ACAD_PSEXT
 70
     0
  0
APPID
  2
ACADANNOPO
 70
     0
  0
APPID
  2
ACADANNOTATIVE
 70
     0
  0
APPID
  2
ACAD_DSTYLE_DIMJAG
 70
     0
  0
APPID
  2
ACAD_DSTYLE_DIMTALN
 70
     0
  0
APPID
  2
ACAD_MLEADERVER
 70
     0
  0
APPID
  2
ACAD_NAV_VCDISPLAY
 70
     0
  0
APPID
  2
ACAD_DSTYLE_DIMRADIAL_EXTENSION
 70
     0
  0
ENDTAB
  0
TABLE
  2
DIMSTYLE
 70
     3
  0
DIMSTYLE
  2
STANDARD
 70
     0
  3

  4

  5

  6

  7

 40
1.0
 41
0.18
 42
0.0625
 43
0.38
 44
0.18
 45
0.0
 46
0.0
 47
0.0
 48
0.0
140
0.18
141
0.09
142
0.0
143
25.399999999999999
144
1.0
145
0.0
146
1.0
147
0.09
 71
     0
 72
     0
 73
     1
 74
     1
 75
     0
 76
     0
 77
     0
 78
     0
170
     0
171
     2
172
     0
173
     0
174
     0
175
     0
176
     0
177
     0
178
     0
  0
DIMSTYLE
  2
ANNOTATIVE
 70
     0
  3

  4

  5

  6

  7

 40
0.0
 41
2.5
 42
0.625
 43
3.75
 44
1.25
 45
0.0
 46
0.0
 47
0.0
 48
0.0
140
2.5
141
2.5
142
0.0
143
0.03937007874016
144
1.0
145
0.0
146
1.0
147
0.625
 71
     0
 72
     0
 73
     0
 74
     0
 75
     0
 76
     0
 77
     1
 78
     8
170
     0
171
     3
172
     1
173
     0
174
     0
175
     0
176
     0
177
     0
178
     0
  0
DIMSTYLE
  2
ISO-25
 70
     0
  3

  4

  5

  6

  7

 40
1.0
 41
2.5
 42
0.625
 43
3.75
 44
1.25
 45
0.0
 46
0.0
 47
0.0
 48
0.0
140
2.5
141
2.5
142
0.0
143
0.03937007874016
144
1.0
145
0.0
146
1.0
147
0.625
 71
     0
 72
     0
 73
     0
 74
     0
 75
     0
 76
     0
 77
     1
 78
     8
170
     0
171
     3
172
     1
173
     0
174
     0
175
     0
176
     0
177
     0
178
     0
  0
ENDTAB
  0
ENDSEC
  0
SECTION
  2
BLOCKS
  0
BLOCK
  8
0
  2
$MODEL_SPACE
 70
     0
 10
0.0
 20
0.0
 30
0.0
  3
$MODEL_SPACE
  1

  0
ENDBLK
  5
21
  8
0
  0
BLOCK
 67
     1
  8
0
  2
$PAPER_SPACE
 70
     0
 10
0.0
 20
0.0
 30
0.0
  3
$PAPER_SPACE
  1

  0
ENDBLK
  5
D5
 67
     1
  8
0
  0
BLOCK
  8
0
  2
A$C40F51F46
 70
     0
 10
0.0
 20
0.0
 30
0.0
  3
A$C40F51F46
  1

  0
POLYLINE
  5
243
  8
0
 66
     1
 10
0.0
 20
0.0
 30
0.0
 70
     1
  0
VERTEX
  5
366
  8
0
 10
-21.0
 20
97.5
 30
0.0
  0
VERTEX
  5
367
  8
0
 10
-24.0
 20
97.5
 30
0.0
 42
-1.0
  0
VERTEX
  5
368
  8
0
 10
-24.0
 20
100.5
 30
0.0
  0
VERTEX
  5
369
  8
0
 10
-21.0
 20
100.5
 30
0.0
 42
-1.0
  0
SEQEND
  5
36A
  8
0
  0
POLYLINE
  5
244
  8
0
 66
     1
 10
0.0
 20
0.0
 30
0.0
 70
     1
  0
VERTEX
  5
36B
  8
0
 10
14.80000000000018
 20
100.5
 30
0.0
  0
VERTEX
  5
36C
  8
0
 10
17.800000000000178
 20
100.5
 30
0.0
 42
-1.0
  0
VERTEX
  5
36D
  8
0
 10
17.800000000000178
 20
97.5
 30
0.0
  0
VERTEX
  5
36E
  8
0
 10
14.80000000000018
 20
97.5
 30
0.0
 42
-1.0
  0
SEQEND
  5
36F
  8
0
  0
POLYLINE
  5
245
  8
0
 66
     1
 10
0.0
 20
0.0
 30
0.0
 70
     1
  0
VERTEX
  5
370
  8
0
 10
-12.5
 20
99.0
 30
0.0
 42
-1.0
  0
VERTEX
  5
371
  8
0
 10
-9.5
 20
99.0
 30
0.0
 42
-1.0
  0
SEQEND
  5
372
  8
0
  0
POLYLINE
  5
246
  8
0
 66
     1
 10
0.0
 20
0.0
 30
0.0
 70
     1
  0
VERTEX
  5
373
  8
0
 10
3.300000000000181
 20
99.0
 30
0.0
 42
-1.0
  0
VERTEX
  5
374
  8
0
 10
6.300000000000181
 20
99.0
 30
0.0
 42
-1.0
  0
SEQEND
  5
375
  8
0
  0
POLYLINE
  5
247
  8
0
 66
     1
 10
0.0
 20
0.0
 30
0.0
 70
     1
  0
VERTEX
  5
376
  8
0
 10
-39.849999999999909
 20
79.5
 30
0.0
 42
-1.0
  0
VERTEX
  5
377
  8
0
 10
-36.349999999999909
 20
79.5
 30
0.0
 42
-1.0
  0
SEQEND
  5
378
  8
0
  0
POLYLINE
  5
248
  8
0
 66
     1
 10
0.0
 20
0.0
 30
0.0
 70
     1
  0
VERTEX
  5
379
  8
0
 10
30.150000000000091
 20
79.5
 30
0.0
 42
-1.0
  0
VERTEX
  5
37A
  8
0
 10
33.650000000000091
 20
79.5
 30
0.0
 42
-1.0
  0
SEQEND
  5
37B
  8
0
  0
POLYLINE
  5
249
  8
0
 66
     1
 10
0.0
 20
0.0
 30
0.0
 70
     1
  0
VERTEX
  5
37C
  8
0
 10
-24.000000000000231
 20
8.4035574373060626
 30
0.0
  0
VERTEX
  5
37D
  8
0
 10
-24.000000000000231
 20
2.4035574373060622
 30
0.0
 42
-0.4142135623730951
  0
VERTEX
  5
37E
  8
0
 10
-25.000000000000231
 20
1.403557437306062
 30
0.0
  0
VERTEX
  5
37F
  8
0
 10
-29.200000000000049
 20
1.403557437306062
 30
0.0
 42
-0.4142135623730951
  0
VERTEX
  5
380
  8
0
 10
-30.200000000000049
 20
2.4035574373060622
 30
0.0
  0
VERTEX
  5
381
  8
0
 10
-30.200000000000049
 20
8.4035574373060626
 30
0.0
 42
-0.4142135623730951
  0
VERTEX
  5
382
  8
0
 10
-29.200000000000049
 20
9.4035574373060626
 30
0.0
  0
VERTEX
  5
383
  8
0
 10
-25.000000000000231
 20
9.4035574373060626
 30
0.0
 42
-0.4142135623730951
  0
SEQEND
  5
384
  8
0
  0
POLYLINE
  5
24A
  8
0
 66
     1
 10
0.0
 20
0.0
 30
0.0
 70
     1
  0
VERTEX
  5
385
  8
0
 10
0.0
 20
3.0
 30
0.0
  0
VERTEX
  5
386
  8
0
 10
0.0
 20
-3.0
 30
0.0
 42
-0.4142135623730951
  0
VERTEX
  5
387
  8
0
 10
-1.0
 20
-4.0
 30
0.0
  0
VERTEX
  5
388
  8
0
 10
-5.1999999999998181
 20
-4.0
 30
0.0
 42
-0.4142135623730951
  0
VERTEX
  5
389
  8
0
 10
-6.1999999999998181
 20
-3.0
 30
0.0
  0
VERTEX
  5
38A
  8
0
 10
-6.1999999999998181
 20
3.0
 30
0.0
 42
-0.4142135623730951
  0
VERTEX
  5
38B
  8
0
 10
-5.1999999999998181
 20
4.0
 30
0.0
  0
VERTEX
  5
38C
  8
0
 10
-1.0
 20
4.0
 30
0.0
 42
-0.4142135623730951
  0
SEQEND
  5
38D
  8
0
  0
POLYLINE
  5
24B
  8
0
 66
     1
 10
0.0
 20
0.0
 30
0.0
 70
     1
  0
VERTEX
  5
38E
  8
0
 10
-12.000000000000229
 20
4.3008226752906458
 30
0.0
  0
VERTEX
  5
38F
  8
0
 10
-12.000000000000229
 20
-2.6991773247093529
 30
0.0
  0
VERTEX
  5
390
  8
0
 10
-17.200000000000038
 20
-2.6991773247093529
 30
0.0
 42
-0.4142135623730951
  0
VERTEX
  5
391
  8
0
 10
-18.200000000000038
 20
-1.6991773247093529
 30
0.0
  0
VERTEX
  5
392
  8
0
 10
-18.200000000000038
 20
4.3008226752906458
 30
0.0
 42
-0.4142135623730951
  0
VERTEX
  5
393
  8
0
 10
-17.200000000000038
 20
5.3008226752906458
 30
0.0
  0
VERTEX
  5
394
  8
0
 10
-13.000000000000229
 20
5.3008226752906458
 30
0.0
 42
-0.4142135623730951
  0
SEQEND
  5
395
  8
0
  0
POLYLINE
  5
24C
  8
0
 66
     1
 10
0.0
 20
0.0
 30
0.0
 70
     1
  0
VERTEX
  5
396
  8
0
 10
18.800000000000178
 20
9.4465402718793712
 30
0.0
  0
VERTEX
  5
397
  8
0
 10
23.0
 20
9.4465402718793712
 30
0.0
 42
-0.4142135623730951
  0
VERTEX
  5
398
  8
0
 10
24.0
 20
8.4465402718793712
 30
0.0
  0
VERTEX
  5
399
  8
0
 10
24.0
 20
2.4465402718793712
 30
0.0
 42
-0.4142135623730951
  0
VERTEX
  5
39A
  8
0
 10
23.0
 20
1.446540271879371
 30
0.0
  0
VERTEX
  5
39B
  8
0
 10
18.800000000000178
 20
1.446540271879371
 30
0.0
 42
-0.4142135623730951
  0
VERTEX
  5
39C
  8
0
 10
17.800000000000178
 20
2.4465402718793712
 30
0.0
  0
VERTEX
  5
39D
  8
0
 10
17.800000000000178
 20
8.4465402718793712
 30
0.0
 42
-0.4142135623730951
  0
SEQEND
  5
39E
  8
0
  0
POLYLINE
  5
24D
  8
0
 66
     1
 10
0.0
 20
0.0
 30
0.0
 70
     1
  0
VERTEX
  5
39F
  8
0
 10
6.8000000000004093
 20
5.3008226752906458
 30
0.0
  0
VERTEX
  5
3A0
  8
0
 10
11.00000000000022
 20
5.3008226752906458
 30
0.0
 42
-0.4142135623730951
  0
VERTEX
  5
3A1
  8
0
 10
12.000000000000229
 20
4.3008226752906458
 30
0.0
  0
VERTEX
  5
3A2
  8
0
 10
12.000000000000229
 20
-1.6991773247093529
 30
0.0
 42
-0.4142135623730951
  0
VERTEX
  5
3A3
  8
0
 10
11.00000000000022
 20
-2.6991773247093529
 30
0.0
  0
VERTEX
  5
3A4
  8
0
 10
6.8000000000004093
 20
-2.6991773247093529
 30
0.0
 42
-0.4142135623730951
  0
VERTEX
  5
3A5
  8
0
 10
5.8000000000004093
 20
-1.6991773247093529
 30
0.0
  0
VERTEX
  5
3A6
  8
0
 10
5.8000000000004093
 20
4.3008226752906458
 30
0.0
 42
-0.4142135623730951
  0
SEQEND
  5
3A7
  8
0
  0
POLYLINE
  5
24E
  8
0
 66
     1
 10
0.0
 20
0.0
 30
0.0
 70
     1
  0
VERTEX
  5
3A8
  8
0
 10
-36.349999999999461
 20
24.5
 30
0.0
 42
-1.0
  0
VERTEX
  5
3A9
  8
0
 10
-39.849999999999461
 20
24.5
 30
0.0
 42
-1.0
  0
SEQEND
  5
3AA
  8
0
  0
POLYLINE
  5
24F
  8
0
 66
     1
 10
0.0
 20
0.0
 30
0.0
 70
     1
  0
VERTEX
  5
3AB
  8
0
 10
33.649999999999643
 20
24.5
 30
0.0
 42
-1.0
  0
VERTEX
  5
3AC
  8
0
 10
30.14999999999964
 20
24.5
 30
0.0
 42
-1.0
  0
SEQEND
  5
3AD
  8
0
  0
POLYLINE
  5
250
  8
0
 66
     1
 10
0.0
 20
0.0
 30
0.0
 70
     1
  0
VERTEX
  5
3AE
  8
0
 10
-34.099999999999909
 20
61.100000000000129
 30
0.0
 42
-1.0
  0
VERTEX
  5
3AF
  8
0
 10
-31.099999999999909
 20
61.100000000000129
 30
0.0
 42
-1.0
  0
SEQEND
  5
3B0
  8
0
  0
POLYLINE
  5
251
  8
0
 66
     1
 10
0.0
 20
0.0
 30
0.0
 70
     1
  0
VERTEX
  5
3B1
  8
0
 10
24.900000000000091
 20
61.100000000000129
 30
0.0
 42
-1.0
  0
VERTEX
  5
3B2
  8
0
 10
27.900000000000091
 20
61.100000000000129
 30
0.0
 42
-1.0
  0
SEQEND
  5
3B3
  8
0
  0
POLYLINE
  5
252
  8
0
 66
     1
 10
0.0
 20
0.0
 30
0.0
 70
     1
  0
VERTEX
  5
3B4
  8
0
 10
-31.099999999999909
 20
42.899999999999977
 30
0.0
 42
-1.0
  0
VERTEX
  5
3B5
  8
0
 10
-34.099999999999909
 20
42.899999999999977
 30
0.0
 42
-1.0
  0
SEQEND
  5
3B6
  8
0
  0
POLYLINE
  5
253
  8
0
 66
     1
 10
0.0
 20
0.0
 30
0.0
 70
     1
  0
VERTEX
  5
3B7
  8
0
 10
27.900000000000091
 20
42.899999999999977
 30
0.0
 42
-1.0
  0
VERTEX
  5
3B8
  8
0
 10
24.900000000000091
 20
42.899999999999977
 30
0.0
 42
-1.0
  0
SEQEND
  5
3B9
  8
0
  0
POLYLINE
  5
254
  8
0
 66
     1
 10
0.0
 20
0.0
 30
0.0
 70
     1
  0
VERTEX
  5
3BA
  8
0
 10
-21.0
 20
65.5
 30
0.0
  0
VERTEX
  5
3BB
  8
0
 10
-24.0
 20
65.5
 30
0.0
 42
-1.0
  0
VERTEX
  5
3BC
  8
0
 10
-24.0
 20
68.5
 30
0.0
  0
VERTEX
  5
3BD
  8
0
 10
-21.0
 20
68.5
 30
0.0
 42
-1.0
  0
SEQEND
  5
3BE
  8
0
  0
POLYLINE
  5
255
  8
0
 66
     1
 10
0.0
 20
0.0
 30
0.0
 70
     1
  0
VERTEX
  5
3BF
  8
0
 10
14.80000000000018
 20
68.5
 30
0.0
  0
VERTEX
  5
3C0
  8
0
 10
17.800000000000178
 20
68.5
 30
0.0
 42
-1.0
  0
VERTEX
  5
3C1
  8
0
 10
17.800000000000178
 20
65.5
 30
0.0
  0
VERTEX
  5
3C2
  8
0
 10
14.80000000000018
 20
65.5
 30
0.0
 42
-1.0
  0
SEQEND
  5
3C3
  8
0
  0
POLYLINE
  5
256
  8
0
 66
     1
 10
0.0
 20
0.0
 30
0.0
 70
     1
  0
VERTEX
  5
3C4
  8
0
 10
33.900000000000091
 20
71.5
 30
0.0
 42
-0.4142135623730959
  0
VERTEX
  5
3C5
  8
0
 10
36.900000000000091
 20
74.5
 30
0.0
  0
VERTEX
  5
3C6
  8
0
 10
47.877936403899412
 20
74.5
 30
0.0
 42
0.5575932466371922
  0
VERTEX
  5
3C7
  8
0
 10
50.560985688315213
 20
78.842105263157919
 30
0.0
 42
0.6179143806533257
  0
VERTEX
  5
3C8
  8
0
 10
-56.760985688315031
 20
78.842105263157919
 30
0.0
 42
0.5575932466371922
  0
VERTEX
  5
3C9
  8
0
 10
-54.07793640389923
 20
74.5
 30
0.0
  0
VERTEX
  5
3CA
  8
0
 10
-43.099999999999902
 20
74.5
 30
0.0
 42
-0.4142135623730948
  0
VERTEX
  5
3CB
  8
0
 10
-40.099999999999902
 20
71.5
 30
0.0
  0
VERTEX
  5
3CC
  8
0
 10
-40.099999999999902
 20
32.499999999999893
 30
0.0
 42
-0.4142135623730971
  0
VERTEX
  5
3CD
  8
0
 10
-43.099999999999902
 20
29.499999999999879
 30
0.0
  0
VERTEX
  5
3CE
  8
0
 10
-54.077936403899002
 20
29.5
 30
0.0
 42
0.5575932466371955
  0
VERTEX
  5
3CF
  8
0
 10
-56.760985688315031
 20
25.157894736842081
 30
0.0
 42
0.6179143806533248
  0
VERTEX
  5
3D0
  8
0
 10
50.560985688315213
 20
25.157894736842081
 30
0.0
 42
0.5575932466371957
  0
VERTEX
  5
3D1
  8
0
 10
47.877936403899412
 20
29.5
 30
0.0
  0
VERTEX
  5
3D2
  8
0
 10
36.900000000000091
 20
29.5
 30
0.0
 42
-0.414213562373097
  0
VERTEX
  5
3D3
  8
0
 10
33.900000000000091
 20
32.5
 30
0.0
  0
SEQEND
  5
3D4
  8
0
  0
ENDBLK
  5
259
  8
0
  0
ENDSEC
  0
SECTION
  2
ENTITIES
  0
POLYLINE
  5
272
  8
0
 66
     1
 10
0.0
 20
0.0
 30
0.0
 70
     1
  0
VERTEX
  5
401
  8
0
 10
1393.083796627305
 20
617.56327853779055
 30
0.0
 42
-1.0
  0
VERTEX
  5
402
  8
0
 10
1389.583796627305
 20
617.56327853779055
 30
0.0
 42
-1.0
  0
SEQEND
  5
403
  8
0
  0
POLYLINE
  5
275
  8
0
 66
     1
 10
0.0
 20
0.0
 30
0.0
 70
     1
  0
VERTEX
  5
404
  8
0
 10
1432.833796627305
 20
668.56327853779055
 30
0.0
 42
-1.0
  0
VERTEX
  5
405
  8
0
 10
1436.333796627305
 20
668.56327853779055
 30
0.0
 42
-1.0
  0
SEQEND
  5
406
  8
0
  0
POLYLINE
  5
276
  8
0
 66
     1
 10
0.0
 20
0.0
 30
0.0
 70
     1
  0
VERTEX
  5
407
  8
0
 10
1421.083796627305
 20
617.56327853779055
 30
0.0
 42
-1.0
  0
VERTEX
  5
408
  8
0
 10
1417.583796627305
 20
617.56327853779055
 30
0.0
 42
-1.0
  0
SEQEND
  5
409
  8
0
  0
POLYLINE
  5
277
  8
0
 66
     1
 10
0.0
 20
0.0
 30
0.0
 70
     1
  0
VERTEX
  5
40A
  8
0
 10
1351.833796627305
 20
653.06327853779055
 30
0.0
 42
1.0
  0
VERTEX
  5
40B
  8
0
 10
1471.8337966273041
 20
653.06327853779055
 30
0.0
 42
1.0
  0
SEQEND
  5
40C
  8
0
  0
POLYLINE
  5
278
  8
0
 66
     1
 10
0.0
 20
0.0
 30
0.0
 70
     1
  0
VERTEX
  5
40D
  8
0
 10
1375.083796627305
 20
680.56327853779055
 30
0.0
 42
-1.0
  0
VERTEX
  5
40E
  8
0
 10
1378.583796627305
 20
680.56327853779055
 30
0.0
 42
-1.0
  0
SEQEND
  5
40F
  8
0
  0
POLYLINE
  5
279
  8
0
 66
     1
 10
0.0
 20
0.0
 30
0.0
 70
     1
  0
VERTEX
  5
410
  8
0
 10
1445.083796627305
 20
680.56327853779055
 30
0.0
 42
-1.0
  0
VERTEX
  5
411
  8
0
 10
1448.5837966273041
 20
680.56327853779055
 30
0.0
 42
-1.0
  0
SEQEND
  5
412
  8
0
  0
POLYLINE
  5
27A
  8
0
 66
     1
 10
0.0
 20
0.0
 30
0.0
 70
     1
  0
VERTEX
  5
413
  8
0
 10
1378.583796627305
 20
625.56327853779067
 30
0.0
 42
-1.0
  0
VERTEX
  5
414
  8
0
 10
1375.083796627305
 20
625.56327853779067
 30
0.0
 42
-1.0
  0
SEQEND
  5
415
  8
0
  0
POLYLINE
  5
27B
  8
0
 66
     1
 10
0.0
 20
0.0
 30
0.0
 70
     1
  0
VERTEX
  5
416
  8
0
 10
1448.5837966273041
 20
625.56327853779067
 30
0.0
 42
-1.0
  0
VERTEX
  5
417
  8
0
 10
1445.0837966273041
 20
625.56327853779067
 30
0.0
 42
-1.0
  0
SEQEND
  5
418
  8
0
  0
POLYLINE
  5
295
  8
0
 66
     1
 10
0.0
 20
0.0
 30
0.0
 70
     1
  0
VERTEX
  5
419
  8
0
 10
1379.333796627305
 20
638.06327853779067
 30
0.0
  0
VERTEX
  5
41A
  8
0
 10
1379.333796627305
 20
668.06327853779067
 30
0.0
 42
0.9999999999999998
  0
VERTEX
  5
41B
  8
0
 10
1374.333796627305
 20
668.06327853779067
 30
0.0
  0
VERTEX
  5
41C
  8
0
 10
1374.333796627305
 20
638.06327853779067
 30
0.0
 42
0.9999999999999998
  0
SEQEND
  5
41D
  8
0
  0
POLYLINE
  5
29A
  8
0
 66
     1
 10
0.0
 20
0.0
 30
0.0
 70
     1
  0
VERTEX
  5
41E
  8
0
 10
1391.833796627305
 20
605.06327853779055
 30
0.0
  0
VERTEX
  5
41F
  8
0
 10
1431.833796627305
 20
605.06327853779055
 30
0.0
 42
1.0
  0
VERTEX
  5
420
  8
0
 10
1431.833796627305
 20
610.06327853779055
 30
0.0
  0
VERTEX
  5
421
  8
0
 10
1391.833796627305
 20
610.06327853779055
 30
0.0
 42
0.9999999999999996
  0
SEQEND
  5
422
  8
0
  0
POLYLINE
  5
29D
  8
0
 66
     1
 10
0.0
 20
0.0
 30
0.0
 70
     1
  0
VERTEX
  5
423
  8
0
 10
1444.3337966273041
 20
668.06327853779067
 30
0.0
  0
VERTEX
  5
424
  8
0
 10
1444.3337966273041
 20
638.06327853779067
 30
0.0
 42
0.9999999999999998
  0
VERTEX
  5
425
  8
0
 10
1449.3337966273041
 20
638.06327853779067
 30
0.0
  0
VERTEX
  5
426
  8
0
 10
1449.3337966273041
 20
668.06327853779067
 30
0.0
 42
0.9999999999999998
  0
SEQEND
  5
427
  8
0
  0
POLYLINE
  5
2A1
  8
0
 66
     1
 10
0.0
 20
0.0
 30
0.0
 70
     1
  0
VERTEX
  5
428
  8
0
 10
1391.833796627305
 20
696.06327853779067
 30
0.0
 42
-0.9999999999999998
  0
VERTEX
  5
429
  8
0
 10
1391.833796627305
 20
701.06327853779055
 30
0.0
  0
VERTEX
  5
42A
  8
0
 10
1431.833796627305
 20
701.06327853779055
 30
0.0
 42
-0.9999999999999998
  0
VERTEX
  5
42B
  8
0
 10
1431.833796627305
 20
696.06327853779067
 30
0.0
  0
SEQEND
  5
42C
  8
0
  0
ENDSEC
  0
EOF
