  0
SECTION
  2
HEADER
  9
$ACADVER
  1
AC1009
  9
$INSBASE
 10
0.0
 20
0.0
 30
0.0
  9
$EXTMIN
 10
907.13968612375174
 20
420.69983358646658
 30
0.0
  9
$EXTMAX
 10
1145.6458361237501
 20
551.43993358646435
 30
0.0
  9
$LIMMIN
 10
0.0
 20
0.0
  9
$LIMMAX
 10
420.0
 20
297.0
  9
$ORTHOMODE
 70
     0
  9
$REGENMODE
 70
     1
  9
$FILLMODE
 70
     1
  9
$QTEXTMODE
 70
     0
  9
$MIRRTEXT
 70
     0
  9
$DRAGMODE
 70
     2
  9
$LTSCALE
 40
1.0
  9
$OSMODE
 70
   695
  9
$ATTMODE
 70
     1
  9
$TEXTSIZE
 40
2.5
  9
$TRACEWID
 40
1.0
  9
$TEXTSTYLE
  7
STANDARD
  9
$CLAYER
  8
0
  9
$CELTYPE
  6
BYLAYER
  9
$CECOLOR
 62
   256
  9
$DIMSCALE
 40
1.0
  9
$DIMASZ
 40
2.5
  9
$DIMEXO
 40
0.625
  9
$DIMDLI
 40
3.75
  9
$DIMRND
 40
0.0
  9
$DIMDLE
 40
0.0
  9
$DIMEXE
 40
1.25
  9
$DIMTP
 40
0.0
  9
$DIMTM
 40
0.0
  9
$DIMTXT
 40
2.5
  9
$DIMCEN
 40
2.5
  9
$DIMTSZ
 40
0.0
  9
$DIMTOL
 70
     0
  9
$DIMLIM
 70
     0
  9
$DIMTIH
 70
     0
  9
$DIMTOH
 70
     0
  9
$DIMSE1
 70
     0
  9
$DIMSE2
 70
     0
  9
$DIMTAD
 70
     1
  9
$DIMZIN
 70
     8
  9
$DIMBLK
  1

  9
$DIMASO
 70
     1
  9
$DIMSHO
 70
     1
  9
$DIMPOST
  1

  9
$DIMAPOST
  1

  9
$DIMALT
 70
     0
  9
$DIMALTD
 70
     3
  9
$DIMALTF
 40
0.03937007874016
  9
$DIMLFAC
 40
1.0
  9
$DIMTOFL
 70
     1
  9
$DIMTVP
 40
0.0
  9
$DIMTIX
 70
     0
  9
$DIMSOXD
 70
     0
  9
$DIMSAH
 70
     0
  9
$DIMBLK1
  1

  9
$DIMBLK2
  1

  9
$DIMSTYLE
  2
ISO-25
  9
$DIMCLRD
 70
     0
  9
$DIMCLRE
 70
     0
  9
$DIMCLRT
 70
     0
  9
$DIMTFAC
 40
1.0
  9
$DIMGAP
 40
0.625
  9
$LUNITS
 70
     2
  9
$LUPREC
 70
     4
  9
$SKETCHINC
 40
1.0
  9
$FILLETRAD
 40
0.0
  9
$AUNITS
 70
     0
  9
$AUPREC
 70
     0
  9
$MENU
  1
.
  9
$ELEVATION
 40
0.0
  9
$PELEVATION
 40
0.0
  9
$THICKNESS
 40
0.0
  9
$LIMCHECK
 70
     0
  9
$BLIPMODE
 70
     0
  9
$CHAMFERA
 40
0.0
  9
$CHAMFERB
 40
0.0
  9
$SKPOLY
 70
     0
  9
$TDCREATE
 40
2457112.721291401
  9
$TDUPDATE
 40
2457112.9125406719
  9
$TDINDWG
 40
0.1912495255
  9
$TDUSRTIMER
 40
0.1912494907
  9
$USRTIMER
 70
     1
  9
$ANGBASE
 50
0.0
  9
$ANGDIR
 70
     0
  9
$PDMODE
 70
     0
  9
$PDSIZE
 40
0.0
  9
$PLINEWID
 40
0.0
  9
$COORDS
 70
     0
  9
$SPLFRAME
 70
     0
  9
$SPLINETYPE
 70
     6
  9
$SPLINESEGS
 70
     8
  9
$ATTDIA
 70
     0
  9
$ATTREQ
 70
     1
  9
$HANDLING
 70
     1
  9
$HANDSEED
  5
77D
  9
$SURFTAB1
 70
     6
  9
$SURFTAB2
 70
     6
  9
$SURFTYPE
 70
     6
  9
$SURFU
 70
     6
  9
$SURFV
 70
     6
  9
$UCSNAME
  2

  9
$UCSORG
 10
0.0
 20
0.0
 30
0.0
  9
$UCSXDIR
 10
1.0
 20
0.0
 30
0.0
  9
$UCSYDIR
 10
0.0
 20
1.0
 30
0.0
  9
$PUCSNAME
  2

  9
$PUCSORG
 10
0.0
 20
0.0
 30
0.0
  9
$PUCSXDIR
 10
1.0
 20
0.0
 30
0.0
  9
$PUCSYDIR
 10
0.0
 20
1.0
 30
0.0
  9
$USERI1
 70
     0
  9
$USERI2
 70
     0
  9
$USERI3
 70
     0
  9
$USERI4
 70
     0
  9
$USERI5
 70
     0
  9
$USERR1
 40
0.0
  9
$USERR2
 40
0.0
  9
$USERR3
 40
0.0
  9
$USERR4
 40
0.0
  9
$USERR5
 40
0.0
  9
$WORLDVIEW
 70
     1
  9
$SHADEDGE
 70
     3
  9
$SHADEDIF
 70
    70
  9
$TILEMODE
 70
     1
  9
$MAXACTVP
 70
    64
  9
$PLIMCHECK
 70
     0
  9
$PEXTMIN
 10
0.0
 20
0.0
 30
0.0
  9
$PEXTMAX
 10
0.0
 20
0.0
 30
0.0
  9
$PLIMMIN
 10
0.0
 20
0.0
  9
$PLIMMAX
 10
12.0
 20
9.0
  9
$UNITMODE
 70
     0
  9
$VISRETAIN
 70
     1
  9
$PLINEGEN
 70
     0
  9
$PSLTSCALE
 70
     1
  0
ENDSEC
  0
SECTION
  2
TABLES
  0
TABLE
  2
VPORT
 70
     1
  0
VPORT
  2
*ACTIVE
 70
     0
 10
0.0
 20
0.0
 11
1.0
 21
1.0
 12
958.26916105565533
 22
490.80298962513092
 13
0.0
 23
0.0
 14
10.0
 24
10.0
 15
10.0
 25
10.0
 16
0.0
 26
0.0
 36
1.0
 17
0.0
 27
0.0
 37
0.0
 40
217.70306748924861
 41
1.4778254649499281
 42
50.0
 43
0.0
 44
0.0
 50
0.0
 51
0.0
 71
     0
 72
  1000
 73
     1
 74
     3
 75
     0
 76
     1
 77
     0
 78
     0
  0
ENDTAB
  0
TABLE
  2
LTYPE
 70
     1
  0
LTYPE
  2
CONTINUOUS
 70
     0
  3
Solid line
 72
    65
 73
     0
 40
0.0
  0
ENDTAB
  0
TABLE
  2
LAYER
 70
     1
  0
LAYER
  2
0
 70
     0
 62
     7
  6
CONTINUOUS
  0
ENDTAB
  0
TABLE
  2
STYLE
 70
     2
  0
STYLE
  2
STANDARD
 70
     0
 40
0.0
 41
1.0
 50
0.0
 71
     0
 42
2.5
  3
txt
  4

  0
STYLE
  2
ANNOTATIVE
 70
     0
 40
0.0
 41
1.0
 50
0.0
 71
     0
 42
2.5
  3
txt
  4

  0
ENDTAB
  0
TABLE
  2
VIEW
 70
     0
  0
ENDTAB
  0
TABLE
  2
UCS
 70
     0
  0
ENDTAB
  0
TABLE
  2
APPID
 70
     9
  0
APPID
  2
ACAD
 70
     0
  0
APPID
  2
ACAD_PSEXT
 70
     0
  0
APPID
  2
ACADANNOPO
 70
     0
  0
APPID
  2
ACADANNOTATIVE
 70
     0
  0
APPID
  2
ACAD_DSTYLE_DIMJAG
 70
     0
  0
APPID
  2
ACAD_DSTYLE_DIMTALN
 70
     0
  0
APPID
  2
ACAD_MLEADERVER
 70
     0
  0
APPID
  2
ACAD_NAV_VCDISPLAY
 70
     0
  0
APPID
  2
ACAD_DSTYLE_DIMRADIAL_EXTENSION
 70
     0
  0
ENDTAB
  0
TABLE
  2
DIMSTYLE
 70
     3
  0
DIMSTYLE
  2
STANDARD
 70
     0
  3

  4

  5

  6

  7

 40
1.0
 41
0.18
 42
0.0625
 43
0.38
 44
0.18
 45
0.0
 46
0.0
 47
0.0
 48
0.0
140
0.18
141
0.09
142
0.0
143
25.399999999999999
144
1.0
145
0.0
146
1.0
147
0.09
 71
     0
 72
     0
 73
     1
 74
     1
 75
     0
 76
     0
 77
     0
 78
     0
170
     0
171
     2
172
     0
173
     0
174
     0
175
     0
176
     0
177
     0
178
     0
  0
DIMSTYLE
  2
ANNOTATIVE
 70
     0
  3

  4

  5

  6

  7

 40
0.0
 41
2.5
 42
0.625
 43
3.75
 44
1.25
 45
0.0
 46
0.0
 47
0.0
 48
0.0
140
2.5
141
2.5
142
0.0
143
0.03937007874016
144
1.0
145
0.0
146
1.0
147
0.625
 71
     0
 72
     0
 73
     0
 74
     0
 75
     0
 76
     0
 77
     1
 78
     8
170
     0
171
     3
172
     1
173
     0
174
     0
175
     0
176
     0
177
     0
178
     0
  0
DIMSTYLE
  2
ISO-25
 70
     0
  3

  4

  5

  6

  7

 40
1.0
 41
2.5
 42
0.625
 43
3.75
 44
1.25
 45
0.0
 46
0.0
 47
0.0
 48
0.0
140
2.5
141
2.5
142
0.0
143
0.03937007874016
144
1.0
145
0.0
146
1.0
147
0.625
 71
     0
 72
     0
 73
     0
 74
     0
 75
     0
 76
     0
 77
     1
 78
     8
170
     0
171
     3
172
     1
173
     0
174
     0
175
     0
176
     0
177
     0
178
     0
  0
ENDTAB
  0
ENDSEC
  0
SECTION
  2
BLOCKS
  0
BLOCK
  8
0
  2
$MODEL_SPACE
 70
     0
 10
0.0
 20
0.0
 30
0.0
  3
$MODEL_SPACE
  1

  0
ENDBLK
  5
21
  8
0
  0
BLOCK
 67
     1
  8
0
  2
$PAPER_SPACE
 70
     0
 10
0.0
 20
0.0
 30
0.0
  3
$PAPER_SPACE
  1

  0
ENDBLK
  5
D5
 67
     1
  8
0
  0
ENDSEC
  0
SECTION
  2
ENTITIES
  0
POLYLINE
  5
220
  8
0
 66
     1
 10
0.0
 20
0.0
 30
0.0
 70
     1
  0
VERTEX
  5
74C
  8
0
 10
908.63968612375186
 20
538.46588358646716
 30
0.0
 42
0.4142135623730951
  0
VERTEX
  5
74D
  8
0
 10
907.13968612375174
 20
536.96588358646795
 30
0.0
  0
VERTEX
  5
74E
  8
0
 10
907.13968612375174
 20
422.19983358646658
 30
0.0
 42
0.4142135623730951
  0
VERTEX
  5
74F
  8
0
 10
908.63968612375186
 20
420.69983358646658
 30
0.0
  0
VERTEX
  5
750
  8
0
 10
1036.379786123749
 20
420.69983358646658
 30
0.0
 42
0.4142135623730951
  0
VERTEX
  5
751
  8
0
 10
1037.879786123749
 20
422.19983358646658
 30
0.0
  0
VERTEX
  5
752
  8
0
 10
1037.879786123749
 20
536.96588358646795
 30
0.0
 42
0.4142135623730951
  0
VERTEX
  5
753
  8
0
 10
1036.379786123749
 20
538.46588358646716
 30
0.0
  0
SEQEND
  5
754
  8
0
  0
POLYLINE
  5
228
  8
0
 66
     1
 10
0.0
 20
0.0
 30
0.0
 70
     1
  0
VERTEX
  5
755
  8
0
 10
930.93407444449019
 20
497.74983358646682
 30
0.0
  0
VERTEX
  5
756
  8
0
 10
928.08407444449028
 20
495.29983358646649
 30
0.0
  0
VERTEX
  5
757
  8
0
 10
916.89755408939561
 20
495.29983358646649
 30
0.0
  0
VERTEX
  5
758
  8
0
 10
915.28968612375184
 20
493.69196562082311
 30
0.0
  0
VERTEX
  5
759
  8
0
 10
915.28968612375184
 20
428.84983358646667
 30
0.0
  0
VERTEX
  5
75A
  8
0
 10
969.08968612375145
 20
428.84983358646667
 30
0.0
  0
VERTEX
  5
75B
  8
0
 10
969.08968612375145
 20
495.29983358646649
 30
0.0
  0
VERTEX
  5
75C
  8
0
 10
966.46163927658586
 20
495.29983358646649
 30
0.0
  0
VERTEX
  5
75D
  8
0
 10
964.00163927658593
 20
497.74983358646682
 30
0.0
  0
SEQEND
  5
75E
  8
0
  0
POLYLINE
  5
22A
  8
0
 66
     1
 10
0.0
 20
0.0
 30
0.0
 70
     1
  0
VERTEX
  5
75F
  8
0
 10
974.82978612375075
 20
511.44983358646772
 30
0.0
  0
VERTEX
  5
760
  8
0
 10
974.82978612375075
 20
499.48980846068088
 30
0.0
 42
-0.3851703882144806
  0
VERTEX
  5
761
  8
0
 10
974.06478612375008
 20
498.6440691391378
 30
0.0
 42
0.9045340337324139
  0
VERTEX
  5
762
  8
0
 10
974.06478612375054
 20
496.35559803379402
 30
0.0
 42
-0.3851703882144257
  0
VERTEX
  5
763
  8
0
 10
974.82978612375075
 20
495.50985871225271
 30
0.0
  0
VERTEX
  5
764
  8
0
 10
974.82978612375075
 20
444.7898084606806
 30
0.0
 42
-0.3851703882145233
  0
VERTEX
  5
765
  8
0
 10
974.06478612375065
 20
443.94406913913889
 30
0.0
 42
0.904534033732101
  0
VERTEX
  5
766
  8
0
 10
974.06478612375008
 20
441.65559803379512
 30
0.0
 42
-0.3851703882143441
  0
VERTEX
  5
767
  8
0
 10
974.82978612374916
 20
440.80985871225403
 30
0.0
  0
VERTEX
  5
768
  8
0
 10
974.82978612375075
 20
428.84983358646667
 30
0.0
  0
VERTEX
  5
769
  8
0
 10
977.47978612374925
 20
428.84983358646667
 30
0.0
 42
-0.4142135623732556
  0
VERTEX
  5
76A
  8
0
 10
978.32978612375075
 20
427.99983358646608
 30
0.0
 42
0.4142135623728605
  0
VERTEX
  5
76B
  8
0
 10
979.47978612374868
 20
426.84983358646622
 30
0.0
 42
0.4142135623731356
  0
VERTEX
  5
76C
  8
0
 10
980.62978612375059
 20
427.99983358646801
 30
0.0
 42
-0.4142135623731381
  0
VERTEX
  5
76D
  8
0
 10
981.47978612374936
 20
428.8498335864665
 30
0.0
  0
VERTEX
  5
76E
  8
0
 10
981.97978612374925
 20
428.84983358646667
 30
0.0
  0
VERTEX
  5
76F
  8
0
 10
1000.27978612375
 20
428.84983358646667
 30
0.0
 42
-0.4142135623733144
  0
VERTEX
  5
770
  8
0
 10
1001.12978612375
 20
427.99983358646722
 30
0.0
 42
0.4142135623729184
  0
VERTEX
  5
771
  8
0
 10
1002.27978612375
 20
426.84983358646599
 30
0.0
 42
0.4142135623729618
  0
VERTEX
  5
772
  8
0
 10
1003.429786123749
 20
427.99983358646722
 30
0.0
 42
-0.4142135623731578
  0
VERTEX
  5
773
  8
0
 10
1004.27978612375
 20
428.84983358646667
 30
0.0
  0
VERTEX
  5
774
  8
0
 10
1022.579786123749
 20
428.84983358646667
 30
0.0
  0
VERTEX
  5
775
  8
0
 10
1023.079786123749
 20
428.84983358646667
 30
0.0
 42
-0.4142135623732361
  0
VERTEX
  5
776
  8
0
 10
1023.92978612375
 20
427.99983358646813
 30
0.0
 42
0.4142135623731066
  0
VERTEX
  5
777
  8
0
 10
1025.079786123749
 20
426.84983358646622
 30
0.0
 42
0.4142135623729909
  0
VERTEX
  5
778
  8
0
 10
1026.2297861237489
 20
427.99983358646801
 30
0.0
 42
-0.4142135623731381
  0
VERTEX
  5
779
  8
0
 10
1027.079786123749
 20
428.8498335864665
 30
0.0
  0
VERTEX
  5
77A
  8
0
 10
1029.7297861237489
 20
428.84983358646667
 30
0.0
  0
VERTEX
  5
77B
  8
0
 10
1029.7297861237489
 20
511.44983358646772
 30
0.0
  0
SEQEND
  5
77C
  8
0
  0
CIRCLE
  5
4D9
  8
0
 10
912.13968612375186
 20
533.46588358646716
 30
0.0
 40
1.6000000000000001
  0
CIRCLE
  5
4DA
  8
0
 10
1032.879786123749
 20
533.46588358646716
 30
0.0
 40
1.6000000000000001
  0
CIRCLE
  5
4DB
  8
0
 10
1032.879786123749
 20
425.69983358646658
 30
0.0
 40
1.6000000000000001
  0
CIRCLE
  5
4DC
  8
0
 10
912.13968612375186
 20
425.69983358646658
 30
0.0
 40
1.6000000000000001
  0
ENDSEC
  0
EOF
