  0
SECTION
  2
HEADER
  9
$ACADVER
  1
AC1009
  9
$INSBASE
 10
0.0
 20
0.0
 30
0.0
  9
$EXTMIN
 10
1177.0814206735599
 20
379.67467333051218
 30
0.0
  9
$EXTMAX
 10
1630.0348168299979
 20
582.86441951674215
 30
0.0
  9
$LIMMIN
 10
0.0
 20
0.0
  9
$LIMMAX
 10
420.0
 20
297.0
  9
$ORTHOMODE
 70
     0
  9
$REGENMODE
 70
     1
  9
$FILLMODE
 70
     1
  9
$QTEXTMODE
 70
     0
  9
$MIRRTEXT
 70
     0
  9
$DRAGMODE
 70
     2
  9
$LTSCALE
 40
1.0
  9
$OSMODE
 70
   695
  9
$ATTMODE
 70
     1
  9
$TEXTSIZE
 40
2.5
  9
$TRACEWID
 40
1.0
  9
$TEXTSTYLE
  7
STANDARD
  9
$CLAYER
  8
0
  9
$CELTYPE
  6
BYLAYER
  9
$CECOLOR
 62
   256
  9
$DIMSCALE
 40
1.0
  9
$DIMASZ
 40
2.5
  9
$DIMEXO
 40
0.625
  9
$DIMDLI
 40
3.75
  9
$DIMRND
 40
0.0
  9
$DIMDLE
 40
0.0
  9
$DIMEXE
 40
1.25
  9
$DIMTP
 40
0.0
  9
$DIMTM
 40
0.0
  9
$DIMTXT
 40
2.5
  9
$DIMCEN
 40
2.5
  9
$DIMTSZ
 40
0.0
  9
$DIMTOL
 70
     0
  9
$DIMLIM
 70
     0
  9
$DIMTIH
 70
     0
  9
$DIMTOH
 70
     0
  9
$DIMSE1
 70
     0
  9
$DIMSE2
 70
     0
  9
$DIMTAD
 70
     1
  9
$DIMZIN
 70
     8
  9
$DIMBLK
  1

  9
$DIMASO
 70
     1
  9
$DIMSHO
 70
     1
  9
$DIMPOST
  1

  9
$DIMAPOST
  1

  9
$DIMALT
 70
     0
  9
$DIMALTD
 70
     3
  9
$DIMALTF
 40
0.03937007874016
  9
$DIMLFAC
 40
1.0
  9
$DIMTOFL
 70
     1
  9
$DIMTVP
 40
0.0
  9
$DIMTIX
 70
     0
  9
$DIMSOXD
 70
     0
  9
$DIMSAH
 70
     0
  9
$DIMBLK1
  1

  9
$DIMBLK2
  1

  9
$DIMSTYLE
  2
ISO-25
  9
$DIMCLRD
 70
     0
  9
$DIMCLRE
 70
     0
  9
$DIMCLRT
 70
     0
  9
$DIMTFAC
 40
1.0
  9
$DIMGAP
 40
0.625
  9
$LUNITS
 70
     2
  9
$LUPREC
 70
     4
  9
$SKETCHINC
 40
1.0
  9
$FILLETRAD
 40
0.0
  9
$AUNITS
 70
     0
  9
$AUPREC
 70
     0
  9
$MENU
  1
.
  9
$ELEVATION
 40
0.0
  9
$PELEVATION
 40
0.0
  9
$THICKNESS
 40
0.0
  9
$LIMCHECK
 70
     0
  9
$BLIPMODE
 70
     0
  9
$CHAMFERA
 40
0.0
  9
$CHAMFERB
 40
0.0
  9
$SKPOLY
 70
     0
  9
$TDCREATE
 40
2457112.840990359
  9
$TDUPDATE
 40
2457112.9122069208
  9
$TDINDWG
 40
0.0712168866
  9
$TDUSRTIMER
 40
0.0712168287
  9
$USRTIMER
 70
     1
  9
$ANGBASE
 50
0.0
  9
$ANGDIR
 70
     0
  9
$PDMODE
 70
     0
  9
$PDSIZE
 40
0.0
  9
$PLINEWID
 40
0.0
  9
$COORDS
 70
     0
  9
$SPLFRAME
 70
     0
  9
$SPLINETYPE
 70
     6
  9
$SPLINESEGS
 70
     8
  9
$ATTDIA
 70
     0
  9
$ATTREQ
 70
     1
  9
$HANDLING
 70
     1
  9
$HANDSEED
  5
49F
  9
$SURFTAB1
 70
     6
  9
$SURFTAB2
 70
     6
  9
$SURFTYPE
 70
     6
  9
$SURFU
 70
     6
  9
$SURFV
 70
     6
  9
$UCSNAME
  2

  9
$UCSORG
 10
0.0
 20
0.0
 30
0.0
  9
$UCSXDIR
 10
1.0
 20
0.0
 30
0.0
  9
$UCSYDIR
 10
0.0
 20
1.0
 30
0.0
  9
$PUCSNAME
  2

  9
$PUCSORG
 10
0.0
 20
0.0
 30
0.0
  9
$PUCSXDIR
 10
1.0
 20
0.0
 30
0.0
  9
$PUCSYDIR
 10
0.0
 20
1.0
 30
0.0
  9
$USERI1
 70
     0
  9
$USERI2
 70
     0
  9
$USERI3
 70
     0
  9
$USERI4
 70
     0
  9
$USERI5
 70
     0
  9
$USERR1
 40
0.0
  9
$USERR2
 40
0.0
  9
$USERR3
 40
0.0
  9
$USERR4
 40
0.0
  9
$USERR5
 40
0.0
  9
$WORLDVIEW
 70
     1
  9
$SHADEDGE
 70
     3
  9
$SHADEDIF
 70
    70
  9
$TILEMODE
 70
     1
  9
$MAXACTVP
 70
    64
  9
$PLIMCHECK
 70
     0
  9
$PEXTMIN
 10
0.0
 20
0.0
 30
0.0
  9
$PEXTMAX
 10
0.0
 20
0.0
 30
0.0
  9
$PLIMMIN
 10
0.0
 20
0.0
  9
$PLIMMAX
 10
12.0
 20
9.0
  9
$UNITMODE
 70
     0
  9
$VISRETAIN
 70
     1
  9
$PLINEGEN
 70
     0
  9
$PSLTSCALE
 70
     1
  0
ENDSEC
  0
SECTION
  2
TABLES
  0
TABLE
  2
VPORT
 70
     1
  0
VPORT
  2
*ACTIVE
 70
     0
 10
0.0
 20
0.0
 11
1.0
 21
1.0
 12
1172.8506910520009
 22
465.54069628053981
 13
0.0
 23
0.0
 14
10.0
 24
10.0
 15
10.0
 25
10.0
 16
0.0
 26
0.0
 36
1.0
 17
0.0
 27
0.0
 37
0.0
 40
292.9282882523583
 41
1.4778254649499281
 42
50.0
 43
0.0
 44
0.0
 50
0.0
 51
0.0
 71
     0
 72
  1000
 73
     1
 74
     3
 75
     0
 76
     1
 77
     0
 78
     0
  0
ENDTAB
  0
TABLE
  2
LTYPE
 70
     1
  0
LTYPE
  2
CONTINUOUS
 70
     0
  3
Solid line
 72
    65
 73
     0
 40
0.0
  0
ENDTAB
  0
TABLE
  2
LAYER
 70
     1
  0
LAYER
  2
0
 70
     0
 62
     7
  6
CONTINUOUS
  0
ENDTAB
  0
TABLE
  2
STYLE
 70
     2
  0
STYLE
  2
STANDARD
 70
     0
 40
0.0
 41
1.0
 50
0.0
 71
     0
 42
2.5
  3
txt
  4

  0
STYLE
  2
ANNOTATIVE
 70
     0
 40
0.0
 41
1.0
 50
0.0
 71
     0
 42
2.5
  3
txt
  4

  0
ENDTAB
  0
TABLE
  2
VIEW
 70
     0
  0
ENDTAB
  0
TABLE
  2
UCS
 70
     0
  0
ENDTAB
  0
TABLE
  2
APPID
 70
     8
  0
APPID
  2
ACAD
 70
     0
  0
APPID
  2
ACAD_PSEXT
 70
     0
  0
APPID
  2
ACADANNOPO
 70
     0
  0
APPID
  2
ACADANNOTATIVE
 70
     0
  0
APPID
  2
ACAD_DSTYLE_DIMJAG
 70
     0
  0
APPID
  2
ACAD_DSTYLE_DIMTALN
 70
     0
  0
APPID
  2
ACAD_MLEADERVER
 70
     0
  0
APPID
  2
ACAD_NAV_VCDISPLAY
 70
     0
  0
ENDTAB
  0
TABLE
  2
DIMSTYLE
 70
     3
  0
DIMSTYLE
  2
STANDARD
 70
     0
  3

  4

  5

  6

  7

 40
1.0
 41
0.18
 42
0.0625
 43
0.38
 44
0.18
 45
0.0
 46
0.0
 47
0.0
 48
0.0
140
0.18
141
0.09
142
0.0
143
25.399999999999999
144
1.0
145
0.0
146
1.0
147
0.09
 71
     0
 72
     0
 73
     1
 74
     1
 75
     0
 76
     0
 77
     0
 78
     0
170
     0
171
     2
172
     0
173
     0
174
     0
175
     0
176
     0
177
     0
178
     0
  0
DIMSTYLE
  2
ANNOTATIVE
 70
     0
  3

  4

  5

  6

  7

 40
0.0
 41
2.5
 42
0.625
 43
3.75
 44
1.25
 45
0.0
 46
0.0
 47
0.0
 48
0.0
140
2.5
141
2.5
142
0.0
143
0.03937007874016
144
1.0
145
0.0
146
1.0
147
0.625
 71
     0
 72
     0
 73
     0
 74
     0
 75
     0
 76
     0
 77
     1
 78
     8
170
     0
171
     3
172
     1
173
     0
174
     0
175
     0
176
     0
177
     0
178
     0
  0
DIMSTYLE
  2
ISO-25
 70
     0
  3

  4

  5

  6

  7

 40
1.0
 41
2.5
 42
0.625
 43
3.75
 44
1.25
 45
0.0
 46
0.0
 47
0.0
 48
0.0
140
2.5
141
2.5
142
0.0
143
0.03937007874016
144
1.0
145
0.0
146
1.0
147
0.625
 71
     0
 72
     0
 73
     0
 74
     0
 75
     0
 76
     0
 77
     1
 78
     8
170
     0
171
     3
172
     1
173
     0
174
     0
175
     0
176
     0
177
     0
178
     0
  0
ENDTAB
  0
ENDSEC
  0
SECTION
  2
BLOCKS
  0
BLOCK
  8
0
  2
$MODEL_SPACE
 70
     0
 10
0.0
 20
0.0
 30
0.0
  3
$MODEL_SPACE
  1

  0
ENDBLK
  5
21
  8
0
  0
BLOCK
 67
     1
  8
0
  2
$PAPER_SPACE
 70
     0
 10
0.0
 20
0.0
 30
0.0
  3
$PAPER_SPACE
  1

  0
ENDBLK
  5
D5
 67
     1
  8
0
  0
ENDSEC
  0
SECTION
  2
ENTITIES
  0
POLYLINE
  5
222
  8
0
 66
     1
 10
0.0
 20
0.0
 30
0.0
 70
     1
  0
VERTEX
  5
453
  8
0
 10
1178.5814206735599
 20
532.12101090022327
 30
0.0
 42
0.4142135623730951
  0
VERTEX
  5
454
  8
0
 10
1177.0814206735599
 20
530.62101090022406
 30
0.0
  0
VERTEX
  5
455
  8
0
 10
1177.0814206735599
 20
415.85496090022269
 30
0.0
 42
0.4142135623730951
  0
VERTEX
  5
456
  8
0
 10
1178.5814206735599
 20
414.35496090022269
 30
0.0
  0
VERTEX
  5
457
  8
0
 10
1306.3215206735581
 20
414.35496090022269
 30
0.0
 42
0.4142135623730951
  0
VERTEX
  5
458
  8
0
 10
1307.8215206735581
 20
415.85496090022269
 30
0.0
  0
VERTEX
  5
459
  8
0
 10
1307.8215206735581
 20
530.62101090022406
 30
0.0
 42
0.4142135623730951
  0
VERTEX
  5
45A
  8
0
 10
1306.3215206735581
 20
532.12101090022327
 30
0.0
  0
SEQEND
  5
45B
  8
0
  0
POLYLINE
  5
223
  8
0
 66
     1
 10
0.0
 20
0.0
 30
0.0
 70
     1
  0
VERTEX
  5
45C
  8
0
 10
1200.8758089942989
 20
491.40496090022287
 30
0.0
  0
VERTEX
  5
45D
  8
0
 10
1198.025808994299
 20
488.95496090022272
 30
0.0
  0
VERTEX
  5
45E
  8
0
 10
1186.8392886392039
 20
488.95496090022272
 30
0.0
  0
VERTEX
  5
45F
  8
0
 10
1185.23142067356
 20
487.34709293457922
 30
0.0
  0
VERTEX
  5
460
  8
0
 10
1185.23142067356
 20
422.50496090022278
 30
0.0
  0
VERTEX
  5
461
  8
0
 10
1239.03142067356
 20
422.50496090022278
 30
0.0
  0
VERTEX
  5
462
  8
0
 10
1239.03142067356
 20
488.95496090022272
 30
0.0
  0
VERTEX
  5
463
  8
0
 10
1236.403373826395
 20
488.95496090022272
 30
0.0
  0
VERTEX
  5
464
  8
0
 10
1233.943373826394
 20
491.40496090022287
 30
0.0
  0
SEQEND
  5
465
  8
0
  0
POLYLINE
  5
224
  8
0
 66
     1
 10
0.0
 20
0.0
 30
0.0
 70
     1
  0
VERTEX
  5
466
  8
0
 10
1244.7715206735591
 20
505.10496090022377
 30
0.0
  0
VERTEX
  5
467
  8
0
 10
1244.7715206735591
 20
493.14493577443699
 30
0.0
 42
-0.3851703882144806
  0
VERTEX
  5
468
  8
0
 10
1244.006520673559
 20
492.29919645289391
 30
0.0
 42
0.9045340337324139
  0
VERTEX
  5
469
  8
0
 10
1244.006520673559
 20
490.01072534755008
 30
0.0
 42
-0.3851703882144257
  0
VERTEX
  5
46A
  8
0
 10
1244.7715206735591
 20
489.16498602600882
 30
0.0
  0
VERTEX
  5
46B
  8
0
 10
1244.7715206735591
 20
438.44493577443671
 30
0.0
 42
-0.3851703882145233
  0
VERTEX
  5
46C
  8
0
 10
1244.006520673559
 20
437.599196452895
 30
0.0
 42
0.904534033732101
  0
VERTEX
  5
46D
  8
0
 10
1244.006520673559
 20
435.31072534755123
 30
0.0
 42
-0.3851703882143441
  0
VERTEX
  5
46E
  8
0
 10
1244.7715206735579
 20
434.46498602601008
 30
0.0
  0
VERTEX
  5
46F
  8
0
 10
1244.7715206735591
 20
422.50496090022278
 30
0.0
  0
VERTEX
  5
470
  8
0
 10
1247.421520673558
 20
422.50496090022278
 30
0.0
 42
-0.4142135623732556
  0
VERTEX
  5
471
  8
0
 10
1248.2715206735591
 20
421.65496090022219
 30
0.0
 42
0.4142135623728605
  0
VERTEX
  5
472
  8
0
 10
1249.4215206735571
 20
420.50496090022227
 30
0.0
 42
0.4142135623731356
  0
VERTEX
  5
473
  8
0
 10
1250.571520673559
 20
421.65496090022413
 30
0.0
 42
-0.4142135623731381
  0
VERTEX
  5
474
  8
0
 10
1251.421520673558
 20
422.5049609002225
 30
0.0
  0
VERTEX
  5
475
  8
0
 10
1251.921520673558
 20
422.50496090022278
 30
0.0
  0
VERTEX
  5
476
  8
0
 10
1270.221520673558
 20
422.50496090022278
 30
0.0
 42
-0.4142135623733144
  0
VERTEX
  5
477
  8
0
 10
1271.071520673559
 20
421.65496090022339
 30
0.0
 42
0.4142135623729184
  0
VERTEX
  5
478
  8
0
 10
1272.221520673558
 20
420.5049609002221
 30
0.0
 42
0.4142135623729618
  0
VERTEX
  5
479
  8
0
 10
1273.3715206735581
 20
421.65496090022339
 30
0.0
 42
-0.4142135623731578
  0
VERTEX
  5
47A
  8
0
 10
1274.221520673558
 20
422.50496090022278
 30
0.0
  0
VERTEX
  5
47B
  8
0
 10
1292.5215206735579
 20
422.50496090022278
 30
0.0
  0
VERTEX
  5
47C
  8
0
 10
1293.0215206735579
 20
422.50496090022278
 30
0.0
 42
-0.4142135623732361
  0
VERTEX
  5
47D
  8
0
 10
1293.8715206735581
 20
421.65496090022418
 30
0.0
 42
0.4142135623731066
  0
VERTEX
  5
47E
  8
0
 10
1295.0215206735579
 20
420.50496090022227
 30
0.0
 42
0.4142135623729909
  0
VERTEX
  5
47F
  8
0
 10
1296.171520673558
 20
421.65496090022413
 30
0.0
 42
-0.4142135623731381
  0
VERTEX
  5
480
  8
0
 10
1297.0215206735579
 20
422.5049609002225
 30
0.0
  0
VERTEX
  5
481
  8
0
 10
1299.671520673558
 20
422.50496090022278
 30
0.0
  0
VERTEX
  5
482
  8
0
 10
1299.671520673558
 20
505.10496090022377
 30
0.0
  0
SEQEND
  5
483
  8
0
  0
CIRCLE
  5
225
  8
0
 10
1182.0814206735599
 20
527.12101090022327
 30
0.0
 40
1.6000000000000001
  0
CIRCLE
  5
226
  8
0
 10
1302.8215206735581
 20
527.12101090022327
 30
0.0
 40
1.6000000000000001
  0
CIRCLE
  5
227
  8
0
 10
1302.8215206735581
 20
419.35496090022269
 30
0.0
 40
1.6000000000000001
  0
CIRCLE
  5
228
  8
0
 10
1182.0814206735599
 20
419.35496090022269
 30
0.0
 40
1.6000000000000001
  0
POLYLINE
  5
236
  8
0
 66
     1
 10
0.0
 20
0.0
 30
0.0
 70
     1
  0
VERTEX
  5
496
  8
0
 10
1229.4214206735601
 20
489.15496090022287
 30
0.0
 42
-1.0
  0
VERTEX
  5
497
  8
0
 10
1232.9214206735601
 20
489.15496090022287
 30
0.0
 42
-1.0
  0
SEQEND
  5
498
  8
0
  0
POLYLINE
  5
237
  8
0
 66
     1
 10
0.0
 20
0.0
 30
0.0
 70
     1
  0
VERTEX
  5
499
  8
0
 10
1201.4214206735601
 20
489.15496090022287
 30
0.0
 42
-1.0
  0
VERTEX
  5
49A
  8
0
 10
1204.9214206735601
 20
489.15496090022287
 30
0.0
 42
-1.0
  0
SEQEND
  5
49B
  8
0
  0
POLYLINE
  5
238
  8
0
 66
     1
 10
0.0
 20
0.0
 30
0.0
 70
     1
  0
VERTEX
  5
49C
  8
0
 10
1189.6714206735601
 20
438.15496090022287
 30
0.0
 42
-1.0
  0
VERTEX
  5
49D
  8
0
 10
1186.1714206735601
 20
438.15496090022287
 30
0.0
 42
-1.0
  0
SEQEND
  5
49E
  8
0
  0
CIRCLE
  5
243
  8
0
 10
1236.1814206735601
 20
437.08496090022288
 30
0.0
 40
1.6000000000000001
  0
ENDSEC
  0
EOF
