  0
SECTION
  2
HEADER
  9
$ACADVER
  1
AC1009
  9
$INSBASE
 10
0.0
 20
0.0
 30
0.0
  9
$EXTMIN
 10
1003.376894648154
 20
349.98487556691578
 30
0.0
  9
$EXTMAX
 10
1451.5547982710709
 20
506.81236966149822
 30
0.0
  9
$LIMMIN
 10
0.0
 20
0.0
  9
$LIMMAX
 10
420.0
 20
297.0
  9
$ORTHOMODE
 70
     0
  9
$REGENMODE
 70
     1
  9
$FILLMODE
 70
     1
  9
$QTEXTMODE
 70
     0
  9
$MIRRTEXT
 70
     0
  9
$DRAGMODE
 70
     2
  9
$LTSCALE
 40
1.0
  9
$OSMODE
 70
   695
  9
$ATTMODE
 70
     1
  9
$TEXTSIZE
 40
2.5
  9
$TRACEWID
 40
1.0
  9
$TEXTSTYLE
  7
STANDARD
  9
$CLAYER
  8
0
  9
$CELTYPE
  6
BYLAYER
  9
$CECOLOR
 62
   256
  9
$DIMSCALE
 40
1.0
  9
$DIMASZ
 40
2.5
  9
$DIMEXO
 40
0.625
  9
$DIMDLI
 40
3.75
  9
$DIMRND
 40
0.0
  9
$DIMDLE
 40
0.0
  9
$DIMEXE
 40
1.25
  9
$DIMTP
 40
0.0
  9
$DIMTM
 40
0.0
  9
$DIMTXT
 40
2.5
  9
$DIMCEN
 40
2.5
  9
$DIMTSZ
 40
0.0
  9
$DIMTOL
 70
     0
  9
$DIMLIM
 70
     0
  9
$DIMTIH
 70
     0
  9
$DIMTOH
 70
     0
  9
$DIMSE1
 70
     0
  9
$DIMSE2
 70
     0
  9
$DIMTAD
 70
     1
  9
$DIMZIN
 70
     8
  9
$DIMBLK
  1

  9
$DIMASO
 70
     1
  9
$DIMSHO
 70
     1
  9
$DIMPOST
  1

  9
$DIMAPOST
  1

  9
$DIMALT
 70
     0
  9
$DIMALTD
 70
     3
  9
$DIMALTF
 40
0.03937007874016
  9
$DIMLFAC
 40
1.0
  9
$DIMTOFL
 70
     1
  9
$DIMTVP
 40
0.0
  9
$DIMTIX
 70
     0
  9
$DIMSOXD
 70
     0
  9
$DIMSAH
 70
     0
  9
$DIMBLK1
  1

  9
$DIMBLK2
  1

  9
$DIMSTYLE
  2
ISO-25
  9
$DIMCLRD
 70
     0
  9
$DIMCLRE
 70
     0
  9
$DIMCLRT
 70
     0
  9
$DIMTFAC
 40
1.0
  9
$DIMGAP
 40
0.625
  9
$LUNITS
 70
     2
  9
$LUPREC
 70
     4
  9
$SKETCHINC
 40
1.0
  9
$FILLETRAD
 40
1.5
  9
$AUNITS
 70
     0
  9
$AUPREC
 70
     0
  9
$MENU
  1
.
  9
$ELEVATION
 40
0.0
  9
$PELEVATION
 40
0.0
  9
$THICKNESS
 40
0.0
  9
$LIMCHECK
 70
     0
  9
$BLIPMODE
 70
     0
  9
$CHAMFERA
 40
0.0
  9
$CHAMFERB
 40
0.0
  9
$SKPOLY
 70
     0
  9
$TDCREATE
 40
2457112.8118756828
  9
$TDUPDATE
 40
2457112.9125992591
  9
$TDINDWG
 40
0.1007239352
  9
$TDUSRTIMER
 40
0.1007239005
  9
$USRTIMER
 70
     1
  9
$ANGBASE
 50
0.0
  9
$ANGDIR
 70
     0
  9
$PDMODE
 70
     0
  9
$PDSIZE
 40
0.0
  9
$PLINEWID
 40
0.0
  9
$COORDS
 70
     0
  9
$SPLFRAME
 70
     0
  9
$SPLINETYPE
 70
     6
  9
$SPLINESEGS
 70
     8
  9
$ATTDIA
 70
     0
  9
$ATTREQ
 70
     1
  9
$HANDLING
 70
     1
  9
$HANDSEED
  5
434
  9
$SURFTAB1
 70
     6
  9
$SURFTAB2
 70
     6
  9
$SURFTYPE
 70
     6
  9
$SURFU
 70
     6
  9
$SURFV
 70
     6
  9
$UCSNAME
  2

  9
$UCSORG
 10
0.0
 20
0.0
 30
0.0
  9
$UCSXDIR
 10
1.0
 20
0.0
 30
0.0
  9
$UCSYDIR
 10
0.0
 20
1.0
 30
0.0
  9
$PUCSNAME
  2

  9
$PUCSORG
 10
0.0
 20
0.0
 30
0.0
  9
$PUCSXDIR
 10
1.0
 20
0.0
 30
0.0
  9
$PUCSYDIR
 10
0.0
 20
1.0
 30
0.0
  9
$USERI1
 70
     0
  9
$USERI2
 70
     0
  9
$USERI3
 70
     0
  9
$USERI4
 70
     0
  9
$USERI5
 70
     0
  9
$USERR1
 40
0.0
  9
$USERR2
 40
0.0
  9
$USERR3
 40
0.0
  9
$USERR4
 40
0.0
  9
$USERR5
 40
0.0
  9
$WORLDVIEW
 70
     1
  9
$SHADEDGE
 70
     3
  9
$SHADEDIF
 70
    70
  9
$TILEMODE
 70
     1
  9
$MAXACTVP
 70
    64
  9
$PLIMCHECK
 70
     0
  9
$PEXTMIN
 10
0.0
 20
0.0
 30
0.0
  9
$PEXTMAX
 10
0.0
 20
0.0
 30
0.0
  9
$PLIMMIN
 10
0.0
 20
0.0
  9
$PLIMMAX
 10
12.0
 20
9.0
  9
$UNITMODE
 70
     0
  9
$VISRETAIN
 70
     1
  9
$PLINEGEN
 70
     0
  9
$PSLTSCALE
 70
     1
  0
ENDSEC
  0
SECTION
  2
TABLES
  0
TABLE
  2
VPORT
 70
     1
  0
VPORT
  2
*ACTIVE
 70
     0
 10
0.0
 20
0.0
 11
1.0
 21
1.0
 12
1086.5878340924719
 22
445.87757829056721
 13
0.0
 23
0.0
 14
10.0
 24
10.0
 15
10.0
 25
10.0
 16
0.0
 26
0.0
 36
1.0
 17
0.0
 27
0.0
 37
0.0
 40
255.446967477459
 41
1.4778254649499281
 42
50.0
 43
0.0
 44
0.0
 50
0.0
 51
0.0
 71
     0
 72
  1000
 73
     1
 74
     3
 75
     0
 76
     1
 77
     0
 78
     0
  0
ENDTAB
  0
TABLE
  2
LTYPE
 70
     1
  0
LTYPE
  2
CONTINUOUS
 70
     0
  3
Solid line
 72
    65
 73
     0
 40
0.0
  0
ENDTAB
  0
TABLE
  2
LAYER
 70
     1
  0
LAYER
  2
0
 70
     0
 62
     7
  6
CONTINUOUS
  0
ENDTAB
  0
TABLE
  2
STYLE
 70
     2
  0
STYLE
  2
STANDARD
 70
     0
 40
0.0
 41
1.0
 50
0.0
 71
     0
 42
2.5
  3
txt
  4

  0
STYLE
  2
ANNOTATIVE
 70
     0
 40
0.0
 41
1.0
 50
0.0
 71
     0
 42
2.5
  3
txt
  4

  0
ENDTAB
  0
TABLE
  2
VIEW
 70
     0
  0
ENDTAB
  0
TABLE
  2
UCS
 70
     0
  0
ENDTAB
  0
TABLE
  2
APPID
 70
     9
  0
APPID
  2
ACAD
 70
     0
  0
APPID
  2
ACAD_PSEXT
 70
     0
  0
APPID
  2
ACADANNOPO
 70
     0
  0
APPID
  2
ACADANNOTATIVE
 70
     0
  0
APPID
  2
ACAD_DSTYLE_DIMJAG
 70
     0
  0
APPID
  2
ACAD_DSTYLE_DIMTALN
 70
     0
  0
APPID
  2
ACAD_MLEADERVER
 70
     0
  0
APPID
  2
ACAD_NAV_VCDISPLAY
 70
     0
  0
APPID
  2
ACAD_DSTYLE_DIMRADIAL_EXTENSION
 70
     0
  0
ENDTAB
  0
TABLE
  2
DIMSTYLE
 70
     3
  0
DIMSTYLE
  2
STANDARD
 70
     0
  3

  4

  5

  6

  7

 40
1.0
 41
0.18
 42
0.0625
 43
0.38
 44
0.18
 45
0.0
 46
0.0
 47
0.0
 48
0.0
140
0.18
141
0.09
142
0.0
143
25.399999999999999
144
1.0
145
0.0
146
1.0
147
0.09
 71
     0
 72
     0
 73
     1
 74
     1
 75
     0
 76
     0
 77
     0
 78
     0
170
     0
171
     2
172
     0
173
     0
174
     0
175
     0
176
     0
177
     0
178
     0
  0
DIMSTYLE
  2
ANNOTATIVE
 70
     0
  3

  4

  5

  6

  7

 40
0.0
 41
2.5
 42
0.625
 43
3.75
 44
1.25
 45
0.0
 46
0.0
 47
0.0
 48
0.0
140
2.5
141
2.5
142
0.0
143
0.03937007874016
144
1.0
145
0.0
146
1.0
147
0.625
 71
     0
 72
     0
 73
     0
 74
     0
 75
     0
 76
     0
 77
     1
 78
     8
170
     0
171
     3
172
     1
173
     0
174
     0
175
     0
176
     0
177
     0
178
     0
  0
DIMSTYLE
  2
ISO-25
 70
     0
  3

  4

  5

  6

  7

 40
1.0
 41
2.5
 42
0.625
 43
3.75
 44
1.25
 45
0.0
 46
0.0
 47
0.0
 48
0.0
140
2.5
141
2.5
142
0.0
143
0.03937007874016
144
1.0
145
0.0
146
1.0
147
0.625
 71
     0
 72
     0
 73
     0
 74
     0
 75
     0
 76
     0
 77
     1
 78
     8
170
     0
171
     3
172
     1
173
     0
174
     0
175
     0
176
     0
177
     0
178
     0
  0
ENDTAB
  0
ENDSEC
  0
SECTION
  2
BLOCKS
  0
BLOCK
  8
0
  2
$MODEL_SPACE
 70
     0
 10
0.0
 20
0.0
 30
0.0
  3
$MODEL_SPACE
  1

  0
ENDBLK
  5
21
  8
0
  0
BLOCK
 67
     1
  8
0
  2
$PAPER_SPACE
 70
     0
 10
0.0
 20
0.0
 30
0.0
  3
$PAPER_SPACE
  1

  0
ENDBLK
  5
D5
 67
     1
  8
0
  0
ENDSEC
  0
SECTION
  2
ENTITIES
  0
CIRCLE
  5
234
  8
0
 10
1106.7268946481511
 20
487.43012033820122
 30
0.0
 40
1.75
  0
POLYLINE
  5
243
  8
0
 66
     1
 10
0.0
 20
0.0
 30
0.0
 70
     1
  0
VERTEX
  5
3F3
  8
0
 10
1013.916894648154
 20
447.27407033820072
 30
0.0
 42
-1.0
  0
VERTEX
  5
3F4
  8
0
 10
1013.916894648154
 20
450.47407033820082
 30
0.0
 42
-1.0
  0
SEQEND
  5
3F5
  8
0
  0
POLYLINE
  5
293
  8
0
 66
     1
 10
0.0
 20
0.0
 30
0.0
 70
     1
  0
VERTEX
  5
3F6
  8
0
 10
1108.4768946481511
 20
379.66407033820059
 30
0.0
 42
-1.0
  0
VERTEX
  5
3F7
  8
0
 10
1104.9768946481511
 20
379.66407033820059
 30
0.0
 42
-1.0
  0
SEQEND
  5
3F8
  8
0
  0
POLYLINE
  5
294
  8
0
 66
     1
 10
0.0
 20
0.0
 30
0.0
 70
     1
  0
VERTEX
  5
3F9
  8
0
 10
1009.976894648154
 20
379.66407033820059
 30
0.0
 42
-1.0
  0
VERTEX
  5
3FA
  8
0
 10
1006.776894648154
 20
379.66407033820059
 30
0.0
 42
-1.0
  0
SEQEND
  5
3FB
  8
0
  0
POLYLINE
  5
295
  8
0
 66
     1
 10
0.0
 20
0.0
 30
0.0
 70
     1
  0
VERTEX
  5
3FC
  8
0
 10
1015.516894648154
 20
385.3540703382007
 30
0.0
 42
-1.0
  0
VERTEX
  5
3FD
  8
0
 10
1012.3168946481539
 20
385.3540703382007
 30
0.0
 42
-1.0
  0
SEQEND
  5
3FE
  8
0
  0
POLYLINE
  5
296
  8
0
 66
     1
 10
0.0
 20
0.0
 30
0.0
 70
     1
  0
VERTEX
  5
3FF
  8
0
 10
1039.3368946481539
 20
383.75407033820079
 30
0.0
 42
-1.0
  0
VERTEX
  5
400
  8
0
 10
1039.3368946481539
 20
386.95407033820061
 30
0.0
 42
-1.0
  0
SEQEND
  5
401
  8
0
  0
POLYLINE
  5
299
  8
0
 66
     1
 10
0.0
 20
0.0
 30
0.0
 70
     1
  0
VERTEX
  5
402
  8
0
 10
1006.776894648154
 20
487.43012033820122
 30
0.0
 42
-1.0
  0
VERTEX
  5
403
  8
0
 10
1009.976894648154
 20
487.43012033820122
 30
0.0
 42
-1.0
  0
SEQEND
  5
404
  8
0
  0
POLYLINE
  5
29A
  8
0
 66
     1
 10
0.0
 20
0.0
 30
0.0
 70
     1
  0
VERTEX
  5
405
  8
0
 10
1039.3368946481539
 20
447.27407033820072
 30
0.0
 42
-1.0
  0
VERTEX
  5
406
  8
0
 10
1039.3368946481539
 20
450.47407033820082
 30
0.0
 42
-1.0
  0
SEQEND
  5
407
  8
0
  0
POLYLINE
  5
29B
  8
0
 66
     1
 10
0.0
 20
0.0
 30
0.0
 70
     1
  0
VERTEX
  5
408
  8
0
 10
1041.8768946481539
 20
451.41407033820059
 30
0.0
  0
VERTEX
  5
409
  8
0
 10
1041.8768946481539
 20
382.81407033820079
 30
0.0
  0
VERTEX
  5
40A
  8
0
 10
1011.376894648154
 20
382.81407033820079
 30
0.0
  0
VERTEX
  5
40B
  8
0
 10
1011.376894648154
 20
451.41407033820059
 30
0.0
  0
SEQEND
  5
40C
  8
0
  0
POLYLINE
  5
29C
  8
0
 66
     1
 10
0.0
 20
0.0
 30
0.0
 70
     1
  0
VERTEX
  5
40D
  8
0
 10
1103.576894648151
 20
465.41407033820178
 30
0.0
  0
VERTEX
  5
40E
  8
0
 10
1103.576894648151
 20
382.81407033820079
 30
0.0
  0
VERTEX
  5
40F
  8
0
 10
1100.92689464815
 20
382.81407033820051
 30
0.0
 42
0.4142135623730647
  0
VERTEX
  5
410
  8
0
 10
1100.076894648151
 20
381.96407033820122
 30
0.0
 42
-0.4142135623728062
  0
VERTEX
  5
411
  8
0
 10
1098.9268946481509
 20
380.81407033820028
 30
0.0
 42
-0.4142135623728894
  0
VERTEX
  5
412
  8
0
 10
1097.776894648151
 20
381.9640703382014
 30
0.0
 42
0.4142135623731455
  0
VERTEX
  5
413
  8
0
 10
1096.926894648152
 20
382.81407033820079
 30
0.0
  0
VERTEX
  5
414
  8
0
 10
1096.4268946481509
 20
382.81407033820079
 30
0.0
  0
VERTEX
  5
415
  8
0
 10
1078.1268946481509
 20
382.81407033820079
 30
0.0
 42
0.4142135623731209
  0
VERTEX
  5
416
  8
0
 10
1077.276894648151
 20
381.96407033820071
 30
0.0
 42
-0.4142135623728207
  0
VERTEX
  5
417
  8
0
 10
1076.1268946481521
 20
380.81407033820011
 30
0.0
 42
-0.4142135623728316
  0
VERTEX
  5
418
  8
0
 10
1074.976894648152
 20
381.964070338201
 30
0.0
 42
0.4142135623731259
  0
VERTEX
  5
419
  8
0
 10
1074.1268946481521
 20
382.81407033820079
 30
0.0
  0
VERTEX
  5
41A
  8
0
 10
1055.826894648151
 20
382.81407033820079
 30
0.0
  0
VERTEX
  5
41B
  8
0
 10
1055.326894648151
 20
382.81407033820051
 30
0.0
 42
0.4142135623729494
  0
VERTEX
  5
41C
  8
0
 10
1054.476894648152
 20
381.96407033820202
 30
0.0
 42
-0.414213562373132
  0
VERTEX
  5
41D
  8
0
 10
1053.3268946481501
 20
380.81407033820028
 30
0.0
 42
-0.4142135623727954
  0
VERTEX
  5
41E
  8
0
 10
1052.176894648152
 20
381.96407033819992
 30
0.0
 42
0.414213562373146
  0
VERTEX
  5
41F
  8
0
 10
1051.3268946481519
 20
382.81407033820079
 30
0.0
  0
VERTEX
  5
420
  8
0
 10
1048.676894648152
 20
382.81407033820079
 30
0.0
  0
VERTEX
  5
421
  8
0
 10
1048.6768946481509
 20
394.7740954639882
 30
0.0
 42
0.3851703882142551
  0
VERTEX
  5
422
  8
0
 10
1047.9118946481519
 20
395.61983478552912
 30
0.0
 42
-0.904534033732101
  0
VERTEX
  5
423
  8
0
 10
1047.9118946481519
 20
397.9083058908729
 30
0.0
 42
0.3851703882144219
  0
VERTEX
  5
424
  8
0
 10
1048.676894648152
 20
398.75404521241433
 30
0.0
  0
VERTEX
  5
425
  8
0
 10
1048.676894648152
 20
449.47409546398649
 30
0.0
 42
0.3851703882144978
  0
VERTEX
  5
426
  8
0
 10
1047.9118946481519
 20
450.31983478552792
 30
0.0
 42
-0.9045340337323441
  0
VERTEX
  5
427
  8
0
 10
1047.9118946481519
 20
452.6083058908718
 30
0.0
 42
0.3851703882143531
  0
VERTEX
  5
428
  8
0
 10
1048.676894648152
 20
453.45404521241443
 30
0.0
  0
VERTEX
  5
429
  8
0
 10
1048.676894648152
 20
465.41407033820178
 30
0.0
  0
SEQEND
  5
42A
  8
0
  0
POLYLINE
  5
29D
  8
0
 66
     1
 10
0.0
 20
0.0
 30
0.0
 70
     1
  0
VERTEX
  5
42B
  8
0
 10
1111.7268946481511
 20
490.93012033820162
 30
0.0
 42
0.4142135623730951
  0
VERTEX
  5
42C
  8
0
 10
1110.2268946481511
 20
492.43012033820111
 30
0.0
  0
VERTEX
  5
42D
  8
0
 10
1004.876894648154
 20
492.43012033820128
 30
0.0
 42
0.4142135623730951
  0
VERTEX
  5
42E
  8
0
 10
1003.376894648154
 20
490.93012033820122
 30
0.0
  0
VERTEX
  5
42F
  8
0
 10
1003.376894648154
 20
376.1640703382007
 30
0.0
 42
0.4142135623730951
  0
VERTEX
  5
430
  8
0
 10
1004.876894648154
 20
374.6640703382007
 30
0.0
  0
VERTEX
  5
431
  8
0
 10
1110.2268946481511
 20
374.6640703382007
 30
0.0
 42
0.4142135623730951
  0
VERTEX
  5
432
  8
0
 10
1111.7268946481511
 20
376.1640703382007
 30
0.0
  0
SEQEND
  5
433
  8
0
  0
ENDSEC
  0
EOF
