  0
SECTION
  2
HEADER
  9
$ACADVER
  1
AC1009
  9
$INSBASE
 10
0.0
 20
0.0
 30
0.0
  9
$EXTMIN
 10
542.77456833717599
 20
117.88643126650911
 30
0.0
  9
$EXTMAX
 10
2031.9773764472909
 20
895.66218718468565
 30
0.0
  9
$LIMMIN
 10
0.0
 20
0.0
  9
$LIMMAX
 10
420.0
 20
297.0
  9
$ORTHOMODE
 70
     0
  9
$REGENMODE
 70
     1
  9
$FILLMODE
 70
     1
  9
$QTEXTMODE
 70
     0
  9
$MIRRTEXT
 70
     0
  9
$DRAGMODE
 70
     2
  9
$LTSCALE
 40
1.0
  9
$OSMODE
 70
   695
  9
$ATTMODE
 70
     1
  9
$TEXTSIZE
 40
2.5
  9
$TRACEWID
 40
1.0
  9
$TEXTSTYLE
  7
STANDARD
  9
$CLAYER
  8
0
  9
$CELTYPE
  6
BYLAYER
  9
$CECOLOR
 62
   256
  9
$DIMSCALE
 40
1.0
  9
$DIMASZ
 40
2.5
  9
$DIMEXO
 40
0.625
  9
$DIMDLI
 40
3.75
  9
$DIMRND
 40
0.0
  9
$DIMDLE
 40
0.0
  9
$DIMEXE
 40
1.25
  9
$DIMTP
 40
0.0
  9
$DIMTM
 40
0.0
  9
$DIMTXT
 40
2.5
  9
$DIMCEN
 40
2.5
  9
$DIMTSZ
 40
0.0
  9
$DIMTOL
 70
     0
  9
$DIMLIM
 70
     0
  9
$DIMTIH
 70
     0
  9
$DIMTOH
 70
     0
  9
$DIMSE1
 70
     0
  9
$DIMSE2
 70
     0
  9
$DIMTAD
 70
     1
  9
$DIMZIN
 70
     8
  9
$DIMBLK
  1

  9
$DIMASO
 70
     1
  9
$DIMSHO
 70
     1
  9
$DIMPOST
  1

  9
$DIMAPOST
  1

  9
$DIMALT
 70
     0
  9
$DIMALTD
 70
     3
  9
$DIMALTF
 40
0.03937007874016
  9
$DIMLFAC
 40
1.0
  9
$DIMTOFL
 70
     1
  9
$DIMTVP
 40
0.0
  9
$DIMTIX
 70
     0
  9
$DIMSOXD
 70
     0
  9
$DIMSAH
 70
     0
  9
$DIMBLK1
  1

  9
$DIMBLK2
  1

  9
$DIMSTYLE
  2
ISO-25
  9
$DIMCLRD
 70
     0
  9
$DIMCLRE
 70
     0
  9
$DIMCLRT
 70
     0
  9
$DIMTFAC
 40
1.0
  9
$DIMGAP
 40
0.625
  9
$LUNITS
 70
     2
  9
$LUPREC
 70
     4
  9
$SKETCHINC
 40
1.0
  9
$FILLETRAD
 40
0.0
  9
$AUNITS
 70
     0
  9
$AUPREC
 70
     0
  9
$MENU
  1
.
  9
$ELEVATION
 40
0.0
  9
$PELEVATION
 40
0.0
  9
$THICKNESS
 40
0.0
  9
$LIMCHECK
 70
     0
  9
$BLIPMODE
 70
     0
  9
$CHAMFERA
 40
0.0
  9
$CHAMFERB
 40
0.0
  9
$SKPOLY
 70
     0
  9
$TDCREATE
 40
2457112.7946971641
  9
$TDUPDATE
 40
2457112.8199816318
  9
$TDINDWG
 40
0.0252847917
  9
$TDUSRTIMER
 40
0.0252847685
  9
$USRTIMER
 70
     1
  9
$ANGBASE
 50
0.0
  9
$ANGDIR
 70
     0
  9
$PDMODE
 70
     0
  9
$PDSIZE
 40
0.0
  9
$PLINEWID
 40
0.0
  9
$COORDS
 70
     0
  9
$SPLFRAME
 70
     0
  9
$SPLINETYPE
 70
     6
  9
$SPLINESEGS
 70
     8
  9
$ATTDIA
 70
     0
  9
$ATTREQ
 70
     1
  9
$HANDLING
 70
     1
  9
$HANDSEED
  5
118C
  9
$SURFTAB1
 70
     6
  9
$SURFTAB2
 70
     6
  9
$SURFTYPE
 70
     6
  9
$SURFU
 70
     6
  9
$SURFV
 70
     6
  9
$UCSNAME
  2

  9
$UCSORG
 10
0.0
 20
0.0
 30
0.0
  9
$UCSXDIR
 10
1.0
 20
0.0
 30
0.0
  9
$UCSYDIR
 10
0.0
 20
1.0
 30
0.0
  9
$PUCSNAME
  2

  9
$PUCSORG
 10
0.0
 20
0.0
 30
0.0
  9
$PUCSXDIR
 10
1.0
 20
0.0
 30
0.0
  9
$PUCSYDIR
 10
0.0
 20
1.0
 30
0.0
  9
$USERI1
 70
     0
  9
$USERI2
 70
     0
  9
$USERI3
 70
     0
  9
$USERI4
 70
     0
  9
$USERI5
 70
     0
  9
$USERR1
 40
0.0
  9
$USERR2
 40
0.0
  9
$USERR3
 40
0.0
  9
$USERR4
 40
0.0
  9
$USERR5
 40
0.0
  9
$WORLDVIEW
 70
     1
  9
$SHADEDGE
 70
     3
  9
$SHADEDIF
 70
    70
  9
$TILEMODE
 70
     1
  9
$MAXACTVP
 70
    64
  9
$PLIMCHECK
 70
     0
  9
$PEXTMIN
 10
0.0
 20
0.0
 30
0.0
  9
$PEXTMAX
 10
0.0
 20
0.0
 30
0.0
  9
$PLIMMIN
 10
0.0
 20
0.0
  9
$PLIMMAX
 10
12.0
 20
9.0
  9
$UNITMODE
 70
     0
  9
$VISRETAIN
 70
     1
  9
$PLINEGEN
 70
     0
  9
$PSLTSCALE
 70
     1
  0
ENDSEC
  0
SECTION
  2
TABLES
  0
TABLE
  2
VPORT
 70
     1
  0
VPORT
  2
*ACTIVE
 70
     0
 10
0.0
 20
0.0
 11
1.0
 21
1.0
 12
1048.4632931998319
 22
500.11682779353049
 13
0.0
 23
0.0
 14
10.0
 24
10.0
 15
10.0
 25
10.0
 16
0.0
 26
0.0
 36
1.0
 17
0.0
 27
0.0
 37
0.0
 40
452.55911574809937
 41
2.197368421052631
 42
50.0
 43
0.0
 44
0.0
 50
0.0
 51
0.0
 71
     0
 72
  1000
 73
     1
 74
     3
 75
     0
 76
     1
 77
     0
 78
     0
  0
ENDTAB
  0
TABLE
  2
LTYPE
 70
     1
  0
LTYPE
  2
CONTINUOUS
 70
     0
  3
Solid line
 72
    65
 73
     0
 40
0.0
  0
ENDTAB
  0
TABLE
  2
LAYER
 70
     2
  0
LAYER
  2
0
 70
     0
 62
     7
  6
CONTINUOUS
  0
LAYER
  2
LAYER_1
 70
     0
 62
     7
  6
CONTINUOUS
  0
ENDTAB
  0
TABLE
  2
STYLE
 70
     2
  0
STYLE
  2
STANDARD
 70
     0
 40
0.0
 41
1.0
 50
0.0
 71
     0
 42
2.5
  3
txt
  4

  0
STYLE
  2
ANNOTATIVE
 70
     0
 40
0.0
 41
1.0
 50
0.0
 71
     0
 42
2.5
  3
txt
  4

  0
ENDTAB
  0
TABLE
  2
VIEW
 70
     0
  0
ENDTAB
  0
TABLE
  2
UCS
 70
     0
  0
ENDTAB
  0
TABLE
  2
APPID
 70
     9
  0
APPID
  2
ACAD
 70
     0
  0
APPID
  2
ACAD_PSEXT
 70
     0
  0
APPID
  2
ACADANNOPO
 70
     0
  0
APPID
  2
ACADANNOTATIVE
 70
     0
  0
APPID
  2
ACAD_DSTYLE_DIMJAG
 70
     0
  0
APPID
  2
ACAD_DSTYLE_DIMTALN
 70
     0
  0
APPID
  2
ACAD_MLEADERVER
 70
     0
  0
APPID
  2
ACAD_NAV_VCDISPLAY
 70
     0
  0
APPID
  2
ACAD_DSTYLE_DIMRADIAL_EXTENSION
 70
     0
  0
ENDTAB
  0
TABLE
  2
DIMSTYLE
 70
     3
  0
DIMSTYLE
  2
STANDARD
 70
     0
  3

  4

  5

  6

  7

 40
1.0
 41
0.18
 42
0.0625
 43
0.38
 44
0.18
 45
0.0
 46
0.0
 47
0.0
 48
0.0
140
0.18
141
0.09
142
0.0
143
25.399999999999999
144
1.0
145
0.0
146
1.0
147
0.09
 71
     0
 72
     0
 73
     1
 74
     1
 75
     0
 76
     0
 77
     0
 78
     0
170
     0
171
     2
172
     0
173
     0
174
     0
175
     0
176
     0
177
     0
178
     0
  0
DIMSTYLE
  2
ANNOTATIVE
 70
     0
  3

  4

  5

  6

  7

 40
0.0
 41
2.5
 42
0.625
 43
3.75
 44
1.25
 45
0.0
 46
0.0
 47
0.0
 48
0.0
140
2.5
141
2.5
142
0.0
143
0.03937007874016
144
1.0
145
0.0
146
1.0
147
0.625
 71
     0
 72
     0
 73
     0
 74
     0
 75
     0
 76
     0
 77
     1
 78
     8
170
     0
171
     3
172
     1
173
     0
174
     0
175
     0
176
     0
177
     0
178
     0
  0
DIMSTYLE
  2
ISO-25
 70
     0
  3

  4

  5

  6

  7

 40
1.0
 41
2.5
 42
0.625
 43
3.75
 44
1.25
 45
0.0
 46
0.0
 47
0.0
 48
0.0
140
2.5
141
2.5
142
0.0
143
0.03937007874016
144
1.0
145
0.0
146
1.0
147
0.625
 71
     0
 72
     0
 73
     0
 74
     0
 75
     0
 76
     0
 77
     1
 78
     8
170
     0
171
     3
172
     1
173
     0
174
     0
175
     0
176
     0
177
     0
178
     0
  0
ENDTAB
  0
ENDSEC
  0
SECTION
  2
BLOCKS
  0
BLOCK
  8
0
  2
$MODEL_SPACE
 70
     0
 10
0.0
 20
0.0
 30
0.0
  3
$MODEL_SPACE
  1

  0
ENDBLK
  5
21
  8
0
  0
BLOCK
 67
     1
  8
0
  2
$PAPER_SPACE
 70
     0
 10
0.0
 20
0.0
 30
0.0
  3
$PAPER_SPACE
  1

  0
ENDBLK
  5
D5
 67
     1
  8
0
  0
BLOCK
  8
0
  2
*U7
 70
     1
 10
0.0
 20
0.0
 30
0.0
  3
*U7
  1

  0
ARC
  5
10CF
  8
0
 10
0.0
 20
0.0
 30
0.0
 40
1.5
 50
180.0
 51
0.0
  0
ARC
  5
10D0
  8
0
 10
0.0
 20
0.0
 30
0.0
 40
1.5
 50
0.0
 51
180.0
  0
ENDBLK
  5
10D2
  8
0
  0
ENDSEC
  0
SECTION
  2
ENTITIES
  0
POLYLINE
  5
21E
  8
0
 66
     1
 10
0.0
 20
0.0
 30
0.0
 70
     1
  0
VERTEX
  5
10C5
  8
0
 10
852.96397382821135
 20
515.20135194400405
 30
0.0
 42
0.4142135623730951
  0
VERTEX
  5
10C6
  8
0
 10
851.46397382821146
 20
513.70135194400405
 30
0.0
  0
VERTEX
  5
10C7
  8
0
 10
851.46397382821146
 20
398.93530194400432
 30
0.0
 42
0.4142135623730951
  0
VERTEX
  5
10C8
  8
0
 10
852.96397382821135
 20
397.43530194400432
 30
0.0
  0
VERTEX
  5
10C9
  8
0
 10
980.70407382820952
 20
397.43530194400432
 30
0.0
 42
0.4142135623730951
  0
VERTEX
  5
10CA
  8
0
 10
982.2040738282094
 20
398.93530194400432
 30
0.0
  0
VERTEX
  5
10CB
  8
0
 10
982.2040738282094
 20
513.70135194400405
 30
0.0
 42
0.4142135623730951
  0
VERTEX
  5
10CC
  8
0
 10
980.70407382820952
 20
515.20135194400405
 30
0.0
  0
SEQEND
  5
10CD
  8
0
  0
POLYLINE
  5
28A
  8
0
 66
     1
 10
0.0
 20
0.0
 30
0.0
 70
     1
  0
VERTEX
  5
1164
  8
0
 10
919.9540738282102
 20
490.0351782317727
 30
0.0
  0
VERTEX
  5
1165
  8
0
 10
919.9540738282102
 20
478.07515310598558
 30
0.0
 42
-0.3851703882144806
  0
VERTEX
  5
1166
  8
0
 10
919.18907382820964
 20
477.22941378444261
 30
0.0
 42
0.9045340337324139
  0
VERTEX
  5
1167
  8
0
 10
919.18907382821021
 20
474.94094267909873
 30
0.0
 42
-0.3851703882144257
  0
VERTEX
  5
1168
  8
0
 10
919.9540738282102
 20
474.09520335755741
 30
0.0
  0
VERTEX
  5
1169
  8
0
 10
919.9540738282102
 20
423.37515310598548
 30
0.0
 42
-0.3851703882145233
  0
VERTEX
  5
116A
  8
0
 10
919.18907382821044
 20
422.5294137844437
 30
0.0
 42
0.904534033732101
  0
VERTEX
  5
116B
  8
0
 10
919.18907382820964
 20
420.24094267909987
 30
0.0
 42
-0.3851703882143441
  0
VERTEX
  5
116C
  8
0
 10
919.95407382820895
 20
419.39520335755878
 30
0.0
  0
VERTEX
  5
116D
  8
0
 10
919.9540738282102
 20
407.4351782317716
 30
0.0
  0
VERTEX
  5
116E
  8
0
 10
922.60407382820904
 20
407.4351782317716
 30
0.0
 42
-0.4142135623732556
  0
VERTEX
  5
116F
  8
0
 10
923.4540738282102
 20
406.58517823177101
 30
0.0
 42
0.4142135623728605
  0
VERTEX
  5
1170
  8
0
 10
924.60407382820836
 20
405.43517823177109
 30
0.0
 42
0.4142135623731356
  0
VERTEX
  5
1171
  8
0
 10
925.75407382821015
 20
406.58517823177277
 30
0.0
 42
-0.4142135623731381
  0
VERTEX
  5
1172
  8
0
 10
926.60407382820893
 20
407.43517823177132
 30
0.0
  0
VERTEX
  5
1173
  8
0
 10
927.10407382820904
 20
407.4351782317716
 30
0.0
  0
VERTEX
  5
1174
  8
0
 10
945.40407382820945
 20
407.4351782317716
 30
0.0
 42
-0.4142135623733144
  0
VERTEX
  5
1175
  8
0
 10
946.25407382821004
 20
406.58517823177209
 30
0.0
 42
0.4142135623729184
  0
VERTEX
  5
1176
  8
0
 10
947.40407382820968
 20
405.43517823177081
 30
0.0
 42
0.4142135623729618
  0
VERTEX
  5
1177
  8
0
 10
948.55407382820908
 20
406.58517823177209
 30
0.0
 42
-0.4142135623731578
  0
VERTEX
  5
1178
  8
0
 10
949.40407382820956
 20
407.4351782317716
 30
0.0
  0
VERTEX
  5
1179
  8
0
 10
967.70407382820906
 20
407.4351782317716
 30
0.0
  0
VERTEX
  5
117A
  8
0
 10
968.20407382820918
 20
407.4351782317716
 30
0.0
 42
-0.4142135623732361
  0
VERTEX
  5
117B
  8
0
 10
969.05407382820954
 20
406.585178231773
 30
0.0
 42
0.4142135623731066
  0
VERTEX
  5
117C
  8
0
 10
970.20407382820929
 20
405.43517823177109
 30
0.0
 42
0.4142135623729909
  0
VERTEX
  5
117D
  8
0
 10
971.35407382820927
 20
406.58517823177277
 30
0.0
 42
-0.4142135623731381
  0
VERTEX
  5
117E
  8
0
 10
972.2040738282094
 20
407.43517823177132
 30
0.0
  0
VERTEX
  5
117F
  8
0
 10
974.85407382820927
 20
407.4351782317716
 30
0.0
  0
VERTEX
  5
1180
  8
0
 10
974.85407382820927
 20
490.0351782317727
 30
0.0
  0
SEQEND
  5
1181
  8
0
  0
CIRCLE
  5
64D
  8
0
 10
856.46397382821135
 20
510.20135194400399
 30
0.0
 40
1.6000000000000001
  0
CIRCLE
  5
652
  8
0
 10
856.46397382821135
 20
402.43530194400421
 30
0.0
 40
1.6000000000000001
  0
CIRCLE
  5
653
  8
0
 10
977.20407382820929
 20
402.43530194400421
 30
0.0
 40
1.6000000000000001
  0
CIRCLE
  5
654
  8
0
 10
977.20407382820929
 20
510.20135194400399
 30
0.0
 40
1.6000000000000001
  0
POLYLINE
  5
A23
  8
0
 66
     1
 10
0.0
 20
0.0
 30
0.0
 70
     1
  0
VERTEX
  5
1182
  8
0
 10
858.8139738282116
 20
504.77658390169103
 30
0.0
  0
VERTEX
  5
1183
  8
0
 10
860.36367534359044
 20
506.76167823177138
 30
0.0
  0
VERTEX
  5
1184
  8
0
 10
871.78934716997333
 20
506.76167823177138
 30
0.0
  0
VERTEX
  5
1185
  8
0
 10
873.26994721703034
 20
509.3012783124849
 30
0.0
  0
VERTEX
  5
1186
  8
0
 10
908.91784360131544
 20
509.30117815177891
 30
0.0
  0
VERTEX
  5
1187
  8
0
 10
910.42485528709165
 20
506.76167823177138
 30
0.0
  0
VERTEX
  5
1188
  8
0
 10
912.25407382821129
 20
506.76167823177138
 30
0.0
  0
VERTEX
  5
1189
  8
0
 10
912.25407382821129
 20
407.4351782317716
 30
0.0
  0
VERTEX
  5
118A
  8
0
 10
858.81397382821137
 20
407.4351782317716
 30
0.0
  0
SEQEND
  5
118B
  8
0
  0
ENDSEC
  0
EOF
