  0
SECTION
  2
HEADER
  9
$ACADVER
  1
AC1009
  9
$INSBASE
 10
0.0
 20
0.0
 30
0.0
  9
$EXTMIN
 10
1495.3834860984259
 20
581.26941765846925
 30
0.0
  9
$EXTMAX
 10
1662.9634860984249
 20
675.26941765846595
 30
0.0
  9
$LIMMIN
 10
0.0
 20
0.0
  9
$LIMMAX
 10
420.0
 20
297.0
  9
$ORTHOMODE
 70
     0
  9
$REGENMODE
 70
     1
  9
$FILLMODE
 70
     1
  9
$QTEXTMODE
 70
     0
  9
$MIRRTEXT
 70
     0
  9
$DRAGMODE
 70
     2
  9
$LTSCALE
 40
1.0
  9
$OSMODE
 70
   695
  9
$ATTMODE
 70
     1
  9
$TEXTSIZE
 40
2.5
  9
$TRACEWID
 40
1.0
  9
$TEXTSTYLE
  7
STANDARD
  9
$CLAYER
  8
0
  9
$CELTYPE
  6
BYLAYER
  9
$CECOLOR
 62
   256
  9
$DIMSCALE
 40
1.0
  9
$DIMASZ
 40
2.5
  9
$DIMEXO
 40
0.625
  9
$DIMDLI
 40
3.75
  9
$DIMRND
 40
0.0
  9
$DIMDLE
 40
0.0
  9
$DIMEXE
 40
1.25
  9
$DIMTP
 40
0.0
  9
$DIMTM
 40
0.0
  9
$DIMTXT
 40
2.5
  9
$DIMCEN
 40
2.5
  9
$DIMTSZ
 40
0.0
  9
$DIMTOL
 70
     0
  9
$DIMLIM
 70
     0
  9
$DIMTIH
 70
     0
  9
$DIMTOH
 70
     0
  9
$DIMSE1
 70
     0
  9
$DIMSE2
 70
     0
  9
$DIMTAD
 70
     1
  9
$DIMZIN
 70
     8
  9
$DIMBLK
  1

  9
$DIMASO
 70
     1
  9
$DIMSHO
 70
     1
  9
$DIMPOST
  1

  9
$DIMAPOST
  1

  9
$DIMALT
 70
     0
  9
$DIMALTD
 70
     3
  9
$DIMALTF
 40
0.03937007874016
  9
$DIMLFAC
 40
1.0
  9
$DIMTOFL
 70
     1
  9
$DIMTVP
 40
0.0
  9
$DIMTIX
 70
     0
  9
$DIMSOXD
 70
     0
  9
$DIMSAH
 70
     0
  9
$DIMBLK1
  1

  9
$DIMBLK2
  1

  9
$DIMSTYLE
  2
ISO-25
  9
$DIMCLRD
 70
     0
  9
$DIMCLRE
 70
     0
  9
$DIMCLRT
 70
     0
  9
$DIMTFAC
 40
1.0
  9
$DIMGAP
 40
0.625
  9
$LUNITS
 70
     2
  9
$LUPREC
 70
     4
  9
$SKETCHINC
 40
1.0
  9
$FILLETRAD
 40
3.0
  9
$AUNITS
 70
     0
  9
$AUPREC
 70
     0
  9
$MENU
  1
.
  9
$ELEVATION
 40
0.0
  9
$PELEVATION
 40
0.0
  9
$THICKNESS
 40
0.0
  9
$LIMCHECK
 70
     0
  9
$BLIPMODE
 70
     0
  9
$CHAMFERA
 40
0.0
  9
$CHAMFERB
 40
0.0
  9
$SKPOLY
 70
     0
  9
$TDCREATE
 40
2456904.324266817
  9
$TDUPDATE
 40
2457205.4218776738
  9
$TDINDWG
 40
0.3171656597
  9
$TDUSRTIMER
 40
0.317164213
  9
$USRTIMER
 70
     1
  9
$ANGBASE
 50
0.0
  9
$ANGDIR
 70
     0
  9
$PDMODE
 70
     0
  9
$PDSIZE
 40
0.0
  9
$PLINEWID
 40
0.0
  9
$COORDS
 70
     0
  9
$SPLFRAME
 70
     0
  9
$SPLINETYPE
 70
     6
  9
$SPLINESEGS
 70
     8
  9
$ATTDIA
 70
     0
  9
$ATTREQ
 70
     1
  9
$HANDLING
 70
     1
  9
$HANDSEED
  5
EC7
  9
$SURFTAB1
 70
     6
  9
$SURFTAB2
 70
     6
  9
$SURFTYPE
 70
     6
  9
$SURFU
 70
     6
  9
$SURFV
 70
     6
  9
$UCSNAME
  2

  9
$UCSORG
 10
0.0
 20
0.0
 30
0.0
  9
$UCSXDIR
 10
1.0
 20
0.0
 30
0.0
  9
$UCSYDIR
 10
0.0
 20
1.0
 30
0.0
  9
$PUCSNAME
  2

  9
$PUCSORG
 10
0.0
 20
0.0
 30
0.0
  9
$PUCSXDIR
 10
1.0
 20
0.0
 30
0.0
  9
$PUCSYDIR
 10
0.0
 20
1.0
 30
0.0
  9
$USERI1
 70
     0
  9
$USERI2
 70
     0
  9
$USERI3
 70
     0
  9
$USERI4
 70
     0
  9
$USERI5
 70
     0
  9
$USERR1
 40
0.0
  9
$USERR2
 40
0.0
  9
$USERR3
 40
0.0
  9
$USERR4
 40
0.0
  9
$USERR5
 40
0.0
  9
$WORLDVIEW
 70
     1
  9
$SHADEDGE
 70
     3
  9
$SHADEDIF
 70
    70
  9
$TILEMODE
 70
     1
  9
$MAXACTVP
 70
    64
  9
$PLIMCHECK
 70
     0
  9
$PEXTMIN
 10
0.0
 20
0.0
 30
0.0
  9
$PEXTMAX
 10
0.0
 20
0.0
 30
0.0
  9
$PLIMMIN
 10
0.0
 20
0.0
  9
$PLIMMAX
 10
12.0
 20
9.0
  9
$UNITMODE
 70
     0
  9
$VISRETAIN
 70
     1
  9
$PLINEGEN
 70
     0
  9
$PSLTSCALE
 70
     1
  0
ENDSEC
  0
SECTION
  2
TABLES
  0
TABLE
  2
VPORT
 70
     1
  0
VPORT
  2
*ACTIVE
 70
     0
 10
0.0
 20
0.0
 11
1.0
 21
1.0
 12
1575.174156507484
 22
624.92400801189069
 13
0.0
 23
0.0
 14
10.0
 24
10.0
 15
10.0
 25
10.0
 16
0.0
 26
0.0
 36
1.0
 17
0.0
 27
0.0
 37
0.0
 40
137.18181527593731
 41
2.197368421052631
 42
50.0
 43
0.0
 44
0.0
 50
0.0
 51
0.0
 71
     0
 72
  1000
 73
     1
 74
     3
 75
     0
 76
     1
 77
     0
 78
     1
  0
ENDTAB
  0
TABLE
  2
LTYPE
 70
     1
  0
LTYPE
  2
CONTINUOUS
 70
     0
  3
Solid line
 72
    65
 73
     0
 40
0.0
  0
ENDTAB
  0
TABLE
  2
LAYER
 70
     1
  0
LAYER
  2
0
 70
     0
 62
     7
  6
CONTINUOUS
  0
ENDTAB
  0
TABLE
  2
STYLE
 70
     2
  0
STYLE
  2
STANDARD
 70
     0
 40
0.0
 41
1.0
 50
0.0
 71
     0
 42
2.5
  3
txt
  4

  0
STYLE
  2
ANNOTATIVE
 70
     0
 40
0.0
 41
1.0
 50
0.0
 71
     0
 42
2.5
  3
txt
  4

  0
ENDTAB
  0
TABLE
  2
VIEW
 70
     0
  0
ENDTAB
  0
TABLE
  2
UCS
 70
     0
  0
ENDTAB
  0
TABLE
  2
APPID
 70
    10
  0
APPID
  2
ACAD
 70
     0
  0
APPID
  2
ACADANNOTATIVE
 70
     0
  0
APPID
  2
ACAD_PSEXT
 70
     0
  0
APPID
  2
ACADANNOPO
 70
     0
  0
APPID
  2
ACAD_DSTYLE_DIMJAG
 70
     0
  0
APPID
  2
ACAD_DSTYLE_DIMTALN
 70
     0
  0
APPID
  2
ACAD_MLEADERVER
 70
     0
  0
APPID
  2
ACAD_NAV_VCDISPLAY
 70
     0
  0
APPID
  2
ACAD_DSTYLE_DIMRADIAL_EXTENSION
 70
     0
  0
APPID
  2
ACAD_EXEMPT_FROM_CAD_STANDARDS
 70
     0
  0
ENDTAB
  0
TABLE
  2
DIMSTYLE
 70
     3
  0
DIMSTYLE
  2
STANDARD
 70
     0
  3

  4

  5

  6

  7

 40
1.0
 41
0.18
 42
0.0625
 43
0.38
 44
0.18
 45
0.0
 46
0.0
 47
0.0
 48
0.0
140
0.18
141
0.09
142
0.0
143
25.399999999999999
144
1.0
145
0.0
146
1.0
147
0.09
 71
     0
 72
     0
 73
     1
 74
     1
 75
     0
 76
     0
 77
     0
 78
     0
170
     0
171
     2
172
     0
173
     0
174
     0
175
     0
176
     0
177
     0
178
     0
  0
DIMSTYLE
  2
ANNOTATIVE
 70
     0
  3

  4

  5

  6

  7

 40
0.0
 41
2.5
 42
0.625
 43
3.75
 44
1.25
 45
0.0
 46
0.0
 47
0.0
 48
0.0
140
2.5
141
2.5
142
0.0
143
0.03937007874016
144
1.0
145
0.0
146
1.0
147
0.625
 71
     0
 72
     0
 73
     0
 74
     0
 75
     0
 76
     0
 77
     1
 78
     8
170
     0
171
     3
172
     1
173
     0
174
     0
175
     0
176
     0
177
     0
178
     0
  0
DIMSTYLE
  2
ISO-25
 70
     0
  3

  4

  5

  6

  7

 40
1.0
 41
2.5
 42
0.625
 43
3.75
 44
1.25
 45
0.0
 46
0.0
 47
0.0
 48
0.0
140
2.5
141
2.5
142
0.0
143
0.03937007874016
144
1.0
145
0.0
146
1.0
147
0.625
 71
     0
 72
     0
 73
     0
 74
     0
 75
     0
 76
     0
 77
     1
 78
     8
170
     0
171
     3
172
     1
173
     0
174
     0
175
     0
176
     0
177
     0
178
     0
  0
ENDTAB
  0
ENDSEC
  0
SECTION
  2
BLOCKS
  0
BLOCK
  8
0
  2
$MODEL_SPACE
 70
     0
 10
0.0
 20
0.0
 30
0.0
  3
$MODEL_SPACE
  1

  0
ENDBLK
  5
DC5
  8
0
  0
BLOCK
 67
     1
  8
0
  2
$PAPER_SPACE
 70
     0
 10
0.0
 20
0.0
 30
0.0
  3
$PAPER_SPACE
  1

  0
ENDBLK
  5
DC1
 67
     1
  8
0
  0
ENDSEC
  0
SECTION
  2
ENTITIES
  0
POLYLINE
  5
9FF
  8
0
 66
     1
 10
0.0
 20
0.0
 30
0.0
 70
     1
  0
VERTEX
  5
E64
  8
0
 10
1571.8798659387519
 20
588.26941765846959
 30
0.0
 42
-1.0
  0
VERTEX
  5
E65
  8
0
 10
1568.879865938751
 20
588.26941765846959
 30
0.0
 42
-1.0
  0
SEQEND
  5
E66
  8
0
  0
POLYLINE
  5
A00
  8
0
 66
     1
 10
0.0
 20
0.0
 30
0.0
 70
     1
  0
VERTEX
  5
E67
  8
0
 10
1568.879865938751
 20
668.26941765846948
 30
0.0
 42
-1.0
  0
VERTEX
  5
E68
  8
0
 10
1571.8798659387519
 20
668.26941765846948
 30
0.0
 42
-1.0
  0
SEQEND
  5
E69
  8
0
  0
POLYLINE
  5
A01
  8
0
 66
     1
 10
0.0
 20
0.0
 30
0.0
 70
     1
  0
VERTEX
  5
E6A
  8
0
 10
1626.8798659387519
 20
593.26941765846948
 30
0.0
 42
-1.0
  0
VERTEX
  5
E6B
  8
0
 10
1623.879865938751
 20
593.26941765846948
 30
0.0
 42
-1.0
  0
SEQEND
  5
E6C
  8
0
  0
POLYLINE
  5
A02
  8
0
 66
     1
 10
0.0
 20
0.0
 30
0.0
 70
     1
  0
VERTEX
  5
E6D
  8
0
 10
1623.879865938751
 20
663.26941765846959
 30
0.0
 42
-1.0
  0
VERTEX
  5
E6E
  8
0
 10
1626.8798659387519
 20
663.26941765846959
 30
0.0
 42
-1.0
  0
SEQEND
  5
E6F
  8
0
  0
POLYLINE
  5
A0D
  8
0
 66
     1
 10
0.0
 20
0.0
 30
0.0
 70
     1
  0
VERTEX
  5
E70
  8
0
 10
1599.779865938752
 20
600.76941765847278
 30
0.0
  0
VERTEX
  5
E71
  8
0
 10
1599.779865938752
 20
593.769417658473
 30
0.0
  0
VERTEX
  5
E72
  8
0
 10
1589.779865938752
 20
593.76941765847175
 30
0.0
  0
VERTEX
  5
E73
  8
0
 10
1589.779865938752
 20
600.76941765847198
 30
0.0
  0
SEQEND
  5
E74
  8
0
  0
POLYLINE
  5
A0E
  8
0
 66
     1
 10
0.0
 20
0.0
 30
0.0
 70
     1
  0
VERTEX
  5
E75
  8
0
 10
1619.1798659387509
 20
596.26941765847516
 30
0.0
  0
VERTEX
  5
E76
  8
0
 10
1619.1798659387509
 20
645.26941765847528
 30
0.0
  0
VERTEX
  5
E77
  8
0
 10
1616.4798659387459
 20
645.26941765847528
 30
0.0
  0
VERTEX
  5
E78
  8
0
 10
1616.4798659387509
 20
596.26941765847494
 30
0.0
  0
SEQEND
  5
E79
  8
0
  0
POLYLINE
  5
A0F
  8
0
 66
     1
 10
0.0
 20
0.0
 30
0.0
 70
     1
  0
VERTEX
  5
E7A
  8
0
 10
1570.7798659387511
 20
596.26941765846959
 30
0.0
  0
VERTEX
  5
E7B
  8
0
 10
1570.7798659387511
 20
636.26941765846982
 30
0.0
  0
VERTEX
  5
E7C
  8
0
 10
1568.0798659387519
 20
636.26941765846982
 30
0.0
  0
VERTEX
  5
E7D
  8
0
 10
1568.0798659387519
 20
596.26941765846948
 30
0.0
  0
SEQEND
  5
E7E
  8
0
  0
CIRCLE
  5
A10
  8
0
 10
1646.9634860984261
 20
618.26941765840809
 30
0.0
 40
1.5
  0
CIRCLE
  5
A11
  8
0
 10
1626.9634860984261
 20
618.26941765840809
 30
0.0
 40
1.5
  0
CIRCLE
  5
A12
  8
0
 10
1636.9634860984249
 20
608.26941765840775
 30
0.0
 40
1.5
  0
CIRCLE
  5
A13
  8
0
 10
1636.9634860984249
 20
628.26941765840797
 30
0.0
 40
1.5
  0
CIRCLE
  5
A14
  8
0
 10
1646.9634860984261
 20
638.26941765840809
 30
0.0
 40
1.5
  0
CIRCLE
  5
A15
  8
0
 10
1626.9634860984261
 20
638.26941765840809
 30
0.0
 40
1.5
  0
CIRCLE
  5
A16
  8
0
 10
1636.9634860984249
 20
648.26941765840809
 30
0.0
 40
1.5
  0
CIRCLE
  5
A17
  8
0
 10
1604.7798659387511
 20
614.26941765847232
 30
0.0
 40
1.5
  0
CIRCLE
  5
A18
  8
0
 10
1584.7798659387511
 20
614.26941765847232
 30
0.0
 40
1.5
  0
CIRCLE
  5
A19
  8
0
 10
1594.7798659387511
 20
604.26941765847232
 30
0.0
 40
1.5
  0
CIRCLE
  5
A1A
  8
0
 10
1594.7798659387511
 20
624.26941765847232
 30
0.0
 40
1.5
  0
CIRCLE
  5
A1B
  8
0
 10
1604.7798659387511
 20
634.26941765847232
 30
0.0
 40
1.5
  0
CIRCLE
  5
A1C
  8
0
 10
1584.7798659387511
 20
634.26941765847232
 30
0.0
 40
1.5
  0
CIRCLE
  5
A1D
  8
0
 10
1594.7798659387511
 20
644.26941765847232
 30
0.0
 40
1.5
  0
CIRCLE
  5
A1E
  8
0
 10
1604.7798659387461
 20
669.76941765840797
 30
0.0
 40
1.5
  0
CIRCLE
  5
A1F
  8
0
 10
1604.7798659387461
 20
649.76941765840775
 30
0.0
 40
1.5
  0
CIRCLE
  5
A20
  8
0
 10
1614.7798659387461
 20
659.76941765840809
 30
0.0
 40
1.5
  0
CIRCLE
  5
A21
  8
0
 10
1594.7798659387461
 20
659.76941765840809
 30
0.0
 40
1.5
  0
CIRCLE
  5
A22
  8
0
 10
1584.7798659387461
 20
669.76941765840797
 30
0.0
 40
1.5
  0
CIRCLE
  5
A23
  8
0
 10
1584.7798659387461
 20
649.76941765840775
 30
0.0
 40
1.5
  0
CIRCLE
  5
A24
  8
0
 10
1574.7798659387461
 20
659.76941765840809
 30
0.0
 40
1.5
  0
CIRCLE
  5
A36
  8
0
 10
1559.029865938752
 20
665.51941765840581
 30
0.0
 40
1.5
  0
CIRCLE
  5
A37
  8
0
 10
1528.529865938752
 20
665.51941765840502
 30
0.0
 40
1.5
  0
CIRCLE
  5
A38
  8
0
 10
1528.529865938754
 20
591.01941765840502
 30
0.0
 40
1.5
  0
CIRCLE
  5
A39
  8
0
 10
1559.029865938752
 20
591.01941765840502
 30
0.0
 40
1.5
  0
POLYLINE
  5
A42
  8
0
 66
     1
 10
0.0
 20
0.0
 30
0.0
 70
     1
  0
VERTEX
  5
E7F
  8
0
 10
1600.526013875306
 20
675.10559274981756
 30
0.0
 42
0.0226379703774773
  0
VERTEX
  5
E80
  8
0
 10
1596.9095025603581
 20
675.26941765846595
 30
0.0
  0
VERTEX
  5
E81
  8
0
 10
1524.8175218735821
 20
675.26941765846595
 30
0.0
 42
0.3910672030955031
  0
VERTEX
  5
E82
  8
0
 10
1521.827037354499
 20
672.50816928909035
 30
0.0
 42
-0.2364219845209362
  0
VERTEX
  5
E83
  8
0
 10
1498.650415891984
 20
634.19091973421087
 30
0.0
 42
0.55170626502125
  0
VERTEX
  5
E84
  8
0
 10
1498.6504158919849
 20
622.34791558259769
 30
0.0
 42
-0.2364219845203022
  0
VERTEX
  5
E85
  8
0
 10
1521.8270373544899
 20
584.03066602783815
 30
0.0
 42
0.3910672030948337
  0
VERTEX
  5
E86
  8
0
 10
1524.8175218735721
 20
581.26941765846937
 30
0.0
  0
VERTEX
  5
E87
  8
0
 10
1596.909502560733
 20
581.26941765847255
 30
0.0
 42
0.0226379703799044
  0
VERTEX
  5
E88
  8
0
 10
1600.5260138760691
 20
581.43324256715619
 30
0.0
 42
0.2743309353464285
  0
VERTEX
  5
E89
  8
0
 10
1662.5505168797549
 20
626.27965671519576
 30
0.0
 42
0.2075471528769102
  0
VERTEX
  5
E8A
  8
0
 10
1662.5505168797581
 20
630.25917860161314
 30
0.0
 42
0.2743309353494095
  0
SEQEND
  5
E8B
  8
0
  0
CIRCLE
  5
DDD
  8
0
 10
1558.0798659387519
 20
618.26941765840445
 30
0.0
 40
1.5
  0
CIRCLE
  5
DDE
  8
0
 10
1538.0798659387519
 20
618.26941765840445
 30
0.0
 40
1.5
  0
CIRCLE
  5
DDF
  8
0
 10
1548.0798659387519
 20
608.26941765840456
 30
0.0
 40
1.5
  0
CIRCLE
  5
DE0
  8
0
 10
1548.0798659387519
 20
628.26941765840445
 30
0.0
 40
1.5
  0
CIRCLE
  5
DE1
  8
0
 10
1558.0798659387519
 20
638.26941765840445
 30
0.0
 40
1.5
  0
CIRCLE
  5
DE2
  8
0
 10
1538.0798659387519
 20
638.26941765840445
 30
0.0
 40
1.5
  0
CIRCLE
  5
DE3
  8
0
 10
1548.0798659387519
 20
648.26941765840445
 30
0.0
 40
1.5
  0
ENDSEC
  0
EOF
