  0
SECTION
  2
HEADER
  9
$ACADVER
  1
AC1009
  9
$INSBASE
 10
0.0
 20
0.0
 30
0.0
  9
$EXTMIN
 10
1493.7366612316439
 20
368.6430075583682
 30
0.0
  9
$EXTMAX
 10
1601.736661231645
 20
514.64300755836985
 30
0.0
  9
$LIMMIN
 10
0.0
 20
0.0
  9
$LIMMAX
 10
420.0
 20
297.0
  9
$ORTHOMODE
 70
     0
  9
$REGENMODE
 70
     1
  9
$FILLMODE
 70
     1
  9
$QTEXTMODE
 70
     0
  9
$MIRRTEXT
 70
     0
  9
$DRAGMODE
 70
     2
  9
$LTSCALE
 40
1.0
  9
$OSMODE
 70
   695
  9
$ATTMODE
 70
     1
  9
$TEXTSIZE
 40
2.5
  9
$TRACEWID
 40
1.0
  9
$TEXTSTYLE
  7
STANDARD
  9
$CLAYER
  8
0
  9
$CELTYPE
  6
BYLAYER
  9
$CECOLOR
 62
   256
  9
$DIMSCALE
 40
1.0
  9
$DIMASZ
 40
2.5
  9
$DIMEXO
 40
0.625
  9
$DIMDLI
 40
3.75
  9
$DIMRND
 40
0.0
  9
$DIMDLE
 40
0.0
  9
$DIMEXE
 40
1.25
  9
$DIMTP
 40
0.0
  9
$DIMTM
 40
0.0
  9
$DIMTXT
 40
2.5
  9
$DIMCEN
 40
2.5
  9
$DIMTSZ
 40
0.0
  9
$DIMTOL
 70
     0
  9
$DIMLIM
 70
     0
  9
$DIMTIH
 70
     0
  9
$DIMTOH
 70
     0
  9
$DIMSE1
 70
     0
  9
$DIMSE2
 70
     0
  9
$DIMTAD
 70
     1
  9
$DIMZIN
 70
     8
  9
$DIMBLK
  1

  9
$DIMASO
 70
     1
  9
$DIMSHO
 70
     1
  9
$DIMPOST
  1

  9
$DIMAPOST
  1

  9
$DIMALT
 70
     0
  9
$DIMALTD
 70
     3
  9
$DIMALTF
 40
0.03937007874016
  9
$DIMLFAC
 40
1.0
  9
$DIMTOFL
 70
     1
  9
$DIMTVP
 40
0.0
  9
$DIMTIX
 70
     0
  9
$DIMSOXD
 70
     0
  9
$DIMSAH
 70
     0
  9
$DIMBLK1
  1

  9
$DIMBLK2
  1

  9
$DIMSTYLE
  2
ISO-25
  9
$DIMCLRD
 70
     0
  9
$DIMCLRE
 70
     0
  9
$DIMCLRT
 70
     0
  9
$DIMTFAC
 40
1.0
  9
$DIMGAP
 40
0.625
  9
$LUNITS
 70
     2
  9
$LUPREC
 70
     4
  9
$SKETCHINC
 40
1.0
  9
$FILLETRAD
 40
0.0
  9
$AUNITS
 70
     0
  9
$AUPREC
 70
     0
  9
$MENU
  1
.
  9
$ELEVATION
 40
0.0
  9
$PELEVATION
 40
0.0
  9
$THICKNESS
 40
0.0
  9
$LIMCHECK
 70
     0
  9
$BLIPMODE
 70
     0
  9
$CHAMFERA
 40
0.0
  9
$CHAMFERB
 40
0.0
  9
$SKPOLY
 70
     0
  9
$TDCREATE
 40
2456928.591344005
  9
$TDUPDATE
 40
2457143.4051834028
  9
$TDINDWG
 40
0.3311462847
  9
$TDUSRTIMER
 40
0.3311459838
  9
$USRTIMER
 70
     1
  9
$ANGBASE
 50
0.0
  9
$ANGDIR
 70
     0
  9
$PDMODE
 70
     0
  9
$PDSIZE
 40
0.0
  9
$PLINEWID
 40
0.0
  9
$COORDS
 70
     0
  9
$SPLFRAME
 70
     0
  9
$SPLINETYPE
 70
     6
  9
$SPLINESEGS
 70
     8
  9
$ATTDIA
 70
     0
  9
$ATTREQ
 70
     1
  9
$HANDLING
 70
     1
  9
$HANDSEED
  5
5BA
  9
$SURFTAB1
 70
     6
  9
$SURFTAB2
 70
     6
  9
$SURFTYPE
 70
     6
  9
$SURFU
 70
     6
  9
$SURFV
 70
     6
  9
$UCSNAME
  2

  9
$UCSORG
 10
0.0
 20
0.0
 30
0.0
  9
$UCSXDIR
 10
1.0
 20
0.0
 30
0.0
  9
$UCSYDIR
 10
0.0
 20
1.0
 30
0.0
  9
$PUCSNAME
  2

  9
$PUCSORG
 10
0.0
 20
0.0
 30
0.0
  9
$PUCSXDIR
 10
1.0
 20
0.0
 30
0.0
  9
$PUCSYDIR
 10
0.0
 20
1.0
 30
0.0
  9
$USERI1
 70
     0
  9
$USERI2
 70
     0
  9
$USERI3
 70
     0
  9
$USERI4
 70
     0
  9
$USERI5
 70
     0
  9
$USERR1
 40
0.0
  9
$USERR2
 40
0.0
  9
$USERR3
 40
0.0
  9
$USERR4
 40
0.0
  9
$USERR5
 40
0.0
  9
$WORLDVIEW
 70
     1
  9
$SHADEDGE
 70
     3
  9
$SHADEDIF
 70
    70
  9
$TILEMODE
 70
     1
  9
$MAXACTVP
 70
    64
  9
$PLIMCHECK
 70
     0
  9
$PEXTMIN
 10
0.0
 20
0.0
 30
0.0
  9
$PEXTMAX
 10
0.0
 20
0.0
 30
0.0
  9
$PLIMMIN
 10
0.0
 20
0.0
  9
$PLIMMAX
 10
12.0
 20
9.0
  9
$UNITMODE
 70
     0
  9
$VISRETAIN
 70
     1
  9
$PLINEGEN
 70
     0
  9
$PSLTSCALE
 70
     1
  0
ENDSEC
  0
SECTION
  2
TABLES
  0
TABLE
  2
VPORT
 70
     1
  0
VPORT
  2
*ACTIVE
 70
     0
 10
0.0
 20
0.0
 11
1.0
 21
1.0
 12
1569.7568886427839
 22
380.99429596202879
 13
0.0
 23
0.0
 14
10.0
 24
10.0
 15
10.0
 25
10.0
 16
0.0
 26
0.0
 36
1.0
 17
0.0
 27
0.0
 37
0.0
 40
1087.0723413505
 41
2.197368421052631
 42
50.0
 43
0.0
 44
0.0
 50
0.0
 51
0.0
 71
     0
 72
  1000
 73
     1
 74
     3
 75
     0
 76
     1
 77
     0
 78
     0
  0
ENDTAB
  0
TABLE
  2
LTYPE
 70
     1
  0
LTYPE
  2
CONTINUOUS
 70
     0
  3
Solid line
 72
    65
 73
     0
 40
0.0
  0
ENDTAB
  0
TABLE
  2
LAYER
 70
     1
  0
LAYER
  2
0
 70
     0
 62
     7
  6
CONTINUOUS
  0
ENDTAB
  0
TABLE
  2
STYLE
 70
     2
  0
STYLE
  2
STANDARD
 70
     0
 40
0.0
 41
1.0
 50
0.0
 71
     0
 42
2.5
  3
txt
  4

  0
STYLE
  2
ANNOTATIVE
 70
     0
 40
0.0
 41
1.0
 50
0.0
 71
     0
 42
2.5
  3
txt
  4

  0
ENDTAB
  0
TABLE
  2
VIEW
 70
     0
  0
ENDTAB
  0
TABLE
  2
UCS
 70
     0
  0
ENDTAB
  0
TABLE
  2
APPID
 70
     8
  0
APPID
  2
ACAD
 70
     0
  0
APPID
  2
ACADANNOTATIVE
 70
     0
  0
APPID
  2
ACAD_PSEXT
 70
     0
  0
APPID
  2
ACADANNOPO
 70
     0
  0
APPID
  2
ACAD_DSTYLE_DIMJAG
 70
     0
  0
APPID
  2
ACAD_DSTYLE_DIMTALN
 70
     0
  0
APPID
  2
ACAD_MLEADERVER
 70
     0
  0
APPID
  2
ACAD_NAV_VCDISPLAY
 70
     0
  0
ENDTAB
  0
TABLE
  2
DIMSTYLE
 70
     3
  0
DIMSTYLE
  2
STANDARD
 70
     0
  3

  4

  5

  6

  7

 40
1.0
 41
0.18
 42
0.0625
 43
0.38
 44
0.18
 45
0.0
 46
0.0
 47
0.0
 48
0.0
140
0.18
141
0.09
142
0.0
143
25.399999999999999
144
1.0
145
0.0
146
1.0
147
0.09
 71
     0
 72
     0
 73
     1
 74
     1
 75
     0
 76
     0
 77
     0
 78
     0
170
     0
171
     2
172
     0
173
     0
174
     0
175
     0
176
     0
177
     0
178
     0
  0
DIMSTYLE
  2
ANNOTATIVE
 70
     0
  3

  4

  5

  6

  7

 40
0.0
 41
2.5
 42
0.625
 43
3.75
 44
1.25
 45
0.0
 46
0.0
 47
0.0
 48
0.0
140
2.5
141
2.5
142
0.0
143
0.03937007874016
144
1.0
145
0.0
146
1.0
147
0.625
 71
     0
 72
     0
 73
     0
 74
     0
 75
     0
 76
     0
 77
     1
 78
     8
170
     0
171
     3
172
     1
173
     0
174
     0
175
     0
176
     0
177
     0
178
     0
  0
DIMSTYLE
  2
ISO-25
 70
     0
  3

  4

  5

  6

  7

 40
1.0
 41
2.5
 42
0.625
 43
3.75
 44
1.25
 45
0.0
 46
0.0
 47
0.0
 48
0.0
140
2.5
141
2.5
142
0.0
143
0.03937007874016
144
1.0
145
0.0
146
1.0
147
0.625
 71
     0
 72
     0
 73
     0
 74
     0
 75
     0
 76
     0
 77
     1
 78
     8
170
     0
171
     3
172
     1
173
     0
174
     0
175
     0
176
     0
177
     0
178
     0
  0
ENDTAB
  0
ENDSEC
  0
SECTION
  2
BLOCKS
  0
BLOCK
  8
0
  2
$MODEL_SPACE
 70
     0
 10
0.0
 20
0.0
 30
0.0
  3
$MODEL_SPACE
  1

  0
ENDBLK
  5
51C
  8
0
  0
BLOCK
 67
     1
  8
0
  2
$PAPER_SPACE
 70
     0
 10
0.0
 20
0.0
 30
0.0
  3
$PAPER_SPACE
  1

  0
ENDBLK
  5
518
 67
     1
  8
0
  0
ENDSEC
  0
SECTION
  2
ENTITIES
  0
POLYLINE
  5
2AD
  8
0
 66
     1
 10
0.0
 20
0.0
 30
0.0
 70
     1
  0
VERTEX
  5
54C
  8
0
 10
1601.736661231645
 20
506.64300755836967
 30
0.0
  0
VERTEX
  5
54D
  8
0
 10
1579.2366612316439
 20
506.64300755836967
 30
0.0
  0
VERTEX
  5
54E
  8
0
 10
1579.236661231645
 20
513.14300755836962
 30
0.0
 42
0.4142135623731014
  0
VERTEX
  5
54F
  8
0
 10
1577.736661231645
 20
514.64300755836962
 30
0.0
  0
VERTEX
  5
550
  8
0
 10
1568.736661231645
 20
514.64300755836985
 30
0.0
 42
0.4142135623730888
  0
VERTEX
  5
551
  8
0
 10
1567.236661231645
 20
513.14300755836985
 30
0.0
  0
VERTEX
  5
552
  8
0
 10
1567.236661231645
 20
506.64300755836967
 30
0.0
  0
VERTEX
  5
553
  8
0
 10
1541.7366612316439
 20
506.64300755836967
 30
0.0
  0
VERTEX
  5
554
  8
0
 10
1528.2366612316439
 20
506.64300755836967
 30
0.0
  0
VERTEX
  5
555
  8
0
 10
1528.236661231645
 20
513.14300755836962
 30
0.0
 42
0.4142135623731014
  0
VERTEX
  5
556
  8
0
 10
1526.736661231645
 20
514.64300755836962
 30
0.0
  0
VERTEX
  5
557
  8
0
 10
1517.7366612316439
 20
514.64300755836985
 30
0.0
 42
0.4142135623730896
  0
VERTEX
  5
558
  8
0
 10
1516.236661231645
 20
513.14300755836985
 30
0.0
  0
VERTEX
  5
559
  8
0
 10
1516.2366612316439
 20
506.64300755836967
 30
0.0
  0
VERTEX
  5
55A
  8
0
 10
1493.7366612316439
 20
506.64300755836967
 30
0.0
  0
VERTEX
  5
55B
  8
0
 10
1493.7366612316439
 20
437.64300755836962
 30
0.0
  0
VERTEX
  5
55C
  8
0
 10
1493.7366612316439
 20
376.6430075583699
 30
0.0
  0
VERTEX
  5
55D
  8
0
 10
1500.2366612316439
 20
376.6430075583699
 30
0.0
  0
VERTEX
  5
55E
  8
0
 10
1500.2366612316439
 20
370.1430075583682
 30
0.0
 42
0.4142135623730951
  0
VERTEX
  5
55F
  8
0
 10
1501.7366612316439
 20
368.6430075583682
 30
0.0
 42
0.4142135623730951
  0
VERTEX
  5
560
  8
0
 10
1503.2366612316439
 20
370.1430075583682
 30
0.0
  0
VERTEX
  5
561
  8
0
 10
1503.2366612316439
 20
376.6430075583699
 30
0.0
  0
VERTEX
  5
562
  8
0
 10
1537.9866612316439
 20
376.6430075583699
 30
0.0
  0
VERTEX
  5
563
  8
0
 10
1537.986661231645
 20
370.64300755836967
 30
0.0
 42
0.4142135623730847
  0
VERTEX
  5
564
  8
0
 10
1539.986661231645
 20
368.64300755836967
 30
0.0
  0
VERTEX
  5
565
  8
0
 10
1555.486661231645
 20
368.64300755836967
 30
0.0
 42
0.4142135623731054
  0
VERTEX
  5
566
  8
0
 10
1557.486661231645
 20
370.6430075583699
 30
0.0
  0
VERTEX
  5
567
  8
0
 10
1557.4866612316439
 20
376.6430075583699
 30
0.0
  0
VERTEX
  5
568
  8
0
 10
1592.236661231645
 20
376.6430075583699
 30
0.0
  0
VERTEX
  5
569
  8
0
 10
1592.236661231645
 20
370.14300755837093
 30
0.0
 42
0.4142135623730951
  0
VERTEX
  5
56A
  8
0
 10
1593.7366612316439
 20
368.64300755837093
 30
0.0
 42
0.4142135623730951
  0
VERTEX
  5
56B
  8
0
 10
1595.2366612316439
 20
370.14300755837093
 30
0.0
  0
VERTEX
  5
56C
  8
0
 10
1595.2366612316439
 20
376.6430075583699
 30
0.0
  0
VERTEX
  5
56D
  8
0
 10
1601.736661231645
 20
376.6430075583699
 30
0.0
  0
VERTEX
  5
56E
  8
0
 10
1601.736661231645
 20
437.64300755836962
 30
0.0
  0
SEQEND
  5
56F
  8
0
  0
POLYLINE
  5
539
  8
0
 66
     1
 10
0.0
 20
0.0
 30
0.0
 70
     1
  0
VERTEX
  5
5AB
  8
0
 10
1525.636661231644
 20
509.99300755836958
 30
0.0
  0
VERTEX
  5
5AC
  8
0
 10
1518.836661231644
 20
509.99300755836958
 30
0.0
  0
VERTEX
  5
5AD
  8
0
 10
1518.836661231644
 20
513.29300755836971
 30
0.0
  0
VERTEX
  5
5AE
  8
0
 10
1525.636661231644
 20
513.29300755836971
 30
0.0
  0
SEQEND
  5
5AF
  8
0
  0
POLYLINE
  5
53C
  8
0
 66
     1
 10
0.0
 20
0.0
 30
0.0
 70
     1
  0
VERTEX
  5
5B0
  8
0
 10
1569.836661231644
 20
509.99300755836958
 30
0.0
  0
VERTEX
  5
5B1
  8
0
 10
1569.836661231644
 20
513.29300755836971
 30
0.0
  0
VERTEX
  5
5B2
  8
0
 10
1576.636661231644
 20
513.29300755836971
 30
0.0
  0
VERTEX
  5
5B3
  8
0
 10
1576.636661231644
 20
509.99300755836958
 30
0.0
  0
SEQEND
  5
5B4
  8
0
  0
POLYLINE
  5
53D
  8
0
 66
     1
 10
0.0
 20
0.0
 30
0.0
 70
     1
  0
VERTEX
  5
5B5
  8
0
 10
1551.136661231644
 20
373.29300755836971
 30
0.0
  0
VERTEX
  5
5B6
  8
0
 10
1551.136661231644
 20
369.99300755836981
 30
0.0
  0
VERTEX
  5
5B7
  8
0
 10
1544.336661231644
 20
369.99300755836981
 30
0.0
  0
VERTEX
  5
5B8
  8
0
 10
1544.336661231644
 20
373.29300755836971
 30
0.0
  0
SEQEND
  5
5B9
  8
0
  0
ENDSEC
  0
EOF
