  0
SECTION
  2
HEADER
  9
$ACADVER
  1
AC1009
  9
$INSBASE
 10
0.0
 20
0.0
 30
0.0
  9
$EXTMIN
 10
2963.4487254354958
 20
1617.724532241773
 30
0.0
  9
$EXTMAX
 10
3082.4487254355809
 20
1736.7245322417741
 30
0.0
  9
$LIMMIN
 10
0.0
 20
0.0
  9
$LIMMAX
 10
420.0
 20
297.0
  9
$ORTHOMODE
 70
     0
  9
$REGENMODE
 70
     1
  9
$FILLMODE
 70
     1
  9
$QTEXTMODE
 70
     0
  9
$MIRRTEXT
 70
     0
  9
$DRAGMODE
 70
     2
  9
$LTSCALE
 40
1.0
  9
$OSMODE
 70
   695
  9
$ATTMODE
 70
     1
  9
$TEXTSIZE
 40
2.5
  9
$TRACEWID
 40
1.0
  9
$TEXTSTYLE
  7
STANDARD
  9
$CLAYER
  8
0
  9
$CELTYPE
  6
BYLAYER
  9
$CECOLOR
 62
   256
  9
$DIMSCALE
 40
1.0
  9
$DIMASZ
 40
2.5
  9
$DIMEXO
 40
0.625
  9
$DIMDLI
 40
3.75
  9
$DIMRND
 40
0.0
  9
$DIMDLE
 40
0.0
  9
$DIMEXE
 40
1.25
  9
$DIMTP
 40
0.0
  9
$DIMTM
 40
0.0
  9
$DIMTXT
 40
2.5
  9
$DIMCEN
 40
2.5
  9
$DIMTSZ
 40
0.0
  9
$DIMTOL
 70
     0
  9
$DIMLIM
 70
     0
  9
$DIMTIH
 70
     0
  9
$DIMTOH
 70
     0
  9
$DIMSE1
 70
     0
  9
$DIMSE2
 70
     0
  9
$DIMTAD
 70
     1
  9
$DIMZIN
 70
     8
  9
$DIMBLK
  1

  9
$DIMASO
 70
     1
  9
$DIMSHO
 70
     1
  9
$DIMPOST
  1

  9
$DIMAPOST
  1

  9
$DIMALT
 70
     0
  9
$DIMALTD
 70
     3
  9
$DIMALTF
 40
0.03937007874016
  9
$DIMLFAC
 40
1.0
  9
$DIMTOFL
 70
     1
  9
$DIMTVP
 40
0.0
  9
$DIMTIX
 70
     0
  9
$DIMSOXD
 70
     0
  9
$DIMSAH
 70
     0
  9
$DIMBLK1
  1

  9
$DIMBLK2
  1

  9
$DIMSTYLE
  2
ISO-25
  9
$DIMCLRD
 70
     0
  9
$DIMCLRE
 70
     0
  9
$DIMCLRT
 70
     0
  9
$DIMTFAC
 40
1.0
  9
$DIMGAP
 40
0.625
  9
$LUNITS
 70
     2
  9
$LUPREC
 70
     4
  9
$SKETCHINC
 40
1.0
  9
$FILLETRAD
 40
0.0
  9
$AUNITS
 70
     0
  9
$AUPREC
 70
     0
  9
$MENU
  1
.
  9
$ELEVATION
 40
0.0
  9
$PELEVATION
 40
0.0
  9
$THICKNESS
 40
0.0
  9
$LIMCHECK
 70
     0
  9
$BLIPMODE
 70
     0
  9
$CHAMFERA
 40
0.0
  9
$CHAMFERB
 40
0.0
  9
$SKPOLY
 70
     0
  9
$TDCREATE
 40
2456928.6641123849
  9
$TDUPDATE
 40
2457143.4729036349
  9
$TDINDWG
 40
0.1144296296
  9
$TDUSRTIMER
 40
0.114427419
  9
$USRTIMER
 70
     1
  9
$ANGBASE
 50
0.0
  9
$ANGDIR
 70
     0
  9
$PDMODE
 70
     0
  9
$PDSIZE
 40
0.0
  9
$PLINEWID
 40
0.0
  9
$COORDS
 70
     0
  9
$SPLFRAME
 70
     0
  9
$SPLINETYPE
 70
     6
  9
$SPLINESEGS
 70
     8
  9
$ATTDIA
 70
     0
  9
$ATTREQ
 70
     1
  9
$HANDLING
 70
     1
  9
$HANDSEED
  5
8F2
  9
$SURFTAB1
 70
     6
  9
$SURFTAB2
 70
     6
  9
$SURFTYPE
 70
     6
  9
$SURFU
 70
     6
  9
$SURFV
 70
     6
  9
$UCSNAME
  2

  9
$UCSORG
 10
0.0
 20
0.0
 30
0.0
  9
$UCSXDIR
 10
1.0
 20
0.0
 30
0.0
  9
$UCSYDIR
 10
0.0
 20
1.0
 30
0.0
  9
$PUCSNAME
  2

  9
$PUCSORG
 10
0.0
 20
0.0
 30
0.0
  9
$PUCSXDIR
 10
1.0
 20
0.0
 30
0.0
  9
$PUCSYDIR
 10
0.0
 20
1.0
 30
0.0
  9
$USERI1
 70
     0
  9
$USERI2
 70
     0
  9
$USERI3
 70
     0
  9
$USERI4
 70
     0
  9
$USERI5
 70
     0
  9
$USERR1
 40
0.0
  9
$USERR2
 40
0.0
  9
$USERR3
 40
0.0
  9
$USERR4
 40
0.0
  9
$USERR5
 40
0.0
  9
$WORLDVIEW
 70
     1
  9
$SHADEDGE
 70
     3
  9
$SHADEDIF
 70
    70
  9
$TILEMODE
 70
     1
  9
$MAXACTVP
 70
    64
  9
$PLIMCHECK
 70
     0
  9
$PEXTMIN
 10
0.0
 20
0.0
 30
0.0
  9
$PEXTMAX
 10
0.0
 20
0.0
 30
0.0
  9
$PLIMMIN
 10
0.0
 20
0.0
  9
$PLIMMAX
 10
12.0
 20
9.0
  9
$UNITMODE
 70
     0
  9
$VISRETAIN
 70
     1
  9
$PLINEGEN
 70
     0
  9
$PSLTSCALE
 70
     1
  0
ENDSEC
  0
SECTION
  2
TABLES
  0
TABLE
  2
VPORT
 70
     1
  0
VPORT
  2
*ACTIVE
 70
     0
 10
0.0
 20
0.0
 11
1.0
 21
1.0
 12
3284.4572758248132
 22
1793.215126852949
 13
0.0
 23
0.0
 14
10.0
 24
10.0
 15
10.0
 25
10.0
 16
0.0
 26
0.0
 36
1.0
 17
0.0
 27
0.0
 37
0.0
 40
857.44856827735475
 41
2.197368421052631
 42
50.0
 43
0.0
 44
0.0
 50
0.0
 51
0.0
 71
     0
 72
  1000
 73
     1
 74
     3
 75
     0
 76
     1
 77
     0
 78
     0
  0
ENDTAB
  0
TABLE
  2
LTYPE
 70
     1
  0
LTYPE
  2
CONTINUOUS
 70
     0
  3
Solid line
 72
    65
 73
     0
 40
0.0
  0
ENDTAB
  0
TABLE
  2
LAYER
 70
     1
  0
LAYER
  2
0
 70
     0
 62
     7
  6
CONTINUOUS
  0
ENDTAB
  0
TABLE
  2
STYLE
 70
     2
  0
STYLE
  2
STANDARD
 70
     0
 40
0.0
 41
1.0
 50
0.0
 71
     0
 42
2.5
  3
txt
  4

  0
STYLE
  2
ANNOTATIVE
 70
     0
 40
0.0
 41
1.0
 50
0.0
 71
     0
 42
2.5
  3
txt
  4

  0
ENDTAB
  0
TABLE
  2
VIEW
 70
     0
  0
ENDTAB
  0
TABLE
  2
UCS
 70
     0
  0
ENDTAB
  0
TABLE
  2
APPID
 70
     8
  0
APPID
  2
ACAD
 70
     0
  0
APPID
  2
ACADANNOTATIVE
 70
     0
  0
APPID
  2
ACAD_PSEXT
 70
     0
  0
APPID
  2
ACADANNOPO
 70
     0
  0
APPID
  2
ACAD_DSTYLE_DIMJAG
 70
     0
  0
APPID
  2
ACAD_DSTYLE_DIMTALN
 70
     0
  0
APPID
  2
ACAD_MLEADERVER
 70
     0
  0
APPID
  2
ACAD_NAV_VCDISPLAY
 70
     0
  0
ENDTAB
  0
TABLE
  2
DIMSTYLE
 70
     3
  0
DIMSTYLE
  2
STANDARD
 70
     0
  3

  4

  5

  6

  7

 40
1.0
 41
0.18
 42
0.0625
 43
0.38
 44
0.18
 45
0.0
 46
0.0
 47
0.0
 48
0.0
140
0.18
141
0.09
142
0.0
143
25.399999999999999
144
1.0
145
0.0
146
1.0
147
0.09
 71
     0
 72
     0
 73
     1
 74
     1
 75
     0
 76
     0
 77
     0
 78
     0
170
     0
171
     2
172
     0
173
     0
174
     0
175
     0
176
     0
177
     0
178
     0
  0
DIMSTYLE
  2
ANNOTATIVE
 70
     0
  3

  4

  5

  6

  7

 40
0.0
 41
2.5
 42
0.625
 43
3.75
 44
1.25
 45
0.0
 46
0.0
 47
0.0
 48
0.0
140
2.5
141
2.5
142
0.0
143
0.03937007874016
144
1.0
145
0.0
146
1.0
147
0.625
 71
     0
 72
     0
 73
     0
 74
     0
 75
     0
 76
     0
 77
     1
 78
     8
170
     0
171
     3
172
     1
173
     0
174
     0
175
     0
176
     0
177
     0
178
     0
  0
DIMSTYLE
  2
ISO-25
 70
     0
  3

  4

  5

  6

  7

 40
1.0
 41
2.5
 42
0.625
 43
3.75
 44
1.25
 45
0.0
 46
0.0
 47
0.0
 48
0.0
140
2.5
141
2.5
142
0.0
143
0.03937007874016
144
1.0
145
0.0
146
1.0
147
0.625
 71
     0
 72
     0
 73
     0
 74
     0
 75
     0
 76
     0
 77
     1
 78
     8
170
     0
171
     3
172
     1
173
     0
174
     0
175
     0
176
     0
177
     0
178
     0
  0
ENDTAB
  0
ENDSEC
  0
SECTION
  2
BLOCKS
  0
BLOCK
  8
0
  2
$MODEL_SPACE
 70
     0
 10
0.0
 20
0.0
 30
0.0
  3
$MODEL_SPACE
  1

  0
ENDBLK
  5
41B
  8
0
  0
BLOCK
 67
     1
  8
0
  2
$PAPER_SPACE
 70
     0
 10
0.0
 20
0.0
 30
0.0
  3
$PAPER_SPACE
  1

  0
ENDBLK
  5
417
 67
     1
  8
0
  0
BLOCK
  8
0
  2
*U2
 70
     1
 10
0.0
 20
0.0
 30
0.0
  3
*U2
  1

  0
LINE
  5
217
  8
0
 10
1.500000000000226
 20
-10.0
 30
0.0
 11
1.500000000000226
 21
10.0
 31
0.0
  0
LINE
  5
218
  8
0
 10
1.500000000000226
 20
10.0
 30
0.0
 11
-1.5
 21
10.0
 31
0.0
  0
LINE
  5
219
  8
0
 10
-1.5
 20
10.0
 30
0.0
 11
-1.5
 21
-10.0
 31
0.0
  0
LINE
  5
21A
  8
0
 10
-1.5
 20
-10.0
 30
0.0
 11
1.500000000000226
 21
-10.0
 31
0.0
  0
ENDBLK
  5
21B
  8
0
  0
BLOCK
  8
0
  2
*U3
 70
     1
 10
0.0
 20
0.0
 30
0.0
  3
*U3
  1

  0
INSERT
  5
21E
  8
0
  6
BYBLOCK
 62
     0
  2
*U2
 10
1507.1733015529101
 20
492.83533346589257
 30
0.0
  0
INSERT
  5
21F
  8
0
  6
BYBLOCK
 62
     0
  2
*U2
 10
1454.6733015529121
 20
545.3353334658932
 30
0.0
 50
90.000000000000057
  0
INSERT
  5
220
  8
0
  6
BYBLOCK
 62
     0
  2
*U2
 10
1402.1733015529121
 20
492.83533346589451
 30
0.0
 50
180.0
  0
INSERT
  5
221
  8
0
  6
BYBLOCK
 62
     0
  2
*U2
 10
1454.6733015529101
 20
440.33533346589411
 30
0.0
 50
269.99999999999989
  0
ENDBLK
  5
222
  8
0
  0
BLOCK
  8
0
  2
*U4
 70
     1
 10
0.0
 20
0.0
 30
0.0
  3
*U4
  1

  0
LINE
  5
287
  8
0
 10
1.500000000000226
 20
-10.0
 30
0.0
 11
1.500000000000226
 21
10.0
 31
0.0
  0
LINE
  5
288
  8
0
 10
1.500000000000226
 20
10.0
 30
0.0
 11
-1.5
 21
10.0
 31
0.0
  0
LINE
  5
289
  8
0
 10
-1.5
 20
10.0
 30
0.0
 11
-1.5
 21
-10.0
 31
0.0
  0
LINE
  5
28A
  8
0
 10
-1.5
 20
-10.0
 30
0.0
 11
1.500000000000226
 21
-10.0
 31
0.0
  0
ENDBLK
  5
28B
  8
0
  0
BLOCK
  8
0
  2
*U5
 70
     1
 10
0.0
 20
0.0
 30
0.0
  3
*U5
  1

  0
INSERT
  5
290
  8
0
  6
BYBLOCK
 62
     0
  2
*U4
 10
1507.1733015529101
 20
492.83533346589257
 30
0.0
  0
INSERT
  5
291
  8
0
  6
BYBLOCK
 62
     0
  2
*U4
 10
1454.6733015529121
 20
545.3353334658932
 30
0.0
 50
90.000000000000057
  0
INSERT
  5
292
  8
0
  6
BYBLOCK
 62
     0
  2
*U4
 10
1402.1733015529121
 20
492.83533346589451
 30
0.0
 50
180.0
  0
INSERT
  5
293
  8
0
  6
BYBLOCK
 62
     0
  2
*U4
 10
1454.6733015529101
 20
440.33533346589411
 30
0.0
 50
269.99999999999989
  0
ENDBLK
  5
294
  8
0
  0
ENDSEC
  0
SECTION
  2
ENTITIES
  0
POLYLINE
  5
2F3
  8
0
 66
     1
 10
0.0
 20
0.0
 30
0.0
 70
     1
  0
VERTEX
  5
866
  8
0
 10
2996.4487254355799
 20
1723.224532241773
 30
0.0
 42
-1.0
  0
VERTEX
  5
867
  8
0
 10
2999.4487254355799
 20
1723.224532241773
 30
0.0
 42
-1.0
  0
SEQEND
  5
868
  8
0
  0
POLYLINE
  5
2FA
  8
0
 66
     1
 10
0.0
 20
0.0
 30
0.0
 70
     1
  0
VERTEX
  5
869
  8
0
 10
3046.4487254355799
 20
1723.224532241773
 30
0.0
 42
-1.0
  0
VERTEX
  5
86A
  8
0
 10
3049.4487254355799
 20
1723.224532241773
 30
0.0
 42
-1.0
  0
SEQEND
  5
86B
  8
0
  0
POLYLINE
  5
2FB
  8
0
 66
     1
 10
0.0
 20
0.0
 30
0.0
 70
     1
  0
VERTEX
  5
86C
  8
0
 10
2999.4487254355799
 20
1631.224532241773
 30
0.0
 42
-1.0
  0
VERTEX
  5
86D
  8
0
 10
2996.4487254355799
 20
1631.224532241773
 30
0.0
 42
-1.0
  0
SEQEND
  5
86E
  8
0
  0
POLYLINE
  5
300
  8
0
 66
     1
 10
0.0
 20
0.0
 30
0.0
 70
     1
  0
VERTEX
  5
86F
  8
0
 10
3049.4487254355799
 20
1631.224532241773
 30
0.0
 42
-1.0
  0
VERTEX
  5
870
  8
0
 10
3046.4487254355799
 20
1631.224532241773
 30
0.0
 42
-1.0
  0
SEQEND
  5
871
  8
0
  0
POLYLINE
  5
301
  8
0
 66
     1
 10
0.0
 20
0.0
 30
0.0
 70
     1
  0
VERTEX
  5
872
  8
0
 10
3082.4487254355672
 20
1734.724532241773
 30
0.0
 42
0.4142135623730585
  0
VERTEX
  5
873
  8
0
 10
3080.4487254355681
 20
1736.724532241773
 30
0.0
  0
VERTEX
  5
874
  8
0
 10
2965.4487254354958
 20
1736.7245322417741
 30
0.0
 42
0.4142135623733214
  0
VERTEX
  5
875
  8
0
 10
2963.4487254354958
 20
1734.724532241773
 30
0.0
  0
VERTEX
  5
876
  8
0
 10
2963.4487254355809
 20
1619.7245322417709
 30
0.0
 42
0.4142135623728764
  0
VERTEX
  5
877
  8
0
 10
2965.4487254355822
 20
1617.724532241773
 30
0.0
  0
VERTEX
  5
878
  8
0
 10
3080.4487254355809
 20
1617.724532241773
 30
0.0
 42
0.41421356237313
  0
VERTEX
  5
879
  8
0
 10
3082.4487254355809
 20
1619.724532241773
 30
0.0
  0
SEQEND
  5
87A
  8
0
  0
POLYLINE
  5
585
  8
0
 66
     1
 10
0.0
 20
0.0
 30
0.0
 70
     1
  0
VERTEX
  5
8B6
  8
0
 10
3033.2987254355821
 20
1727.8745322417731
 30
0.0
  0
VERTEX
  5
8B7
  8
0
 10
3012.5987254355819
 20
1727.8745322417731
 30
0.0
  0
VERTEX
  5
8B8
  8
0
 10
3012.5987254355819
 20
1731.5745322417731
 30
0.0
  0
VERTEX
  5
8B9
  8
0
 10
3033.2987254355821
 20
1731.5745322417731
 30
0.0
  0
SEQEND
  5
8BA
  8
0
  0
POLYLINE
  5
586
  8
0
 66
     1
 10
0.0
 20
0.0
 30
0.0
 70
     1
  0
VERTEX
  5
8BB
  8
0
 10
3073.59872543558
 20
1666.8745322417731
 30
0.0
  0
VERTEX
  5
8BC
  8
0
 10
3073.59872543558
 20
1687.5745322417731
 30
0.0
  0
VERTEX
  5
8BD
  8
0
 10
3077.2987254355799
 20
1687.5745322417731
 30
0.0
  0
VERTEX
  5
8BE
  8
0
 10
3077.2987254355799
 20
1666.8745322417731
 30
0.0
  0
SEQEND
  5
8BF
  8
0
  0
POLYLINE
  5
587
  8
0
 66
     1
 10
0.0
 20
0.0
 30
0.0
 70
     1
  0
VERTEX
  5
8C0
  8
0
 10
2972.2987254355812
 20
1666.8745322417749
 30
0.0
  0
VERTEX
  5
8C1
  8
0
 10
2968.5987254355809
 20
1666.8745322417749
 30
0.0
  0
VERTEX
  5
8C2
  8
0
 10
2968.5987254355809
 20
1687.574532241774
 30
0.0
  0
VERTEX
  5
8C3
  8
0
 10
2972.2987254355812
 20
1687.574532241774
 30
0.0
  0
SEQEND
  5
8C4
  8
0
  0
POLYLINE
  5
589
  8
0
 66
     1
 10
0.0
 20
0.0
 30
0.0
 70
     1
  0
VERTEX
  5
8C5
  8
0
 10
3073.7487254356211
 20
1721.02453224172
 30
0.0
  0
VERTEX
  5
8C6
  8
0
 10
3073.7487254356251
 20
1725.42453224172
 30
0.0
  0
VERTEX
  5
8C7
  8
0
 10
3077.1487254356261
 20
1725.424532241716
 30
0.0
  0
VERTEX
  5
8C8
  8
0
 10
3077.1487254356221
 20
1721.024532241717
 30
0.0
  0
SEQEND
  5
8C9
  8
0
  0
POLYLINE
  5
58A
  8
0
 66
     1
 10
0.0
 20
0.0
 30
0.0
 70
     1
  0
VERTEX
  5
8CA
  8
0
 10
3066.7487254355779
 20
1728.0245322417711
 30
0.0
  0
VERTEX
  5
8CB
  8
0
 10
3066.7487254355801
 20
1731.424532241771
 30
0.0
  0
VERTEX
  5
8CC
  8
0
 10
3071.1487254355802
 20
1731.424532241771
 30
0.0
  0
VERTEX
  5
8CD
  8
0
 10
3071.1487254355789
 20
1728.0245322417711
 30
0.0
  0
SEQEND
  5
8CE
  8
0
  0
POLYLINE
  5
58B
  8
0
 66
     1
 10
0.0
 20
0.0
 30
0.0
 70
     1
  0
VERTEX
  5
8CF
  8
0
 10
3073.7487254354901
 20
1633.42453224172
 30
0.0
  0
VERTEX
  5
8D0
  8
0
 10
3077.1487254354902
 20
1633.4245322417171
 30
0.0
  0
VERTEX
  5
8D1
  8
0
 10
3077.1487254354838
 20
1629.024532241717
 30
0.0
  0
VERTEX
  5
8D2
  8
0
 10
3073.7487254354842
 20
1629.02453224172
 30
0.0
  0
SEQEND
  5
8D3
  8
0
  0
POLYLINE
  5
58C
  8
0
 66
     1
 10
0.0
 20
0.0
 30
0.0
 70
     1
  0
VERTEX
  5
8D4
  8
0
 10
3066.7487254355779
 20
1626.424532241773
 30
0.0
  0
VERTEX
  5
8D5
  8
0
 10
3071.1487254355789
 20
1626.424532241773
 30
0.0
  0
VERTEX
  5
8D6
  8
0
 10
3071.1487254355802
 20
1623.0245322417741
 30
0.0
  0
VERTEX
  5
8D7
  8
0
 10
3066.7487254355801
 20
1623.0245322417741
 30
0.0
  0
SEQEND
  5
8D8
  8
0
  0
POLYLINE
  5
58D
  8
0
 66
     1
 10
0.0
 20
0.0
 30
0.0
 70
     1
  0
VERTEX
  5
8D9
  8
0
 10
2979.1487254355779
 20
1626.424532241773
 30
0.0
  0
VERTEX
  5
8DA
  8
0
 10
2979.1487254355802
 20
1623.0245322417741
 30
0.0
  0
VERTEX
  5
8DB
  8
0
 10
2974.7487254355792
 20
1623.0245322417741
 30
0.0
  0
VERTEX
  5
8DC
  8
0
 10
2974.7487254355779
 20
1626.424532241773
 30
0.0
  0
SEQEND
  5
8DD
  8
0
  0
POLYLINE
  5
58E
  8
0
 66
     1
 10
0.0
 20
0.0
 30
0.0
 70
     1
  0
VERTEX
  5
8DE
  8
0
 10
2972.1487254355752
 20
1633.424532241773
 30
0.0
  0
VERTEX
  5
8DF
  8
0
 10
2972.148725435577
 20
1629.0245322417729
 30
0.0
  0
VERTEX
  5
8E0
  8
0
 10
2968.7487254355769
 20
1629.0245322417729
 30
0.0
  0
VERTEX
  5
8E1
  8
0
 10
2968.7487254355751
 20
1633.424532241773
 30
0.0
  0
SEQEND
  5
8E2
  8
0
  0
POLYLINE
  5
58F
  8
0
 66
     1
 10
0.0
 20
0.0
 30
0.0
 70
     1
  0
VERTEX
  5
8E3
  8
0
 10
2972.1487254355361
 20
1721.0245322417729
 30
0.0
  0
VERTEX
  5
8E4
  8
0
 10
2968.748725435536
 20
1721.0245322417729
 30
0.0
  0
VERTEX
  5
8E5
  8
0
 10
2968.7487254355342
 20
1725.4245322417721
 30
0.0
  0
VERTEX
  5
8E6
  8
0
 10
2972.1487254355338
 20
1725.4245322417721
 30
0.0
  0
SEQEND
  5
8E7
  8
0
  0
POLYLINE
  5
590
  8
0
 66
     1
 10
0.0
 20
0.0
 30
0.0
 70
     1
  0
VERTEX
  5
8E8
  8
0
 10
2979.1487254355779
 20
1728.0245322417711
 30
0.0
  0
VERTEX
  5
8E9
  8
0
 10
2974.7487254355779
 20
1728.0245322417711
 30
0.0
  0
VERTEX
  5
8EA
  8
0
 10
2974.7487254355792
 20
1731.424532241771
 30
0.0
  0
VERTEX
  5
8EB
  8
0
 10
2979.1487254355802
 20
1731.424532241771
 30
0.0
  0
SEQEND
  5
8EC
  8
0
  0
POLYLINE
  5
7D1
  8
0
 66
     1
 10
0.0
 20
0.0
 30
0.0
 70
     1
  0
VERTEX
  5
8ED
  8
0
 10
3033.2987254355799
 20
1626.574532241774
 30
0.0
  0
VERTEX
  5
8EE
  8
0
 10
3033.2987254355799
 20
1622.874532241774
 30
0.0
  0
VERTEX
  5
8EF
  8
0
 10
3012.5987254355809
 20
1622.874532241774
 30
0.0
  0
VERTEX
  5
8F0
  8
0
 10
3012.5987254355809
 20
1626.574532241774
 30
0.0
  0
SEQEND
  5
8F1
  8
0
  0
ENDSEC
  0
EOF
